<mxfile host="Electron" modified="2023-09-12T10:45:24.275Z" agent="Mozilla/5.0 (Macintosh; Intel Mac OS X 10_15_7) AppleWebKit/537.36 (KHTML, like Gecko) draw.io/21.6.8 Chrome/114.0.5735.289 Electron/25.5.0 Safari/537.36" etag="SOw2y9n_sFGOz2SvG_bV" version="21.6.8" type="device">
  <diagram name="Page-1" id="c7558073-3199-34d8-9f00-42111426c3f3">
    <mxGraphModel dx="2346" dy="824" grid="0" gridSize="10" guides="1" tooltips="1" connect="1" arrows="1" fold="1" page="0" pageScale="1" pageWidth="826" pageHeight="1169" background="none" math="0" shadow="0">
      <root>
        <mxCell id="0" />
        <mxCell id="1" parent="0" />
        <mxCell id="4" value="Enterprise&#xa;Systems&#xa;Data Source" style="whiteSpace=wrap;align=center;verticalAlign=middle;fontStyle=1;strokeWidth=3;fillColor=#FFFFCC" parent="1" vertex="1">
          <mxGeometry x="20" y="310" width="90" height="60" as="geometry" />
        </mxCell>
        <mxCell id="kHVGK9-RYXTtvskkM3RL-126" style="edgeStyle=orthogonalEdgeStyle;rounded=0;orthogonalLoop=1;jettySize=auto;html=1;entryX=0;entryY=0.5;entryDx=0;entryDy=0;strokeWidth=2;strokeColor=#990000;" parent="1" source="5" target="kHVGK9-RYXTtvskkM3RL-120" edge="1">
          <mxGeometry relative="1" as="geometry">
            <Array as="points">
              <mxPoint x="540" y="645" />
            </Array>
          </mxGeometry>
        </mxCell>
        <mxCell id="kHVGK9-RYXTtvskkM3RL-140" style="edgeStyle=orthogonalEdgeStyle;rounded=0;orthogonalLoop=1;jettySize=auto;html=1;entryX=0.5;entryY=0;entryDx=0;entryDy=0;strokeColor=#990000;strokeWidth=2;" parent="1" source="5" target="kHVGK9-RYXTtvskkM3RL-135" edge="1">
          <mxGeometry relative="1" as="geometry">
            <Array as="points">
              <mxPoint x="540" y="265" />
              <mxPoint x="1165" y="265" />
            </Array>
          </mxGeometry>
        </mxCell>
        <mxCell id="5" value="Data Lakehouse" style="shape=process;whiteSpace=wrap;align=center;verticalAlign=top;size=0.0475;fontStyle=1;strokeWidth=3;fillColor=#FFCCCC" parent="1" vertex="1">
          <mxGeometry x="370" y="390" width="340" height="150" as="geometry" />
        </mxCell>
        <mxCell id="6" value="&lt;p style=&quot;margin: 0px; margin-top: 4px; text-align: center; text-decoration: underline;&quot;&gt;&lt;strong&gt;Process 1&lt;br&gt;&lt;/strong&gt;&lt;/p&gt;&lt;hr&gt;&lt;p style=&quot;margin: 0px; margin-left: 8px;&quot;&gt;ETL&lt;/p&gt;&lt;p style=&quot;margin: 0px; margin-left: 8px;&quot;&gt;extract transform&lt;/p&gt;&lt;p style=&quot;margin: 0px; margin-left: 8px;&quot;&gt;and load data&lt;/p&gt;" style="verticalAlign=middle;align=center;overflow=fill;fontSize=12;fontFamily=Helvetica;html=1;rounded=1;fontStyle=1;strokeWidth=3;fillColor=#E6FFCC" parent="1" vertex="1">
          <mxGeometry x="210" y="412" width="110" height="90" as="geometry" />
        </mxCell>
        <mxCell id="55" value="" style="edgeStyle=elbowEdgeStyle;elbow=horizontal;strokeColor=#990000;strokeWidth=2;exitX=1;exitY=0.5;exitDx=0;exitDy=0;entryX=0;entryY=0.5;entryDx=0;entryDy=0;" parent="1" source="4" target="6" edge="1">
          <mxGeometry width="100" height="100" relative="1" as="geometry">
            <mxPoint x="50" y="530" as="sourcePoint" />
            <mxPoint x="150" y="430" as="targetPoint" />
            <Array as="points">
              <mxPoint x="150" y="400" />
            </Array>
          </mxGeometry>
        </mxCell>
        <mxCell id="69" value="" style="edgeStyle=segmentEdgeStyle;strokeColor=#990000;strokeWidth=2;exitX=1;exitY=0.5;exitDx=0;exitDy=0;" parent="1" source="kHVGK9-RYXTtvskkM3RL-113" edge="1">
          <mxGeometry width="100" height="100" relative="1" as="geometry">
            <mxPoint x="730.5" y="389" as="sourcePoint" />
            <mxPoint x="370" y="510" as="targetPoint" />
            <Array as="points">
              <mxPoint x="110" y="642" />
              <mxPoint x="300" y="642" />
              <mxPoint x="300" y="510" />
            </Array>
          </mxGeometry>
        </mxCell>
        <mxCell id="72" value="" style="edgeStyle=elbowEdgeStyle;elbow=vertical;strokeColor=#990000;strokeWidth=2;" parent="1" edge="1">
          <mxGeometry width="100" height="100" relative="1" as="geometry">
            <mxPoint x="320" y="460" as="sourcePoint" />
            <mxPoint x="368" y="460" as="targetPoint" />
            <Array as="points">
              <mxPoint x="340" y="460" />
            </Array>
          </mxGeometry>
        </mxCell>
        <mxCell id="kHVGK9-RYXTtvskkM3RL-100" value="Log,File,Media&#xa;Data Source" style="whiteSpace=wrap;align=center;verticalAlign=middle;fontStyle=1;strokeWidth=3;fillColor=#FFFFCC" parent="1" vertex="1">
          <mxGeometry x="20" y="520" width="90" height="60" as="geometry" />
        </mxCell>
        <mxCell id="kHVGK9-RYXTtvskkM3RL-104" value="" style="edgeStyle=elbowEdgeStyle;elbow=horizontal;strokeColor=#990000;strokeWidth=2;exitX=1;exitY=0.5;exitDx=0;exitDy=0;entryX=0;entryY=0.5;entryDx=0;entryDy=0;" parent="1" source="kHVGK9-RYXTtvskkM3RL-100" target="6" edge="1">
          <mxGeometry width="100" height="100" relative="1" as="geometry">
            <mxPoint x="110" y="341" as="sourcePoint" />
            <mxPoint x="220" y="451" as="targetPoint" />
            <Array as="points">
              <mxPoint x="150" y="500" />
            </Array>
          </mxGeometry>
        </mxCell>
        <mxCell id="kHVGK9-RYXTtvskkM3RL-105" value="structured&lt;br&gt;data" style="text;html=1;align=center;verticalAlign=middle;resizable=0;points=[];autosize=1;strokeColor=none;fillColor=none;" parent="1" vertex="1">
          <mxGeometry x="120" y="394" width="80" height="40" as="geometry" />
        </mxCell>
        <mxCell id="kHVGK9-RYXTtvskkM3RL-106" value="semi-structured&lt;br&gt;and unstructured&lt;br&gt;data" style="text;html=1;align=center;verticalAlign=middle;resizable=0;points=[];autosize=1;strokeColor=none;fillColor=none;" parent="1" vertex="1">
          <mxGeometry x="105" y="476" width="110" height="60" as="geometry" />
        </mxCell>
        <mxCell id="kHVGK9-RYXTtvskkM3RL-108" value="Raw Data" style="shape=process;whiteSpace=wrap;html=1;backgroundOutline=1;fillColor=#dae8fc;strokeColor=#6c8ebf;" parent="1" vertex="1">
          <mxGeometry x="400" y="424.5" width="81.5" height="35" as="geometry" />
        </mxCell>
        <mxCell id="kHVGK9-RYXTtvskkM3RL-109" value="Summary Data" style="shape=process;whiteSpace=wrap;html=1;backgroundOutline=1;fillColor=#dae8fc;strokeColor=#6c8ebf;" parent="1" vertex="1">
          <mxGeometry x="499.25" y="424.5" width="81.5" height="35" as="geometry" />
        </mxCell>
        <mxCell id="kHVGK9-RYXTtvskkM3RL-110" value="Meta Data" style="shape=process;whiteSpace=wrap;html=1;backgroundOutline=1;fillColor=#dae8fc;strokeColor=#6c8ebf;" parent="1" vertex="1">
          <mxGeometry x="598.5" y="424.5" width="81.5" height="35" as="geometry" />
        </mxCell>
        <mxCell id="kHVGK9-RYXTtvskkM3RL-113" value="Message Queue&#xa;Data source" style="whiteSpace=wrap;align=center;verticalAlign=middle;fontStyle=1;strokeWidth=3;fillColor=#FFFFCC" parent="1" vertex="1">
          <mxGeometry x="20" y="610" width="90" height="60" as="geometry" />
        </mxCell>
        <mxCell id="kHVGK9-RYXTtvskkM3RL-115" value="Real-Time" style="text;html=1;align=center;verticalAlign=middle;resizable=0;points=[];autosize=1;strokeColor=none;fillColor=none;" parent="1" vertex="1">
          <mxGeometry x="150" y="635" width="80" height="30" as="geometry" />
        </mxCell>
        <mxCell id="kHVGK9-RYXTtvskkM3RL-116" value="&lt;p style=&quot;margin: 0px; margin-top: 4px; text-align: center; text-decoration: underline;&quot;&gt;&lt;strong&gt;&lt;strong&gt;Process&lt;/strong&gt;&amp;nbsp;2&lt;br&gt;&lt;/strong&gt;&lt;/p&gt;&lt;hr&gt;&lt;p style=&quot;margin: 0px; margin-left: 8px;&quot;&gt;Data Preparing&lt;/p&gt;&lt;p style=&quot;margin: 0px; margin-left: 8px;&quot;&gt;&lt;br&gt;&lt;/p&gt;" style="verticalAlign=middle;align=center;overflow=fill;fontSize=12;fontFamily=Helvetica;html=1;rounded=1;fontStyle=1;strokeWidth=3;fillColor=#E6FFCC" parent="1" vertex="1">
          <mxGeometry x="400" y="470" width="280" height="60" as="geometry" />
        </mxCell>
        <mxCell id="kHVGK9-RYXTtvskkM3RL-123" style="edgeStyle=orthogonalEdgeStyle;rounded=0;orthogonalLoop=1;jettySize=auto;html=1;entryX=0;entryY=0.5;entryDx=0;entryDy=0;strokeWidth=2;strokeColor=#990000;" parent="1" source="kHVGK9-RYXTtvskkM3RL-117" target="kHVGK9-RYXTtvskkM3RL-119" edge="1">
          <mxGeometry relative="1" as="geometry" />
        </mxCell>
        <mxCell id="kHVGK9-RYXTtvskkM3RL-124" style="edgeStyle=orthogonalEdgeStyle;rounded=0;orthogonalLoop=1;jettySize=auto;html=1;entryX=0;entryY=0.5;entryDx=0;entryDy=0;strokeWidth=2;strokeColor=#990000;" parent="1" source="kHVGK9-RYXTtvskkM3RL-117" target="kHVGK9-RYXTtvskkM3RL-121" edge="1">
          <mxGeometry relative="1" as="geometry" />
        </mxCell>
        <mxCell id="kHVGK9-RYXTtvskkM3RL-125" style="edgeStyle=orthogonalEdgeStyle;rounded=0;orthogonalLoop=1;jettySize=auto;html=1;entryX=0;entryY=0.5;entryDx=0;entryDy=0;strokeWidth=2;strokeColor=#990000;" parent="1" source="kHVGK9-RYXTtvskkM3RL-117" target="kHVGK9-RYXTtvskkM3RL-122" edge="1">
          <mxGeometry relative="1" as="geometry" />
        </mxCell>
        <mxCell id="kHVGK9-RYXTtvskkM3RL-117" value="&lt;p style=&quot;margin: 0px; margin-top: 4px; text-align: center; text-decoration: underline;&quot;&gt;&lt;strong&gt;Process 3&lt;br&gt;&lt;/strong&gt;&lt;/p&gt;&lt;hr&gt;&lt;p style=&quot;margin: 0px; margin-left: 8px;&quot;&gt;ETL&lt;/p&gt;&lt;p style=&quot;margin: 0px; margin-left: 8px;&quot;&gt;extract transform&lt;/p&gt;&lt;p style=&quot;margin: 0px; margin-left: 8px;&quot;&gt;and load data&lt;/p&gt;" style="verticalAlign=middle;align=center;overflow=fill;fontSize=12;fontFamily=Helvetica;html=1;rounded=1;fontStyle=1;strokeWidth=3;fillColor=#E6FFCC" parent="1" vertex="1">
          <mxGeometry x="740" y="420" width="110" height="90" as="geometry" />
        </mxCell>
        <mxCell id="kHVGK9-RYXTtvskkM3RL-118" value="" style="edgeStyle=elbowEdgeStyle;elbow=vertical;strokeColor=#990000;strokeWidth=2;exitX=1;exitY=0.5;exitDx=0;exitDy=0;entryX=0;entryY=0.5;entryDx=0;entryDy=0;" parent="1" source="5" target="kHVGK9-RYXTtvskkM3RL-117" edge="1">
          <mxGeometry width="100" height="100" relative="1" as="geometry">
            <mxPoint x="710" y="459.5" as="sourcePoint" />
            <mxPoint x="760" y="464.5" as="targetPoint" />
            <Array as="points" />
          </mxGeometry>
        </mxCell>
        <mxCell id="kHVGK9-RYXTtvskkM3RL-139" style="edgeStyle=orthogonalEdgeStyle;rounded=0;orthogonalLoop=1;jettySize=auto;html=1;entryX=0;entryY=0.5;entryDx=0;entryDy=0;strokeColor=#990000;strokeWidth=2;" parent="1" source="kHVGK9-RYXTtvskkM3RL-119" target="kHVGK9-RYXTtvskkM3RL-135" edge="1">
          <mxGeometry relative="1" as="geometry" />
        </mxCell>
        <mxCell id="kHVGK9-RYXTtvskkM3RL-119" value="BI &#xa;Database&#xa;Sink" style="whiteSpace=wrap;align=center;verticalAlign=middle;fontStyle=1;strokeWidth=3;fillColor=#FFFFCC" parent="1" vertex="1">
          <mxGeometry x="901.5" y="300" width="90" height="60" as="geometry" />
        </mxCell>
        <mxCell id="kHVGK9-RYXTtvskkM3RL-132" style="edgeStyle=orthogonalEdgeStyle;rounded=0;orthogonalLoop=1;jettySize=auto;html=1;entryX=1;entryY=0.75;entryDx=0;entryDy=0;strokeColor=#990000;strokeWidth=2;" parent="1" source="kHVGK9-RYXTtvskkM3RL-120" target="kHVGK9-RYXTtvskkM3RL-122" edge="1">
          <mxGeometry relative="1" as="geometry">
            <Array as="points">
              <mxPoint x="1030" y="650" />
              <mxPoint x="1030" y="535" />
            </Array>
          </mxGeometry>
        </mxCell>
        <mxCell id="kHVGK9-RYXTtvskkM3RL-120" value="&lt;p style=&quot;margin: 0px; margin-top: 4px; text-align: center; text-decoration: underline;&quot;&gt;&lt;strong&gt;Process 4&lt;br&gt;&lt;/strong&gt;&lt;/p&gt;&lt;hr&gt;&lt;p style=&quot;margin: 0px; margin-left: 8px;&quot;&gt;Training&lt;/p&gt;&lt;p style=&quot;margin: 0px; margin-left: 8px;&quot;&gt;Data&lt;/p&gt;&lt;p style=&quot;margin: 0px; margin-left: 8px;&quot;&gt;Programme&lt;/p&gt;" style="verticalAlign=middle;align=center;overflow=fill;fontSize=12;fontFamily=Helvetica;html=1;rounded=1;fontStyle=1;strokeWidth=3;fillColor=#E6FFCC" parent="1" vertex="1">
          <mxGeometry x="891.5" y="600" width="110" height="90" as="geometry" />
        </mxCell>
        <mxCell id="kHVGK9-RYXTtvskkM3RL-141" style="edgeStyle=orthogonalEdgeStyle;rounded=0;orthogonalLoop=1;jettySize=auto;html=1;entryX=0;entryY=0.5;entryDx=0;entryDy=0;strokeColor=#990000;strokeWidth=2;" parent="1" source="kHVGK9-RYXTtvskkM3RL-121" target="kHVGK9-RYXTtvskkM3RL-136" edge="1">
          <mxGeometry relative="1" as="geometry" />
        </mxCell>
        <mxCell id="kHVGK9-RYXTtvskkM3RL-121" value="Report Database&#xa;Sink" style="whiteSpace=wrap;align=center;verticalAlign=middle;fontStyle=1;strokeWidth=3;fillColor=#FFFFCC" parent="1" vertex="1">
          <mxGeometry x="901.5" y="394" width="90" height="60" as="geometry" />
        </mxCell>
        <mxCell id="kHVGK9-RYXTtvskkM3RL-127" style="edgeStyle=orthogonalEdgeStyle;rounded=0;orthogonalLoop=1;jettySize=auto;html=1;entryX=0.5;entryY=0;entryDx=0;entryDy=0;strokeColor=#990000;strokeWidth=2;" parent="1" source="kHVGK9-RYXTtvskkM3RL-122" target="kHVGK9-RYXTtvskkM3RL-120" edge="1">
          <mxGeometry relative="1" as="geometry" />
        </mxCell>
        <mxCell id="kHVGK9-RYXTtvskkM3RL-138" style="edgeStyle=orthogonalEdgeStyle;rounded=0;orthogonalLoop=1;jettySize=auto;html=1;entryX=0.5;entryY=0;entryDx=0;entryDy=0;strokeColor=#990000;strokeWidth=2;" parent="1" source="kHVGK9-RYXTtvskkM3RL-122" target="kHVGK9-RYXTtvskkM3RL-137" edge="1">
          <mxGeometry relative="1" as="geometry">
            <Array as="points">
              <mxPoint x="1165" y="520" />
            </Array>
          </mxGeometry>
        </mxCell>
        <mxCell id="kHVGK9-RYXTtvskkM3RL-122" value="Machine Learning Database&#xa;Sink" style="whiteSpace=wrap;align=center;verticalAlign=middle;fontStyle=1;strokeWidth=3;fillColor=#FFFFCC" parent="1" vertex="1">
          <mxGeometry x="901.5" y="490" width="90" height="60" as="geometry" />
        </mxCell>
        <mxCell id="kHVGK9-RYXTtvskkM3RL-128" value="Unstructured data" style="text;html=1;align=center;verticalAlign=middle;resizable=0;points=[];autosize=1;strokeColor=none;fillColor=none;" parent="1" vertex="1">
          <mxGeometry x="610" y="620" width="120" height="30" as="geometry" />
        </mxCell>
        <mxCell id="kHVGK9-RYXTtvskkM3RL-129" value="Real-time data" style="text;html=1;align=center;verticalAlign=middle;resizable=0;points=[];autosize=1;strokeColor=none;fillColor=none;" parent="1" vertex="1">
          <mxGeometry x="620" y="640" width="100" height="30" as="geometry" />
        </mxCell>
        <mxCell id="kHVGK9-RYXTtvskkM3RL-130" value="structured data" style="text;html=1;align=center;verticalAlign=middle;resizable=0;points=[];autosize=1;strokeColor=none;fillColor=none;" parent="1" vertex="1">
          <mxGeometry x="896.5" y="558" width="100" height="30" as="geometry" />
        </mxCell>
        <mxCell id="kHVGK9-RYXTtvskkM3RL-133" value="Result and Feature &lt;br&gt;Data" style="text;html=1;align=center;verticalAlign=middle;resizable=0;points=[];autosize=1;strokeColor=none;fillColor=none;" parent="1" vertex="1">
          <mxGeometry x="980" y="580" width="130" height="40" as="geometry" />
        </mxCell>
        <mxCell id="kHVGK9-RYXTtvskkM3RL-135" value="&lt;p style=&quot;margin: 0px; margin-top: 4px; text-align: center; text-decoration: underline;&quot;&gt;&lt;strong&gt;Process 7&lt;br&gt;&lt;/strong&gt;&lt;/p&gt;&lt;hr&gt;&lt;p style=&quot;margin: 0px; margin-left: 8px;&quot;&gt;BI&lt;/p&gt;&lt;p style=&quot;margin: 0px; margin-left: 8px;&quot;&gt;System&lt;/p&gt;&lt;p style=&quot;margin: 0px; margin-left: 8px;&quot;&gt;(Tableau etc.)&lt;/p&gt;" style="verticalAlign=middle;align=center;overflow=fill;fontSize=12;fontFamily=Helvetica;html=1;rounded=1;fontStyle=1;strokeWidth=3;fillColor=#E6FFCC" parent="1" vertex="1">
          <mxGeometry x="1110" y="285" width="110" height="90" as="geometry" />
        </mxCell>
        <mxCell id="kHVGK9-RYXTtvskkM3RL-136" value="&lt;p style=&quot;margin: 0px; margin-top: 4px; text-align: center; text-decoration: underline;&quot;&gt;&lt;strong&gt;Process 6&lt;br&gt;&lt;/strong&gt;&lt;/p&gt;&lt;hr&gt;&lt;p style=&quot;margin: 0px; margin-left: 8px;&quot;&gt;Report&amp;nbsp;&lt;/p&gt;&lt;p style=&quot;margin: 0px; margin-left: 8px;&quot;&gt;Management&lt;/p&gt;&lt;p style=&quot;margin: 0px; margin-left: 8px;&quot;&gt;System&lt;/p&gt;" style="verticalAlign=middle;align=center;overflow=fill;fontSize=12;fontFamily=Helvetica;html=1;rounded=1;fontStyle=1;strokeWidth=3;fillColor=#E6FFCC" parent="1" vertex="1">
          <mxGeometry x="1110" y="410" width="110" height="90" as="geometry" />
        </mxCell>
        <mxCell id="kHVGK9-RYXTtvskkM3RL-137" value="&lt;p style=&quot;margin: 0px; margin-top: 4px; text-align: center; text-decoration: underline;&quot;&gt;&lt;strong&gt;Process 5&lt;br&gt;&lt;/strong&gt;&lt;/p&gt;&lt;hr&gt;&lt;p style=&quot;margin: 0px; margin-left: 8px;&quot;&gt;ML&lt;/p&gt;&lt;p style=&quot;margin: 0px; margin-left: 8px;&quot;&gt;Management&lt;/p&gt;&lt;p style=&quot;margin: 0px; margin-left: 8px;&quot;&gt;System&lt;/p&gt;" style="verticalAlign=middle;align=center;overflow=fill;fontSize=12;fontFamily=Helvetica;html=1;rounded=1;fontStyle=1;strokeWidth=3;fillColor=#E6FFCC" parent="1" vertex="1">
          <mxGeometry x="1110" y="550" width="110" height="90" as="geometry" />
        </mxCell>
        <mxCell id="kHVGK9-RYXTtvskkM3RL-142" value="structured data" style="text;html=1;align=center;verticalAlign=middle;resizable=0;points=[];autosize=1;strokeColor=none;fillColor=none;" parent="1" vertex="1">
          <mxGeometry x="767" y="260" width="98" height="26" as="geometry" />
        </mxCell>
        <mxCell id="kHVGK9-RYXTtvskkM3RL-143" value="structured data" style="text;html=1;align=center;verticalAlign=middle;resizable=0;points=[];autosize=1;strokeColor=none;fillColor=none;" parent="1" vertex="1">
          <mxGeometry x="999" y="307" width="98" height="26" as="geometry" />
        </mxCell>
        <mxCell id="kHVGK9-RYXTtvskkM3RL-144" value="structured data" style="text;html=1;align=center;verticalAlign=middle;resizable=0;points=[];autosize=1;strokeColor=none;fillColor=none;" parent="1" vertex="1">
          <mxGeometry x="1006" y="420" width="98" height="26" as="geometry" />
        </mxCell>
        <mxCell id="kHVGK9-RYXTtvskkM3RL-146" style="edgeStyle=orthogonalEdgeStyle;rounded=0;orthogonalLoop=1;jettySize=auto;html=1;entryX=0;entryY=0.5;entryDx=0;entryDy=0;strokeColor=#990000;strokeWidth=2;" parent="1" source="kHVGK9-RYXTtvskkM3RL-145" target="6" edge="1">
          <mxGeometry relative="1" as="geometry" />
        </mxCell>
        <mxCell id="kHVGK9-RYXTtvskkM3RL-145" value="Devices&#xa;Data Source" style="whiteSpace=wrap;align=center;verticalAlign=middle;fontStyle=1;strokeWidth=3;fillColor=#FFFFCC" parent="1" vertex="1">
          <mxGeometry x="20" y="427" width="90" height="60" as="geometry" />
        </mxCell>
        <mxCell id="kHVGK9-RYXTtvskkM3RL-147" value="Data Engineer" style="shape=umlActor;verticalLabelPosition=bottom;verticalAlign=top;html=1;outlineConnect=0;" parent="1" vertex="1">
          <mxGeometry x="772" y="747" width="30" height="60" as="geometry" />
        </mxCell>
        <mxCell id="adcOMhaCOicmXavMco_6-74" value="Machine Learning &lt;br&gt;Engineer" style="shape=umlActor;verticalLabelPosition=bottom;verticalAlign=top;html=1;outlineConnect=0;" parent="1" vertex="1">
          <mxGeometry x="1464" y="1131" width="30" height="60" as="geometry" />
        </mxCell>
        <mxCell id="adcOMhaCOicmXavMco_6-80" value="Business&lt;br&gt;User" style="shape=umlActor;verticalLabelPosition=bottom;verticalAlign=top;html=1;outlineConnect=0;" parent="1" vertex="1">
          <mxGeometry x="1466" y="887" width="30" height="60" as="geometry" />
        </mxCell>
        <mxCell id="adcOMhaCOicmXavMco_6-83" value="MLops Developer" style="shape=umlActor;verticalLabelPosition=bottom;verticalAlign=top;html=1;outlineConnect=0;" parent="1" vertex="1">
          <mxGeometry x="772" y="1047" width="30" height="60" as="geometry" />
        </mxCell>
        <mxCell id="adcOMhaCOicmXavMco_6-85" value="" style="whiteSpace=wrap;html=1;aspect=fixed;" parent="1" vertex="1">
          <mxGeometry x="899" y="725" width="503" height="503" as="geometry" />
        </mxCell>
        <mxCell id="C6sxAUYNm-xUelnhP_Im-78" style="edgeStyle=orthogonalEdgeStyle;rounded=0;orthogonalLoop=1;jettySize=auto;html=1;entryX=1;entryY=0.5;entryDx=0;entryDy=0;" parent="1" source="C6sxAUYNm-xUelnhP_Im-79" target="C6sxAUYNm-xUelnhP_Im-102" edge="1">
          <mxGeometry relative="1" as="geometry" />
        </mxCell>
        <mxCell id="C6sxAUYNm-xUelnhP_Im-79" value="Data&lt;br&gt;Pre-processing" style="rounded=0;whiteSpace=wrap;html=1;fillColor=#f5f5f5;fontColor=#333333;strokeColor=#666666;" parent="1" vertex="1">
          <mxGeometry x="1640" y="375" width="94" height="36" as="geometry" />
        </mxCell>
        <mxCell id="C6sxAUYNm-xUelnhP_Im-80" style="edgeStyle=orthogonalEdgeStyle;rounded=0;orthogonalLoop=1;jettySize=auto;html=1;" parent="1" source="C6sxAUYNm-xUelnhP_Im-81" target="C6sxAUYNm-xUelnhP_Im-107" edge="1">
          <mxGeometry relative="1" as="geometry" />
        </mxCell>
        <mxCell id="C6sxAUYNm-xUelnhP_Im-81" value="Features&lt;br&gt;Extraction" style="rounded=0;whiteSpace=wrap;html=1;fillColor=#f5f5f5;fontColor=#333333;strokeColor=#666666;" parent="1" vertex="1">
          <mxGeometry x="1450" y="375" width="62" height="37" as="geometry" />
        </mxCell>
        <mxCell id="C6sxAUYNm-xUelnhP_Im-82" value="" style="rounded=0;orthogonalLoop=1;jettySize=auto;html=1;exitX=0.25;exitY=1;exitDx=0;exitDy=0;" parent="1" source="C6sxAUYNm-xUelnhP_Im-84" target="C6sxAUYNm-xUelnhP_Im-86" edge="1">
          <mxGeometry relative="1" as="geometry" />
        </mxCell>
        <mxCell id="C6sxAUYNm-xUelnhP_Im-83" value="" style="rounded=0;orthogonalLoop=1;jettySize=auto;html=1;exitX=0.75;exitY=1;exitDx=0;exitDy=0;" parent="1" source="C6sxAUYNm-xUelnhP_Im-84" target="C6sxAUYNm-xUelnhP_Im-88" edge="1">
          <mxGeometry relative="1" as="geometry" />
        </mxCell>
        <mxCell id="C6sxAUYNm-xUelnhP_Im-84" value="Split dataset" style="rounded=0;whiteSpace=wrap;html=1;fillColor=#f5f5f5;fontColor=#333333;strokeColor=#666666;" parent="1" vertex="1">
          <mxGeometry x="1354" y="443" width="74" height="43" as="geometry" />
        </mxCell>
        <mxCell id="C6sxAUYNm-xUelnhP_Im-85" style="edgeStyle=orthogonalEdgeStyle;rounded=0;orthogonalLoop=1;jettySize=auto;html=1;exitX=0.5;exitY=1;exitDx=0;exitDy=0;" parent="1" source="C6sxAUYNm-xUelnhP_Im-88" target="C6sxAUYNm-xUelnhP_Im-90" edge="1">
          <mxGeometry relative="1" as="geometry" />
        </mxCell>
        <mxCell id="C6sxAUYNm-xUelnhP_Im-86" value="Training dataset&lt;br style=&quot;border-color: var(--border-color);&quot;&gt;80%" style="whiteSpace=wrap;html=1;fillColor=#f5f5f5;strokeColor=#666666;fontColor=#333333;rounded=0;" parent="1" vertex="1">
          <mxGeometry x="1304" y="546" width="91" height="32" as="geometry" />
        </mxCell>
        <mxCell id="C6sxAUYNm-xUelnhP_Im-87" value="" style="edgeStyle=orthogonalEdgeStyle;rounded=0;orthogonalLoop=1;jettySize=auto;html=1;exitX=0.5;exitY=1;exitDx=0;exitDy=0;" parent="1" source="C6sxAUYNm-xUelnhP_Im-86" target="C6sxAUYNm-xUelnhP_Im-92" edge="1">
          <mxGeometry relative="1" as="geometry" />
        </mxCell>
        <mxCell id="C6sxAUYNm-xUelnhP_Im-88" value="Testing dataset&lt;br style=&quot;border-color: var(--border-color);&quot;&gt;20%" style="whiteSpace=wrap;html=1;fillColor=#f5f5f5;strokeColor=#666666;fontColor=#333333;rounded=0;" parent="1" vertex="1">
          <mxGeometry x="1429" y="546" width="88" height="31" as="geometry" />
        </mxCell>
        <mxCell id="C6sxAUYNm-xUelnhP_Im-127" style="edgeStyle=orthogonalEdgeStyle;rounded=0;orthogonalLoop=1;jettySize=auto;html=1;entryX=0;entryY=0.5;entryDx=0;entryDy=0;" parent="1" source="C6sxAUYNm-xUelnhP_Im-90" target="C6sxAUYNm-xUelnhP_Im-128" edge="1">
          <mxGeometry relative="1" as="geometry">
            <mxPoint x="1572" y="640" as="targetPoint" />
          </mxGeometry>
        </mxCell>
        <mxCell id="C6sxAUYNm-xUelnhP_Im-90" value="Evaluating &lt;br&gt;and scoring&lt;br style=&quot;border-color: var(--border-color);&quot;&gt;models" style="whiteSpace=wrap;html=1;fillColor=#f5f5f5;strokeColor=#666666;fontColor=#333333;rounded=0;" parent="1" vertex="1">
          <mxGeometry x="1428" y="615" width="90" height="50" as="geometry" />
        </mxCell>
        <mxCell id="C6sxAUYNm-xUelnhP_Im-91" style="edgeStyle=orthogonalEdgeStyle;rounded=0;orthogonalLoop=1;jettySize=auto;html=1;entryX=0;entryY=0.5;entryDx=0;entryDy=0;" parent="1" source="C6sxAUYNm-xUelnhP_Im-92" target="C6sxAUYNm-xUelnhP_Im-90" edge="1">
          <mxGeometry relative="1" as="geometry" />
        </mxCell>
        <mxCell id="C6sxAUYNm-xUelnhP_Im-92" value="Building models" style="whiteSpace=wrap;html=1;fillColor=#f5f5f5;strokeColor=#666666;fontColor=#333333;rounded=0;" parent="1" vertex="1">
          <mxGeometry x="1302" y="617.5" width="95" height="45" as="geometry" />
        </mxCell>
        <mxCell id="C6sxAUYNm-xUelnhP_Im-93" value="" style="edgeStyle=orthogonalEdgeStyle;rounded=0;orthogonalLoop=1;jettySize=auto;html=1;" parent="1" source="C6sxAUYNm-xUelnhP_Im-94" target="C6sxAUYNm-xUelnhP_Im-95" edge="1">
          <mxGeometry relative="1" as="geometry" />
        </mxCell>
        <mxCell id="C6sxAUYNm-xUelnhP_Im-94" value="Choose accurate model" style="whiteSpace=wrap;html=1;fillColor=#f5f5f5;strokeColor=#666666;fontColor=#333333;rounded=0;" parent="1" vertex="1">
          <mxGeometry x="1660" y="475" width="92" height="42" as="geometry" />
        </mxCell>
        <mxCell id="C6sxAUYNm-xUelnhP_Im-101" style="edgeStyle=orthogonalEdgeStyle;rounded=0;orthogonalLoop=1;jettySize=auto;html=1;entryX=0.5;entryY=0;entryDx=0;entryDy=0;strokeColor=#FF0000;" parent="1" source="C6sxAUYNm-xUelnhP_Im-95" target="C6sxAUYNm-xUelnhP_Im-98" edge="1">
          <mxGeometry relative="1" as="geometry" />
        </mxCell>
        <mxCell id="C6sxAUYNm-xUelnhP_Im-137" style="edgeStyle=orthogonalEdgeStyle;rounded=0;orthogonalLoop=1;jettySize=auto;html=1;entryX=0.5;entryY=1;entryDx=0;entryDy=0;dashed=1;startArrow=none;startFill=0;" parent="1" source="C6sxAUYNm-xUelnhP_Im-95" target="C6sxAUYNm-xUelnhP_Im-136" edge="1">
          <mxGeometry relative="1" as="geometry" />
        </mxCell>
        <mxCell id="C6sxAUYNm-xUelnhP_Im-95" value="Flask&lt;br&gt;Deploy as &lt;br&gt;HTTP service" style="whiteSpace=wrap;html=1;fillColor=#f5f5f5;strokeColor=#666666;fontColor=#333333;rounded=0;" parent="1" vertex="1">
          <mxGeometry x="1659" y="576" width="93" height="44" as="geometry" />
        </mxCell>
        <mxCell id="C6sxAUYNm-xUelnhP_Im-96" value="" style="ellipse;html=1;shape=startState;fillColor=#000000;strokeColor=#ff0000;" parent="1" vertex="1">
          <mxGeometry x="1304" y="297" width="30" height="30" as="geometry" />
        </mxCell>
        <mxCell id="C6sxAUYNm-xUelnhP_Im-97" value="" style="edgeStyle=orthogonalEdgeStyle;html=1;verticalAlign=bottom;endArrow=open;endSize=8;strokeColor=#ff0000;rounded=0;entryX=0;entryY=0.5;entryDx=0;entryDy=0;" parent="1" source="C6sxAUYNm-xUelnhP_Im-96" target="C6sxAUYNm-xUelnhP_Im-109" edge="1">
          <mxGeometry relative="1" as="geometry">
            <mxPoint x="1419" y="588" as="targetPoint" />
          </mxGeometry>
        </mxCell>
        <mxCell id="C6sxAUYNm-xUelnhP_Im-98" value="" style="ellipse;html=1;shape=endState;fillColor=#000000;strokeColor=#ff0000;" parent="1" vertex="1">
          <mxGeometry x="1690.5" y="660" width="30" height="30" as="geometry" />
        </mxCell>
        <mxCell id="C6sxAUYNm-xUelnhP_Im-103" style="edgeStyle=orthogonalEdgeStyle;rounded=0;orthogonalLoop=1;jettySize=auto;html=1;" parent="1" source="C6sxAUYNm-xUelnhP_Im-102" target="C6sxAUYNm-xUelnhP_Im-79" edge="1">
          <mxGeometry relative="1" as="geometry">
            <mxPoint x="1383" y="566.25" as="targetPoint" />
            <Array as="points">
              <mxPoint x="1590" y="440" />
              <mxPoint x="1687" y="440" />
            </Array>
          </mxGeometry>
        </mxCell>
        <mxCell id="C6sxAUYNm-xUelnhP_Im-104" style="edgeStyle=orthogonalEdgeStyle;rounded=0;orthogonalLoop=1;jettySize=auto;html=1;" parent="1" source="C6sxAUYNm-xUelnhP_Im-102" target="C6sxAUYNm-xUelnhP_Im-81" edge="1">
          <mxGeometry relative="1" as="geometry" />
        </mxCell>
        <mxCell id="C6sxAUYNm-xUelnhP_Im-102" value="" style="rhombus;whiteSpace=wrap;html=1;" parent="1" vertex="1">
          <mxGeometry x="1571" y="376" width="38" height="34" as="geometry" />
        </mxCell>
        <mxCell id="C6sxAUYNm-xUelnhP_Im-105" value="disqualified&lt;br&gt;data" style="text;html=1;align=center;verticalAlign=middle;resizable=0;points=[];autosize=1;strokeColor=none;fillColor=none;" parent="1" vertex="1">
          <mxGeometry x="1602" y="418.5" width="78" height="41" as="geometry" />
        </mxCell>
        <mxCell id="C6sxAUYNm-xUelnhP_Im-106" value="qualified" style="text;html=1;align=center;verticalAlign=middle;resizable=0;points=[];autosize=1;strokeColor=none;fillColor=none;" parent="1" vertex="1">
          <mxGeometry x="1516" y="373" width="63" height="26" as="geometry" />
        </mxCell>
        <mxCell id="C6sxAUYNm-xUelnhP_Im-108" style="edgeStyle=orthogonalEdgeStyle;rounded=0;orthogonalLoop=1;jettySize=auto;html=1;" parent="1" source="C6sxAUYNm-xUelnhP_Im-107" target="C6sxAUYNm-xUelnhP_Im-84" edge="1">
          <mxGeometry relative="1" as="geometry" />
        </mxCell>
        <mxCell id="C6sxAUYNm-xUelnhP_Im-107" value="Storage&lt;br&gt;Features" style="rounded=0;whiteSpace=wrap;html=1;fillColor=#f5f5f5;fontColor=#333333;strokeColor=#666666;" parent="1" vertex="1">
          <mxGeometry x="1357" y="376" width="68" height="34" as="geometry" />
        </mxCell>
        <mxCell id="C6sxAUYNm-xUelnhP_Im-111" style="edgeStyle=orthogonalEdgeStyle;rounded=0;orthogonalLoop=1;jettySize=auto;html=1;entryX=0;entryY=0.5;entryDx=0;entryDy=0;" parent="1" source="C6sxAUYNm-xUelnhP_Im-109" target="C6sxAUYNm-xUelnhP_Im-112" edge="1">
          <mxGeometry relative="1" as="geometry" />
        </mxCell>
        <mxCell id="C6sxAUYNm-xUelnhP_Im-109" value="ETL&lt;br&gt;Extract Data" style="rounded=0;whiteSpace=wrap;html=1;fillColor=#f5f5f5;fontColor=#333333;strokeColor=#666666;" parent="1" vertex="1">
          <mxGeometry x="1363" y="293.5" width="72" height="37" as="geometry" />
        </mxCell>
        <mxCell id="C6sxAUYNm-xUelnhP_Im-118" style="edgeStyle=orthogonalEdgeStyle;rounded=0;orthogonalLoop=1;jettySize=auto;html=1;" parent="1" source="C6sxAUYNm-xUelnhP_Im-110" target="C6sxAUYNm-xUelnhP_Im-117" edge="1">
          <mxGeometry relative="1" as="geometry" />
        </mxCell>
        <mxCell id="C6sxAUYNm-xUelnhP_Im-110" value="Save to Lakehouse" style="rounded=0;whiteSpace=wrap;html=1;fillColor=#f5f5f5;fontColor=#333333;strokeColor=#666666;" parent="1" vertex="1">
          <mxGeometry x="1554" y="293.5" width="72" height="37" as="geometry" />
        </mxCell>
        <mxCell id="C6sxAUYNm-xUelnhP_Im-113" style="edgeStyle=orthogonalEdgeStyle;rounded=0;orthogonalLoop=1;jettySize=auto;html=1;entryX=0.5;entryY=1;entryDx=0;entryDy=0;" parent="1" source="C6sxAUYNm-xUelnhP_Im-112" target="C6sxAUYNm-xUelnhP_Im-109" edge="1">
          <mxGeometry relative="1" as="geometry">
            <Array as="points">
              <mxPoint x="1483" y="346" />
              <mxPoint x="1399" y="346" />
            </Array>
          </mxGeometry>
        </mxCell>
        <mxCell id="C6sxAUYNm-xUelnhP_Im-115" style="edgeStyle=orthogonalEdgeStyle;rounded=0;orthogonalLoop=1;jettySize=auto;html=1;entryX=0;entryY=0.5;entryDx=0;entryDy=0;" parent="1" source="C6sxAUYNm-xUelnhP_Im-112" target="C6sxAUYNm-xUelnhP_Im-110" edge="1">
          <mxGeometry relative="1" as="geometry" />
        </mxCell>
        <mxCell id="C6sxAUYNm-xUelnhP_Im-112" value="" style="rhombus;whiteSpace=wrap;html=1;" parent="1" vertex="1">
          <mxGeometry x="1464" y="295" width="38" height="34" as="geometry" />
        </mxCell>
        <mxCell id="C6sxAUYNm-xUelnhP_Im-114" value="failure" style="text;html=1;align=center;verticalAlign=middle;resizable=0;points=[];autosize=1;strokeColor=none;fillColor=none;" parent="1" vertex="1">
          <mxGeometry x="1420" y="340" width="51" height="26" as="geometry" />
        </mxCell>
        <mxCell id="C6sxAUYNm-xUelnhP_Im-116" value="success" style="text;html=1;align=center;verticalAlign=middle;resizable=0;points=[];autosize=1;strokeColor=none;fillColor=none;" parent="1" vertex="1">
          <mxGeometry x="1494" y="290" width="61" height="26" as="geometry" />
        </mxCell>
        <mxCell id="C6sxAUYNm-xUelnhP_Im-120" style="edgeStyle=orthogonalEdgeStyle;rounded=0;orthogonalLoop=1;jettySize=auto;html=1;entryX=0;entryY=0.5;entryDx=0;entryDy=0;" parent="1" source="C6sxAUYNm-xUelnhP_Im-117" target="C6sxAUYNm-xUelnhP_Im-119" edge="1">
          <mxGeometry relative="1" as="geometry" />
        </mxCell>
        <mxCell id="C6sxAUYNm-xUelnhP_Im-117" value="Data Preparing" style="rounded=0;whiteSpace=wrap;html=1;fillColor=#f5f5f5;fontColor=#333333;strokeColor=#666666;" parent="1" vertex="1">
          <mxGeometry x="1662" y="293.5" width="72" height="37" as="geometry" />
        </mxCell>
        <mxCell id="C6sxAUYNm-xUelnhP_Im-122" style="edgeStyle=orthogonalEdgeStyle;rounded=0;orthogonalLoop=1;jettySize=auto;html=1;" parent="1" source="C6sxAUYNm-xUelnhP_Im-119" target="C6sxAUYNm-xUelnhP_Im-121" edge="1">
          <mxGeometry relative="1" as="geometry" />
        </mxCell>
        <mxCell id="C6sxAUYNm-xUelnhP_Im-119" value="ETL&lt;br&gt;Transform Data" style="rounded=0;whiteSpace=wrap;html=1;fillColor=#f5f5f5;fontColor=#333333;strokeColor=#666666;" parent="1" vertex="1">
          <mxGeometry x="1770" y="293.5" width="86" height="37" as="geometry" />
        </mxCell>
        <mxCell id="C6sxAUYNm-xUelnhP_Im-123" style="edgeStyle=orthogonalEdgeStyle;rounded=0;orthogonalLoop=1;jettySize=auto;html=1;entryX=1;entryY=0.5;entryDx=0;entryDy=0;" parent="1" source="C6sxAUYNm-xUelnhP_Im-121" target="C6sxAUYNm-xUelnhP_Im-79" edge="1">
          <mxGeometry relative="1" as="geometry" />
        </mxCell>
        <mxCell id="C6sxAUYNm-xUelnhP_Im-121" value="DataSets" style="rounded=0;whiteSpace=wrap;html=1;fillColor=#f5f5f5;fontColor=#333333;strokeColor=#666666;" parent="1" vertex="1">
          <mxGeometry x="1770" y="375" width="86" height="37" as="geometry" />
        </mxCell>
        <mxCell id="C6sxAUYNm-xUelnhP_Im-129" style="edgeStyle=orthogonalEdgeStyle;rounded=0;orthogonalLoop=1;jettySize=auto;html=1;entryX=0.5;entryY=1;entryDx=0;entryDy=0;" parent="1" source="C6sxAUYNm-xUelnhP_Im-128" target="C6sxAUYNm-xUelnhP_Im-92" edge="1">
          <mxGeometry relative="1" as="geometry">
            <Array as="points">
              <mxPoint x="1574" y="683" />
              <mxPoint x="1350" y="683" />
            </Array>
          </mxGeometry>
        </mxCell>
        <mxCell id="C6sxAUYNm-xUelnhP_Im-132" style="edgeStyle=orthogonalEdgeStyle;rounded=0;orthogonalLoop=1;jettySize=auto;html=1;" parent="1" source="C6sxAUYNm-xUelnhP_Im-128" target="C6sxAUYNm-xUelnhP_Im-131" edge="1">
          <mxGeometry relative="1" as="geometry" />
        </mxCell>
        <mxCell id="C6sxAUYNm-xUelnhP_Im-128" value="" style="rhombus;whiteSpace=wrap;html=1;" parent="1" vertex="1">
          <mxGeometry x="1555" y="623" width="38" height="34" as="geometry" />
        </mxCell>
        <mxCell id="C6sxAUYNm-xUelnhP_Im-130" value="disqualified" style="text;html=1;align=center;verticalAlign=middle;resizable=0;points=[];autosize=1;strokeColor=none;fillColor=none;" parent="1" vertex="1">
          <mxGeometry x="1420" y="677" width="78" height="26" as="geometry" />
        </mxCell>
        <mxCell id="C6sxAUYNm-xUelnhP_Im-135" style="edgeStyle=orthogonalEdgeStyle;rounded=0;orthogonalLoop=1;jettySize=auto;html=1;entryX=0;entryY=0.5;entryDx=0;entryDy=0;" parent="1" source="C6sxAUYNm-xUelnhP_Im-131" target="C6sxAUYNm-xUelnhP_Im-94" edge="1">
          <mxGeometry relative="1" as="geometry" />
        </mxCell>
        <mxCell id="C6sxAUYNm-xUelnhP_Im-131" value="Save models&lt;br&gt;result data" style="whiteSpace=wrap;html=1;fillColor=#f5f5f5;strokeColor=#666666;fontColor=#333333;rounded=0;" parent="1" vertex="1">
          <mxGeometry x="1526.5" y="476" width="95" height="40" as="geometry" />
        </mxCell>
        <mxCell id="C6sxAUYNm-xUelnhP_Im-134" value="qualified" style="text;html=1;align=center;verticalAlign=middle;resizable=0;points=[];autosize=1;strokeColor=none;fillColor=none;" parent="1" vertex="1">
          <mxGeometry x="1546" y="558" width="63" height="26" as="geometry" />
        </mxCell>
        <mxCell id="C6sxAUYNm-xUelnhP_Im-136" value="Monitoring&lt;br&gt;model" style="whiteSpace=wrap;html=1;fillColor=#f5f5f5;strokeColor=#666666;fontColor=#333333;rounded=0;" parent="1" vertex="1">
          <mxGeometry x="1770" y="527" width="86" height="37" as="geometry" />
        </mxCell>
        <mxCell id="C6sxAUYNm-xUelnhP_Im-139" value="data extraction" style="ellipse;whiteSpace=wrap;html=1;" parent="1" vertex="1">
          <mxGeometry x="953" y="753" width="89" height="48" as="geometry" />
        </mxCell>
        <mxCell id="C6sxAUYNm-xUelnhP_Im-140" value="&lt;b&gt;Data Lakehouse Platform&lt;/b&gt;" style="text;html=1;align=center;verticalAlign=middle;resizable=0;points=[];autosize=1;strokeColor=none;fillColor=none;" parent="1" vertex="1">
          <mxGeometry x="1076" y="722" width="162" height="26" as="geometry" />
        </mxCell>
        <mxCell id="C6sxAUYNm-xUelnhP_Im-141" style="rounded=0;orthogonalLoop=1;jettySize=auto;html=1;endArrow=none;endFill=0;entryX=0;entryY=0.5;entryDx=0;entryDy=0;" parent="1" source="kHVGK9-RYXTtvskkM3RL-147" target="C6sxAUYNm-xUelnhP_Im-139" edge="1">
          <mxGeometry relative="1" as="geometry">
            <mxPoint x="891" y="793.5" as="targetPoint" />
          </mxGeometry>
        </mxCell>
        <mxCell id="C6sxAUYNm-xUelnhP_Im-142" value="data preparing" style="ellipse;whiteSpace=wrap;html=1;" parent="1" vertex="1">
          <mxGeometry x="951" y="826" width="89" height="48" as="geometry" />
        </mxCell>
        <mxCell id="C6sxAUYNm-xUelnhP_Im-143" value="Raw Data&lt;br&gt;Clearning" style="ellipse;whiteSpace=wrap;html=1;" parent="1" vertex="1">
          <mxGeometry x="1247" y="753" width="89" height="48" as="geometry" />
        </mxCell>
        <mxCell id="C6sxAUYNm-xUelnhP_Im-152" style="rounded=0;orthogonalLoop=1;jettySize=auto;html=1;endArrow=block;endFill=0;endSize=10;dashed=1;" parent="1" source="C6sxAUYNm-xUelnhP_Im-144" target="C6sxAUYNm-xUelnhP_Im-142" edge="1">
          <mxGeometry relative="1" as="geometry" />
        </mxCell>
        <mxCell id="C6sxAUYNm-xUelnhP_Im-154" value="&amp;lt;includes&amp;gt;" style="edgeLabel;html=1;align=center;verticalAlign=middle;resizable=0;points=[];" parent="C6sxAUYNm-xUelnhP_Im-152" vertex="1" connectable="0">
          <mxGeometry x="-0.2913" y="-2" relative="1" as="geometry">
            <mxPoint x="-7" y="-7" as="offset" />
          </mxGeometry>
        </mxCell>
        <mxCell id="C6sxAUYNm-xUelnhP_Im-144" value="Meta Data&lt;br&gt;Managing" style="ellipse;whiteSpace=wrap;html=1;" parent="1" vertex="1">
          <mxGeometry x="1247" y="823" width="89" height="48" as="geometry" />
        </mxCell>
        <mxCell id="C6sxAUYNm-xUelnhP_Im-153" style="rounded=0;orthogonalLoop=1;jettySize=auto;html=1;entryX=0.236;entryY=0.144;entryDx=0;entryDy=0;endArrow=block;endFill=0;endSize=10;dashed=1;exitX=1;exitY=1;exitDx=0;exitDy=0;entryPerimeter=0;" parent="1" source="C6sxAUYNm-xUelnhP_Im-142" target="C6sxAUYNm-xUelnhP_Im-145" edge="1">
          <mxGeometry relative="1" as="geometry" />
        </mxCell>
        <mxCell id="C6sxAUYNm-xUelnhP_Im-155" value="&amp;lt;includes&amp;gt;" style="edgeLabel;html=1;align=center;verticalAlign=middle;resizable=0;points=[];" parent="C6sxAUYNm-xUelnhP_Im-153" vertex="1" connectable="0">
          <mxGeometry x="-0.5603" y="-1" relative="1" as="geometry">
            <mxPoint x="35" y="12" as="offset" />
          </mxGeometry>
        </mxCell>
        <mxCell id="C6sxAUYNm-xUelnhP_Im-163" style="rounded=0;orthogonalLoop=1;jettySize=auto;html=1;endSize=10;endArrow=block;endFill=0;dashed=1;" parent="1" source="C6sxAUYNm-xUelnhP_Im-145" target="C6sxAUYNm-xUelnhP_Im-157" edge="1">
          <mxGeometry relative="1" as="geometry" />
        </mxCell>
        <mxCell id="C6sxAUYNm-xUelnhP_Im-165" value="&amp;lt;extends&amp;gt;" style="edgeLabel;html=1;align=center;verticalAlign=middle;resizable=0;points=[];" parent="C6sxAUYNm-xUelnhP_Im-163" vertex="1" connectable="0">
          <mxGeometry x="-0.2142" y="-2" relative="1" as="geometry">
            <mxPoint x="-1" y="9" as="offset" />
          </mxGeometry>
        </mxCell>
        <mxCell id="C6sxAUYNm-xUelnhP_Im-145" value="Summary Data&lt;br&gt;Generating" style="ellipse;whiteSpace=wrap;html=1;" parent="1" vertex="1">
          <mxGeometry x="1067" y="899" width="89" height="48" as="geometry" />
        </mxCell>
        <mxCell id="C6sxAUYNm-xUelnhP_Im-150" value="&amp;lt;includes&amp;gt;" style="endArrow=block;endSize=10;endFill=0;html=1;rounded=0;entryX=1;entryY=0;entryDx=0;entryDy=0;exitX=0;exitY=0.5;exitDx=0;exitDy=0;dashed=1;" parent="1" source="C6sxAUYNm-xUelnhP_Im-143" target="C6sxAUYNm-xUelnhP_Im-142" edge="1">
          <mxGeometry x="-0.272" y="1" width="160" relative="1" as="geometry">
            <mxPoint x="1052" y="966" as="sourcePoint" />
            <mxPoint x="1212" y="966" as="targetPoint" />
            <mxPoint as="offset" />
          </mxGeometry>
        </mxCell>
        <mxCell id="C6sxAUYNm-xUelnhP_Im-156" style="rounded=0;orthogonalLoop=1;jettySize=auto;html=1;entryX=0;entryY=0.5;entryDx=0;entryDy=0;endArrow=none;endFill=0;" parent="1" source="kHVGK9-RYXTtvskkM3RL-147" target="C6sxAUYNm-xUelnhP_Im-142" edge="1">
          <mxGeometry relative="1" as="geometry" />
        </mxCell>
        <mxCell id="C6sxAUYNm-xUelnhP_Im-189" style="rounded=0;orthogonalLoop=1;jettySize=auto;html=1;entryX=0;entryY=0;entryDx=0;entryDy=0;endArrow=none;endFill=0;" parent="1" source="C6sxAUYNm-xUelnhP_Im-157" target="C6sxAUYNm-xUelnhP_Im-171" edge="1">
          <mxGeometry relative="1" as="geometry" />
        </mxCell>
        <mxCell id="iHXvTMDa4f_H-GTkKMhQ-72" style="rounded=0;orthogonalLoop=1;jettySize=auto;html=1;entryX=0;entryY=0.5;entryDx=0;entryDy=0;endArrow=none;endFill=0;" parent="1" source="C6sxAUYNm-xUelnhP_Im-157" target="C6sxAUYNm-xUelnhP_Im-178" edge="1">
          <mxGeometry relative="1" as="geometry" />
        </mxCell>
        <mxCell id="iHXvTMDa4f_H-GTkKMhQ-73" style="rounded=0;orthogonalLoop=1;jettySize=auto;html=1;endArrow=none;endFill=0;" parent="1" source="C6sxAUYNm-xUelnhP_Im-157" target="C6sxAUYNm-xUelnhP_Im-177" edge="1">
          <mxGeometry relative="1" as="geometry" />
        </mxCell>
        <mxCell id="C6sxAUYNm-xUelnhP_Im-157" value="data transform" style="ellipse;whiteSpace=wrap;html=1;" parent="1" vertex="1">
          <mxGeometry x="953" y="999" width="89" height="48" as="geometry" />
        </mxCell>
        <mxCell id="C6sxAUYNm-xUelnhP_Im-158" style="rounded=0;orthogonalLoop=1;jettySize=auto;html=1;entryX=0;entryY=0.5;entryDx=0;entryDy=0;endArrow=none;endFill=0;" parent="1" source="kHVGK9-RYXTtvskkM3RL-147" target="C6sxAUYNm-xUelnhP_Im-157" edge="1">
          <mxGeometry relative="1" as="geometry" />
        </mxCell>
        <mxCell id="C6sxAUYNm-xUelnhP_Im-162" value="Training Model" style="ellipse;whiteSpace=wrap;html=1;" parent="1" vertex="1">
          <mxGeometry x="1123" y="1163" width="89" height="48" as="geometry" />
        </mxCell>
        <mxCell id="C6sxAUYNm-xUelnhP_Im-166" style="rounded=0;orthogonalLoop=1;jettySize=auto;html=1;endArrow=none;endFill=0;" parent="1" source="adcOMhaCOicmXavMco_6-74" target="C6sxAUYNm-xUelnhP_Im-162" edge="1">
          <mxGeometry relative="1" as="geometry" />
        </mxCell>
        <mxCell id="C6sxAUYNm-xUelnhP_Im-184" style="rounded=0;orthogonalLoop=1;jettySize=auto;html=1;entryX=0;entryY=0.3333333333333333;entryDx=0;entryDy=0;entryPerimeter=0;endArrow=none;endFill=0;" parent="1" source="C6sxAUYNm-xUelnhP_Im-171" target="adcOMhaCOicmXavMco_6-74" edge="1">
          <mxGeometry relative="1" as="geometry" />
        </mxCell>
        <mxCell id="C6sxAUYNm-xUelnhP_Im-185" style="rounded=0;orthogonalLoop=1;jettySize=auto;html=1;dashed=1;endSize=1;endArrow=none;endFill=0;startArrow=block;startFill=0;startSize=10;" parent="1" source="C6sxAUYNm-xUelnhP_Im-171" target="C6sxAUYNm-xUelnhP_Im-162" edge="1">
          <mxGeometry relative="1" as="geometry" />
        </mxCell>
        <mxCell id="C6sxAUYNm-xUelnhP_Im-187" value="&amp;lt;includes&amp;gt;" style="edgeLabel;html=1;align=center;verticalAlign=middle;resizable=0;points=[];" parent="C6sxAUYNm-xUelnhP_Im-185" vertex="1" connectable="0">
          <mxGeometry x="0.1587" y="2" relative="1" as="geometry">
            <mxPoint as="offset" />
          </mxGeometry>
        </mxCell>
        <mxCell id="C6sxAUYNm-xUelnhP_Im-171" value="ML Management&lt;br&gt;System" style="ellipse;whiteSpace=wrap;html=1;" parent="1" vertex="1">
          <mxGeometry x="1123" y="1053" width="89" height="48" as="geometry" />
        </mxCell>
        <mxCell id="C6sxAUYNm-xUelnhP_Im-174" style="rounded=0;orthogonalLoop=1;jettySize=auto;html=1;entryX=0;entryY=0.5;entryDx=0;entryDy=0;endArrow=none;endFill=0;" parent="1" source="adcOMhaCOicmXavMco_6-83" target="C6sxAUYNm-xUelnhP_Im-171" edge="1">
          <mxGeometry relative="1" as="geometry" />
        </mxCell>
        <mxCell id="C6sxAUYNm-xUelnhP_Im-177" value="BI&lt;br&gt;System" style="ellipse;whiteSpace=wrap;html=1;" parent="1" vertex="1">
          <mxGeometry x="1247" y="960" width="89" height="48" as="geometry" />
        </mxCell>
        <mxCell id="C6sxAUYNm-xUelnhP_Im-178" value="Report Management&lt;br&gt;System" style="ellipse;whiteSpace=wrap;html=1;" parent="1" vertex="1">
          <mxGeometry x="1247" y="893" width="89" height="48" as="geometry" />
        </mxCell>
        <mxCell id="C6sxAUYNm-xUelnhP_Im-180" style="rounded=0;orthogonalLoop=1;jettySize=auto;html=1;entryX=1;entryY=0.5;entryDx=0;entryDy=0;endArrow=none;endFill=0;" parent="1" source="adcOMhaCOicmXavMco_6-80" target="C6sxAUYNm-xUelnhP_Im-178" edge="1">
          <mxGeometry relative="1" as="geometry" />
        </mxCell>
        <mxCell id="C6sxAUYNm-xUelnhP_Im-181" style="rounded=0;orthogonalLoop=1;jettySize=auto;html=1;endArrow=none;endFill=0;" parent="1" source="adcOMhaCOicmXavMco_6-80" target="C6sxAUYNm-xUelnhP_Im-177" edge="1">
          <mxGeometry relative="1" as="geometry" />
        </mxCell>
        <mxCell id="C6sxAUYNm-xUelnhP_Im-186" style="rounded=0;orthogonalLoop=1;jettySize=auto;html=1;entryX=1;entryY=0.5;entryDx=0;entryDy=0;endArrow=none;endFill=0;" parent="1" source="adcOMhaCOicmXavMco_6-80" target="C6sxAUYNm-xUelnhP_Im-171" edge="1">
          <mxGeometry relative="1" as="geometry" />
        </mxCell>
        <mxCell id="fPdp1uY-UshxWHZB-xP3-73" value="Data LakeHouse" style="shape=umlLifeline;perimeter=lifelinePerimeter;whiteSpace=wrap;html=1;container=1;dropTarget=0;collapsible=0;recursiveResize=0;outlineConnect=0;portConstraint=eastwest;newEdgeStyle={&quot;edgeStyle&quot;:&quot;elbowEdgeStyle&quot;,&quot;elbow&quot;:&quot;vertical&quot;,&quot;curved&quot;:0,&quot;rounded&quot;:0};" parent="1" vertex="1">
          <mxGeometry x="2104" y="767" width="100" height="467" as="geometry" />
        </mxCell>
        <mxCell id="fPdp1uY-UshxWHZB-xP3-74" value="Distributed File&lt;br&gt;System" style="shape=umlLifeline;perimeter=lifelinePerimeter;whiteSpace=wrap;html=1;container=1;dropTarget=0;collapsible=0;recursiveResize=0;outlineConnect=0;portConstraint=eastwest;newEdgeStyle={&quot;edgeStyle&quot;:&quot;elbowEdgeStyle&quot;,&quot;elbow&quot;:&quot;vertical&quot;,&quot;curved&quot;:0,&quot;rounded&quot;:0};" parent="1" vertex="1">
          <mxGeometry x="2246" y="767" width="100" height="472" as="geometry" />
        </mxCell>
        <mxCell id="fPdp1uY-UshxWHZB-xP3-75" value="Data Processing&lt;br&gt;Procedure" style="shape=umlLifeline;perimeter=lifelinePerimeter;whiteSpace=wrap;html=1;container=1;dropTarget=0;collapsible=0;recursiveResize=0;outlineConnect=0;portConstraint=eastwest;newEdgeStyle={&quot;edgeStyle&quot;:&quot;elbowEdgeStyle&quot;,&quot;elbow&quot;:&quot;vertical&quot;,&quot;curved&quot;:0,&quot;rounded&quot;:0};" parent="1" vertex="1">
          <mxGeometry x="1951" y="767" width="100" height="470" as="geometry" />
        </mxCell>
        <mxCell id="fPdp1uY-UshxWHZB-xP3-91" value="" style="html=1;points=[];perimeter=orthogonalPerimeter;outlineConnect=0;targetShapes=umlLifeline;portConstraint=eastwest;newEdgeStyle={&quot;edgeStyle&quot;:&quot;elbowEdgeStyle&quot;,&quot;elbow&quot;:&quot;vertical&quot;,&quot;curved&quot;:0,&quot;rounded&quot;:0};" parent="fPdp1uY-UshxWHZB-xP3-75" vertex="1">
          <mxGeometry x="45" y="125" width="10" height="230" as="geometry" />
        </mxCell>
        <mxCell id="fPdp1uY-UshxWHZB-xP3-96" style="edgeStyle=orthogonalEdgeStyle;rounded=0;orthogonalLoop=1;jettySize=auto;html=1;elbow=vertical;" parent="fPdp1uY-UshxWHZB-xP3-75" source="fPdp1uY-UshxWHZB-xP3-91" target="fPdp1uY-UshxWHZB-xP3-91" edge="1">
          <mxGeometry relative="1" as="geometry">
            <mxPoint x="171.25" y="302" as="targetPoint" />
            <mxPoint x="169" y="267" as="sourcePoint" />
            <Array as="points">
              <mxPoint x="84" y="303" />
              <mxPoint x="84" y="325" />
            </Array>
          </mxGeometry>
        </mxCell>
        <mxCell id="fPdp1uY-UshxWHZB-xP3-122" value="" style="html=1;points=[];perimeter=orthogonalPerimeter;outlineConnect=0;targetShapes=umlLifeline;portConstraint=eastwest;newEdgeStyle={&quot;edgeStyle&quot;:&quot;elbowEdgeStyle&quot;,&quot;elbow&quot;:&quot;vertical&quot;,&quot;curved&quot;:0,&quot;rounded&quot;:0};" parent="fPdp1uY-UshxWHZB-xP3-75" vertex="1">
          <mxGeometry x="45" y="63" width="10" height="43" as="geometry" />
        </mxCell>
        <mxCell id="fPdp1uY-UshxWHZB-xP3-76" value="Web Service" style="shape=umlLifeline;perimeter=lifelinePerimeter;whiteSpace=wrap;html=1;container=1;dropTarget=0;collapsible=0;recursiveResize=0;outlineConnect=0;portConstraint=eastwest;newEdgeStyle={&quot;edgeStyle&quot;:&quot;elbowEdgeStyle&quot;,&quot;elbow&quot;:&quot;vertical&quot;,&quot;curved&quot;:0,&quot;rounded&quot;:0};" parent="1" vertex="1">
          <mxGeometry x="1801" y="767" width="100" height="472" as="geometry" />
        </mxCell>
        <mxCell id="fPdp1uY-UshxWHZB-xP3-82" value="" style="html=1;points=[];perimeter=orthogonalPerimeter;outlineConnect=0;targetShapes=umlLifeline;portConstraint=eastwest;newEdgeStyle={&quot;edgeStyle&quot;:&quot;elbowEdgeStyle&quot;,&quot;elbow&quot;:&quot;vertical&quot;,&quot;curved&quot;:0,&quot;rounded&quot;:0};" parent="fPdp1uY-UshxWHZB-xP3-76" vertex="1">
          <mxGeometry x="46" y="66" width="10" height="77" as="geometry" />
        </mxCell>
        <mxCell id="fPdp1uY-UshxWHZB-xP3-83" value="2.validate info" style="html=1;align=left;spacingLeft=2;endArrow=block;rounded=0;edgeStyle=orthogonalEdgeStyle;curved=0;rounded=0;" parent="fPdp1uY-UshxWHZB-xP3-76" source="fPdp1uY-UshxWHZB-xP3-82" target="fPdp1uY-UshxWHZB-xP3-82" edge="1">
          <mxGeometry relative="1" as="geometry">
            <mxPoint x="63" y="79" as="sourcePoint" />
            <Array as="points">
              <mxPoint x="81" y="78" />
              <mxPoint x="81" y="113" />
            </Array>
          </mxGeometry>
        </mxCell>
        <mxCell id="fPdp1uY-UshxWHZB-xP3-120" value="" style="html=1;points=[];perimeter=orthogonalPerimeter;outlineConnect=0;targetShapes=umlLifeline;portConstraint=eastwest;newEdgeStyle={&quot;edgeStyle&quot;:&quot;elbowEdgeStyle&quot;,&quot;elbow&quot;:&quot;vertical&quot;,&quot;curved&quot;:0,&quot;rounded&quot;:0};" parent="fPdp1uY-UshxWHZB-xP3-76" vertex="1">
          <mxGeometry x="45" y="354" width="10" height="60" as="geometry" />
        </mxCell>
        <mxCell id="fPdp1uY-UshxWHZB-xP3-121" value="11.combine patient&#39;s info&lt;br&gt;and prediction result" style="html=1;align=left;spacingLeft=2;endArrow=block;rounded=0;edgeStyle=orthogonalEdgeStyle;curved=0;rounded=0;" parent="fPdp1uY-UshxWHZB-xP3-76" source="fPdp1uY-UshxWHZB-xP3-120" target="fPdp1uY-UshxWHZB-xP3-120" edge="1">
          <mxGeometry relative="1" as="geometry">
            <mxPoint x="66" y="367" as="sourcePoint" />
            <Array as="points">
              <mxPoint x="83" y="367" />
              <mxPoint x="83" y="402" />
            </Array>
            <mxPoint x="66" y="402" as="targetPoint" />
          </mxGeometry>
        </mxCell>
        <mxCell id="fPdp1uY-UshxWHZB-xP3-78" style="edgeStyle=elbowEdgeStyle;rounded=0;orthogonalLoop=1;jettySize=auto;html=1;elbow=vertical;curved=0;" parent="1" source="fPdp1uY-UshxWHZB-xP3-77" target="fPdp1uY-UshxWHZB-xP3-82" edge="1">
          <mxGeometry relative="1" as="geometry">
            <mxPoint x="1843" y="838" as="targetPoint" />
            <Array as="points">
              <mxPoint x="1762" y="838" />
            </Array>
          </mxGeometry>
        </mxCell>
        <mxCell id="fPdp1uY-UshxWHZB-xP3-77" value="" style="shape=umlLifeline;perimeter=lifelinePerimeter;whiteSpace=wrap;html=1;container=1;dropTarget=0;collapsible=0;recursiveResize=0;outlineConnect=0;portConstraint=eastwest;newEdgeStyle={&quot;edgeStyle&quot;:&quot;elbowEdgeStyle&quot;,&quot;elbow&quot;:&quot;vertical&quot;,&quot;curved&quot;:0,&quot;rounded&quot;:0};participant=umlActor;" parent="1" vertex="1">
          <mxGeometry x="1695.5" y="767" width="20" height="466" as="geometry" />
        </mxCell>
        <mxCell id="fPdp1uY-UshxWHZB-xP3-79" value="&lt;font style=&quot;font-size: 11px;&quot;&gt;1.input patient basic info&lt;/font&gt;" style="text;html=1;align=center;verticalAlign=middle;resizable=0;points=[];autosize=1;strokeColor=none;fillColor=none;" parent="1" vertex="1">
          <mxGeometry x="1707" y="816" width="137" height="26" as="geometry" />
        </mxCell>
        <mxCell id="fPdp1uY-UshxWHZB-xP3-85" style="edgeStyle=elbowEdgeStyle;rounded=0;orthogonalLoop=1;jettySize=auto;html=1;elbow=vertical;curved=0;" parent="1" source="fPdp1uY-UshxWHZB-xP3-82" target="fPdp1uY-UshxWHZB-xP3-91" edge="1">
          <mxGeometry relative="1" as="geometry">
            <Array as="points">
              <mxPoint x="1904" y="905" />
            </Array>
          </mxGeometry>
        </mxCell>
        <mxCell id="fPdp1uY-UshxWHZB-xP3-86" value="&lt;font style=&quot;font-size: 11px;&quot;&gt;3.invoke ml model&lt;/font&gt;" style="text;html=1;align=center;verticalAlign=middle;resizable=0;points=[];autosize=1;strokeColor=none;fillColor=none;" parent="1" vertex="1">
          <mxGeometry x="1882" y="884" width="107" height="26" as="geometry" />
        </mxCell>
        <mxCell id="fPdp1uY-UshxWHZB-xP3-93" style="edgeStyle=elbowEdgeStyle;rounded=0;orthogonalLoop=1;jettySize=auto;html=1;elbow=vertical;curved=0;" parent="1" edge="1">
          <mxGeometry relative="1" as="geometry">
            <mxPoint x="2008" y="957" as="sourcePoint" />
            <mxPoint x="2149" y="957" as="targetPoint" />
            <Array as="points">
              <mxPoint x="2059" y="957" />
            </Array>
          </mxGeometry>
        </mxCell>
        <mxCell id="fPdp1uY-UshxWHZB-xP3-94" value="&lt;font style=&quot;font-size: 11px;&quot;&gt;5. select the dimension data&lt;br&gt;and picture data&lt;br&gt;&lt;/font&gt;" style="text;html=1;align=center;verticalAlign=middle;resizable=0;points=[];autosize=1;strokeColor=none;fillColor=none;" parent="1" vertex="1">
          <mxGeometry x="1999" y="935" width="155" height="41" as="geometry" />
        </mxCell>
        <mxCell id="fPdp1uY-UshxWHZB-xP3-95" value="6. return data" style="html=1;verticalAlign=bottom;endArrow=open;dashed=1;endSize=8;edgeStyle=elbowEdgeStyle;elbow=vertical;curved=0;rounded=0;" parent="1" edge="1">
          <mxGeometry x="0.0069" relative="1" as="geometry">
            <mxPoint x="2150" y="999" as="sourcePoint" />
            <mxPoint x="2005" y="999" as="targetPoint" />
            <mxPoint as="offset" />
          </mxGeometry>
        </mxCell>
        <mxCell id="fPdp1uY-UshxWHZB-xP3-98" style="edgeStyle=orthogonalEdgeStyle;rounded=0;orthogonalLoop=1;jettySize=auto;html=1;elbow=vertical;" parent="1" edge="1">
          <mxGeometry relative="1" as="geometry">
            <mxPoint x="2006" y="932" as="targetPoint" />
            <mxPoint x="2006" y="909" as="sourcePoint" />
            <Array as="points">
              <mxPoint x="2033" y="909" />
              <mxPoint x="2033" y="932" />
            </Array>
          </mxGeometry>
        </mxCell>
        <mxCell id="fPdp1uY-UshxWHZB-xP3-99" value="&lt;font style=&quot;font-size: 11px;&quot;&gt;4.features&lt;br&gt;extraction&lt;br&gt;&lt;/font&gt;" style="text;html=1;align=center;verticalAlign=middle;resizable=0;points=[];autosize=1;strokeColor=none;fillColor=none;" parent="1" vertex="1">
          <mxGeometry x="2025" y="896" width="67" height="41" as="geometry" />
        </mxCell>
        <mxCell id="fPdp1uY-UshxWHZB-xP3-102" value="" style="html=1;points=[];perimeter=orthogonalPerimeter;outlineConnect=0;targetShapes=umlLifeline;portConstraint=eastwest;newEdgeStyle={&quot;edgeStyle&quot;:&quot;elbowEdgeStyle&quot;,&quot;elbow&quot;:&quot;vertical&quot;,&quot;curved&quot;:0,&quot;rounded&quot;:0};" parent="1" vertex="1">
          <mxGeometry x="2149" y="937" width="10" height="69" as="geometry" />
        </mxCell>
        <mxCell id="fPdp1uY-UshxWHZB-xP3-107" style="edgeStyle=elbowEdgeStyle;rounded=0;orthogonalLoop=1;jettySize=auto;html=1;elbow=vertical;curved=0;" parent="1" edge="1">
          <mxGeometry relative="1" as="geometry">
            <mxPoint x="2004" y="1030" as="sourcePoint" />
            <mxPoint x="2293.5" y="1030" as="targetPoint" />
          </mxGeometry>
        </mxCell>
        <mxCell id="fPdp1uY-UshxWHZB-xP3-108" value="&lt;font style=&quot;font-size: 11px;&quot;&gt;7. input picture path&lt;/font&gt;" style="text;html=1;align=center;verticalAlign=middle;resizable=0;points=[];autosize=1;strokeColor=none;fillColor=none;" parent="1" vertex="1">
          <mxGeometry x="2089" y="1010" width="115" height="26" as="geometry" />
        </mxCell>
        <mxCell id="fPdp1uY-UshxWHZB-xP3-109" value="8. return binary stream" style="html=1;verticalAlign=bottom;endArrow=open;dashed=1;endSize=8;edgeStyle=elbowEdgeStyle;elbow=vertical;curved=0;rounded=0;" parent="1" edge="1">
          <mxGeometry relative="1" as="geometry">
            <mxPoint x="2293.5" y="1056" as="sourcePoint" />
            <mxPoint x="2004" y="1056" as="targetPoint" />
          </mxGeometry>
        </mxCell>
        <mxCell id="fPdp1uY-UshxWHZB-xP3-110" value="&lt;font style=&quot;font-size: 11px;&quot;&gt;9.predict&lt;/font&gt;" style="text;html=1;align=center;verticalAlign=middle;resizable=0;points=[];autosize=1;strokeColor=none;fillColor=none;" parent="1" vertex="1">
          <mxGeometry x="2031" y="1070" width="60" height="26" as="geometry" />
        </mxCell>
        <mxCell id="fPdp1uY-UshxWHZB-xP3-116" value="10. return prediction result" style="html=1;verticalAlign=bottom;endArrow=open;dashed=1;endSize=8;edgeStyle=elbowEdgeStyle;elbow=vertical;curved=0;rounded=0;" parent="1" source="fPdp1uY-UshxWHZB-xP3-91" target="fPdp1uY-UshxWHZB-xP3-76" edge="1">
          <mxGeometry relative="1" as="geometry">
            <mxPoint x="1992" y="1108" as="sourcePoint" />
            <mxPoint x="1912" y="1108" as="targetPoint" />
            <Array as="points">
              <mxPoint x="1943" y="1111" />
            </Array>
          </mxGeometry>
        </mxCell>
        <mxCell id="fPdp1uY-UshxWHZB-xP3-117" value="12.return JSON format &lt;br&gt;prediction result" style="html=1;verticalAlign=bottom;endArrow=open;dashed=1;endSize=8;edgeStyle=elbowEdgeStyle;elbow=vertical;curved=0;rounded=0;" parent="1" source="fPdp1uY-UshxWHZB-xP3-76" target="fPdp1uY-UshxWHZB-xP3-77" edge="1">
          <mxGeometry x="0.0515" y="2" relative="1" as="geometry">
            <mxPoint x="1853" y="1142" as="sourcePoint" />
            <mxPoint x="1707" y="1142" as="targetPoint" />
            <Array as="points">
              <mxPoint x="1770" y="1191" />
            </Array>
            <mxPoint as="offset" />
          </mxGeometry>
        </mxCell>
        <mxCell id="fPdp1uY-UshxWHZB-xP3-123" value="init&lt;br&gt;model" style="text;html=1;align=center;verticalAlign=middle;resizable=0;points=[];autosize=1;strokeColor=none;fillColor=none;" parent="1" vertex="1">
          <mxGeometry x="1997" y="833" width="51" height="41" as="geometry" />
        </mxCell>
        <mxCell id="fPdp1uY-UshxWHZB-xP3-126" value="" style="shape=image;verticalLabelPosition=bottom;labelBackgroundColor=default;verticalAlign=top;aspect=fixed;imageAspect=0;image=https://media.springernature.com/lw685/springer-static/image/chp%3A10.1007%2F978-981-19-6088-8_38/MediaObjects/522314_1_En_38_Fig1_HTML.png;" parent="1" vertex="1">
          <mxGeometry x="1612" y="1373" width="685" height="583" as="geometry" />
        </mxCell>
        <mxCell id="fPdp1uY-UshxWHZB-xP3-127" value="training sequence diagram" style="text;html=1;align=center;verticalAlign=middle;resizable=0;points=[];autosize=1;strokeColor=none;fillColor=none;" parent="1" vertex="1">
          <mxGeometry x="1697" y="1353" width="159" height="26" as="geometry" />
        </mxCell>
        <mxCell id="MnB_5gU9iU9B_Unt7RSI-79" style="rounded=0;orthogonalLoop=1;jettySize=auto;html=1;entryX=0;entryY=0.5;entryDx=0;entryDy=0;exitX=1;exitY=0.25;exitDx=0;exitDy=0;" parent="1" source="MnB_5gU9iU9B_Unt7RSI-72" target="MnB_5gU9iU9B_Unt7RSI-76" edge="1">
          <mxGeometry relative="1" as="geometry" />
        </mxCell>
        <mxCell id="MnB_5gU9iU9B_Unt7RSI-80" style="rounded=0;orthogonalLoop=1;jettySize=auto;html=1;entryX=0;entryY=0.5;entryDx=0;entryDy=0;exitX=1;exitY=0.75;exitDx=0;exitDy=0;" parent="1" source="MnB_5gU9iU9B_Unt7RSI-72" target="MnB_5gU9iU9B_Unt7RSI-77" edge="1">
          <mxGeometry relative="1" as="geometry" />
        </mxCell>
        <mxCell id="MnB_5gU9iU9B_Unt7RSI-72" value="DataSets" style="rounded=0;whiteSpace=wrap;html=1;fillColor=#f5f5f5;fontColor=#333333;strokeColor=#666666;" parent="1" vertex="1">
          <mxGeometry x="2048" y="363" width="86" height="37" as="geometry" />
        </mxCell>
        <mxCell id="MnB_5gU9iU9B_Unt7RSI-74" style="edgeStyle=orthogonalEdgeStyle;rounded=0;orthogonalLoop=1;jettySize=auto;html=1;entryX=0;entryY=0.5;entryDx=0;entryDy=0;" parent="1" source="MnB_5gU9iU9B_Unt7RSI-73" target="MnB_5gU9iU9B_Unt7RSI-72" edge="1">
          <mxGeometry relative="1" as="geometry">
            <mxPoint x="2031" y="383.5" as="targetPoint" />
          </mxGeometry>
        </mxCell>
        <mxCell id="MnB_5gU9iU9B_Unt7RSI-73" value="Data Lakehouse" style="shape=cylinder3;whiteSpace=wrap;html=1;boundedLbl=1;backgroundOutline=1;size=10;fillColor=#f5f5f5;fontColor=#333333;strokeColor=#666666;" parent="1" vertex="1">
          <mxGeometry x="1928" y="348" width="71" height="67" as="geometry" />
        </mxCell>
        <mxCell id="MnB_5gU9iU9B_Unt7RSI-83" style="edgeStyle=orthogonalEdgeStyle;rounded=0;orthogonalLoop=1;jettySize=auto;html=1;entryX=0;entryY=0.5;entryDx=0;entryDy=0;" parent="1" source="MnB_5gU9iU9B_Unt7RSI-76" target="MnB_5gU9iU9B_Unt7RSI-81" edge="1">
          <mxGeometry relative="1" as="geometry" />
        </mxCell>
        <mxCell id="MnB_5gU9iU9B_Unt7RSI-76" value="Training dataset&lt;br style=&quot;border-color: var(--border-color);&quot;&gt;80%" style="whiteSpace=wrap;html=1;fillColor=#f5f5f5;strokeColor=#666666;fontColor=#333333;rounded=0;" parent="1" vertex="1">
          <mxGeometry x="2174" y="324" width="91" height="32" as="geometry" />
        </mxCell>
        <mxCell id="MnB_5gU9iU9B_Unt7RSI-84" style="edgeStyle=orthogonalEdgeStyle;rounded=0;orthogonalLoop=1;jettySize=auto;html=1;entryX=0;entryY=0.5;entryDx=0;entryDy=0;" parent="1" source="MnB_5gU9iU9B_Unt7RSI-77" target="MnB_5gU9iU9B_Unt7RSI-82" edge="1">
          <mxGeometry relative="1" as="geometry" />
        </mxCell>
        <mxCell id="MnB_5gU9iU9B_Unt7RSI-77" value="Testing dataset&lt;br style=&quot;border-color: var(--border-color);&quot;&gt;20%" style="whiteSpace=wrap;html=1;fillColor=#f5f5f5;strokeColor=#666666;fontColor=#333333;rounded=0;" parent="1" vertex="1">
          <mxGeometry x="2174" y="405" width="88" height="31" as="geometry" />
        </mxCell>
        <mxCell id="MnB_5gU9iU9B_Unt7RSI-85" style="edgeStyle=orthogonalEdgeStyle;rounded=0;orthogonalLoop=1;jettySize=auto;html=1;" parent="1" source="MnB_5gU9iU9B_Unt7RSI-81" target="MnB_5gU9iU9B_Unt7RSI-82" edge="1">
          <mxGeometry relative="1" as="geometry" />
        </mxCell>
        <mxCell id="MnB_5gU9iU9B_Unt7RSI-81" value="3.Build Models" style="whiteSpace=wrap;html=1;fillColor=#f5f5f5;strokeColor=#666666;fontColor=#333333;rounded=0;" parent="1" vertex="1">
          <mxGeometry x="2299" y="324" width="91" height="32" as="geometry" />
        </mxCell>
        <mxCell id="MnB_5gU9iU9B_Unt7RSI-87" style="edgeStyle=orthogonalEdgeStyle;rounded=0;orthogonalLoop=1;jettySize=auto;html=1;" parent="1" source="MnB_5gU9iU9B_Unt7RSI-82" target="MnB_5gU9iU9B_Unt7RSI-86" edge="1">
          <mxGeometry relative="1" as="geometry" />
        </mxCell>
        <mxCell id="MnB_5gU9iU9B_Unt7RSI-82" value="4.Evaluate Models" style="whiteSpace=wrap;html=1;fillColor=#f5f5f5;strokeColor=#666666;fontColor=#333333;rounded=0;" parent="1" vertex="1">
          <mxGeometry x="2299" y="404" width="91" height="32" as="geometry" />
        </mxCell>
        <mxCell id="MnB_5gU9iU9B_Unt7RSI-90" style="edgeStyle=orthogonalEdgeStyle;rounded=0;orthogonalLoop=1;jettySize=auto;html=1;entryX=0.5;entryY=1;entryDx=0;entryDy=0;strokeColor=#FF0000;" parent="1" source="MnB_5gU9iU9B_Unt7RSI-86" target="MnB_5gU9iU9B_Unt7RSI-88" edge="1">
          <mxGeometry relative="1" as="geometry" />
        </mxCell>
        <mxCell id="MnB_5gU9iU9B_Unt7RSI-86" value="5.Deploy Models" style="whiteSpace=wrap;html=1;fillColor=#f5f5f5;strokeColor=#666666;fontColor=#333333;rounded=0;" parent="1" vertex="1">
          <mxGeometry x="2422" y="404" width="91" height="32" as="geometry" />
        </mxCell>
        <mxCell id="MnB_5gU9iU9B_Unt7RSI-88" value="" style="ellipse;html=1;shape=endState;fillColor=#000000;strokeColor=#ff0000;" parent="1" vertex="1">
          <mxGeometry x="2452.5" y="324" width="30" height="30" as="geometry" />
        </mxCell>
        <mxCell id="MnB_5gU9iU9B_Unt7RSI-91" value="" style="ellipse;html=1;shape=startState;fillColor=#000000;strokeColor=#ff0000;" parent="1" vertex="1">
          <mxGeometry x="1948.5" y="438" width="30" height="30" as="geometry" />
        </mxCell>
        <mxCell id="MnB_5gU9iU9B_Unt7RSI-92" value="" style="edgeStyle=orthogonalEdgeStyle;html=1;verticalAlign=bottom;endArrow=open;endSize=8;strokeColor=#ff0000;rounded=0;" parent="1" source="MnB_5gU9iU9B_Unt7RSI-91" target="MnB_5gU9iU9B_Unt7RSI-73" edge="1">
          <mxGeometry relative="1" as="geometry">
            <mxPoint x="2017" y="474" as="targetPoint" />
          </mxGeometry>
        </mxCell>
        <mxCell id="MnB_5gU9iU9B_Unt7RSI-93" value="1.load" style="text;html=1;align=center;verticalAlign=middle;resizable=0;points=[];autosize=1;strokeColor=none;fillColor=none;" parent="1" vertex="1">
          <mxGeometry x="1997" y="360" width="51" height="26" as="geometry" />
        </mxCell>
        <mxCell id="MnB_5gU9iU9B_Unt7RSI-94" value="2.split" style="text;html=1;align=center;verticalAlign=middle;resizable=0;points=[];autosize=1;strokeColor=none;fillColor=none;" parent="1" vertex="1">
          <mxGeometry x="2130" y="352" width="49" height="26" as="geometry" />
        </mxCell>
        <mxCell id="MnB_5gU9iU9B_Unt7RSI-95" value="2.split" style="text;html=1;align=center;verticalAlign=middle;resizable=0;points=[];autosize=1;strokeColor=none;fillColor=none;" parent="1" vertex="1">
          <mxGeometry x="2130" y="380.5" width="49" height="26" as="geometry" />
        </mxCell>
        <mxCell id="odCDK62YW-OpRXwGmsrN-72" value="(Table 1)Raw Data" style="shape=table;startSize=30;container=1;collapsible=1;childLayout=tableLayout;fixedRows=1;rowLines=0;fontStyle=1;align=center;resizeLast=1;html=1;" parent="1" vertex="1">
          <mxGeometry x="193" y="2374" width="180" height="150" as="geometry" />
        </mxCell>
        <mxCell id="odCDK62YW-OpRXwGmsrN-73" value="" style="shape=tableRow;horizontal=0;startSize=0;swimlaneHead=0;swimlaneBody=0;fillColor=none;collapsible=0;dropTarget=0;points=[[0,0.5],[1,0.5]];portConstraint=eastwest;top=0;left=0;right=0;bottom=1;" parent="odCDK62YW-OpRXwGmsrN-72" vertex="1">
          <mxGeometry y="30" width="180" height="30" as="geometry" />
        </mxCell>
        <mxCell id="odCDK62YW-OpRXwGmsrN-74" value="PK" style="shape=partialRectangle;connectable=0;fillColor=none;top=0;left=0;bottom=0;right=0;fontStyle=1;overflow=hidden;whiteSpace=wrap;html=1;" parent="odCDK62YW-OpRXwGmsrN-73" vertex="1">
          <mxGeometry width="30" height="30" as="geometry">
            <mxRectangle width="30" height="30" as="alternateBounds" />
          </mxGeometry>
        </mxCell>
        <mxCell id="odCDK62YW-OpRXwGmsrN-75" value="ID" style="shape=partialRectangle;connectable=0;fillColor=none;top=0;left=0;bottom=0;right=0;align=left;spacingLeft=6;fontStyle=5;overflow=hidden;whiteSpace=wrap;html=1;" parent="odCDK62YW-OpRXwGmsrN-73" vertex="1">
          <mxGeometry x="30" width="150" height="30" as="geometry">
            <mxRectangle width="150" height="30" as="alternateBounds" />
          </mxGeometry>
        </mxCell>
        <mxCell id="odCDK62YW-OpRXwGmsrN-76" value="" style="shape=tableRow;horizontal=0;startSize=0;swimlaneHead=0;swimlaneBody=0;fillColor=none;collapsible=0;dropTarget=0;points=[[0,0.5],[1,0.5]];portConstraint=eastwest;top=0;left=0;right=0;bottom=0;" parent="odCDK62YW-OpRXwGmsrN-72" vertex="1">
          <mxGeometry y="60" width="180" height="30" as="geometry" />
        </mxCell>
        <mxCell id="odCDK62YW-OpRXwGmsrN-77" value="" style="shape=partialRectangle;connectable=0;fillColor=none;top=0;left=0;bottom=0;right=0;editable=1;overflow=hidden;whiteSpace=wrap;html=1;" parent="odCDK62YW-OpRXwGmsrN-76" vertex="1">
          <mxGeometry width="30" height="30" as="geometry">
            <mxRectangle width="30" height="30" as="alternateBounds" />
          </mxGeometry>
        </mxCell>
        <mxCell id="odCDK62YW-OpRXwGmsrN-78" value="timestamp" style="shape=partialRectangle;connectable=0;fillColor=none;top=0;left=0;bottom=0;right=0;align=left;spacingLeft=6;overflow=hidden;whiteSpace=wrap;html=1;" parent="odCDK62YW-OpRXwGmsrN-76" vertex="1">
          <mxGeometry x="30" width="150" height="30" as="geometry">
            <mxRectangle width="150" height="30" as="alternateBounds" />
          </mxGeometry>
        </mxCell>
        <mxCell id="odCDK62YW-OpRXwGmsrN-79" value="" style="shape=tableRow;horizontal=0;startSize=0;swimlaneHead=0;swimlaneBody=0;fillColor=none;collapsible=0;dropTarget=0;points=[[0,0.5],[1,0.5]];portConstraint=eastwest;top=0;left=0;right=0;bottom=0;" parent="odCDK62YW-OpRXwGmsrN-72" vertex="1">
          <mxGeometry y="90" width="180" height="30" as="geometry" />
        </mxCell>
        <mxCell id="odCDK62YW-OpRXwGmsrN-80" value="" style="shape=partialRectangle;connectable=0;fillColor=none;top=0;left=0;bottom=0;right=0;editable=1;overflow=hidden;whiteSpace=wrap;html=1;" parent="odCDK62YW-OpRXwGmsrN-79" vertex="1">
          <mxGeometry width="30" height="30" as="geometry">
            <mxRectangle width="30" height="30" as="alternateBounds" />
          </mxGeometry>
        </mxCell>
        <mxCell id="odCDK62YW-OpRXwGmsrN-81" value="source" style="shape=partialRectangle;connectable=0;fillColor=none;top=0;left=0;bottom=0;right=0;align=left;spacingLeft=6;overflow=hidden;whiteSpace=wrap;html=1;" parent="odCDK62YW-OpRXwGmsrN-79" vertex="1">
          <mxGeometry x="30" width="150" height="30" as="geometry">
            <mxRectangle width="150" height="30" as="alternateBounds" />
          </mxGeometry>
        </mxCell>
        <mxCell id="odCDK62YW-OpRXwGmsrN-82" value="" style="shape=tableRow;horizontal=0;startSize=0;swimlaneHead=0;swimlaneBody=0;fillColor=none;collapsible=0;dropTarget=0;points=[[0,0.5],[1,0.5]];portConstraint=eastwest;top=0;left=0;right=0;bottom=0;" parent="odCDK62YW-OpRXwGmsrN-72" vertex="1">
          <mxGeometry y="120" width="180" height="30" as="geometry" />
        </mxCell>
        <mxCell id="odCDK62YW-OpRXwGmsrN-83" value="" style="shape=partialRectangle;connectable=0;fillColor=none;top=0;left=0;bottom=0;right=0;editable=1;overflow=hidden;whiteSpace=wrap;html=1;" parent="odCDK62YW-OpRXwGmsrN-82" vertex="1">
          <mxGeometry width="30" height="30" as="geometry">
            <mxRectangle width="30" height="30" as="alternateBounds" />
          </mxGeometry>
        </mxCell>
        <mxCell id="odCDK62YW-OpRXwGmsrN-84" value="raw_data" style="shape=partialRectangle;connectable=0;fillColor=none;top=0;left=0;bottom=0;right=0;align=left;spacingLeft=6;overflow=hidden;whiteSpace=wrap;html=1;" parent="odCDK62YW-OpRXwGmsrN-82" vertex="1">
          <mxGeometry x="30" width="150" height="30" as="geometry">
            <mxRectangle width="150" height="30" as="alternateBounds" />
          </mxGeometry>
        </mxCell>
        <mxCell id="odCDK62YW-OpRXwGmsrN-85" value="(Table 2)Processed Data" style="shape=table;startSize=24;container=1;collapsible=1;childLayout=tableLayout;fixedRows=1;rowLines=0;fontStyle=1;align=center;resizeLast=1;html=1;" parent="1" vertex="1">
          <mxGeometry x="441.5" y="2529" width="180" height="168" as="geometry" />
        </mxCell>
        <mxCell id="odCDK62YW-OpRXwGmsrN-86" value="" style="shape=tableRow;horizontal=0;startSize=0;swimlaneHead=0;swimlaneBody=0;fillColor=none;collapsible=0;dropTarget=0;points=[[0,0.5],[1,0.5]];portConstraint=eastwest;top=0;left=0;right=0;bottom=1;" parent="odCDK62YW-OpRXwGmsrN-85" vertex="1">
          <mxGeometry y="24" width="180" height="30" as="geometry" />
        </mxCell>
        <mxCell id="odCDK62YW-OpRXwGmsrN-87" value="PK" style="shape=partialRectangle;connectable=0;fillColor=none;top=0;left=0;bottom=0;right=0;fontStyle=1;overflow=hidden;whiteSpace=wrap;html=1;" parent="odCDK62YW-OpRXwGmsrN-86" vertex="1">
          <mxGeometry width="29.75" height="30" as="geometry">
            <mxRectangle width="29.75" height="30" as="alternateBounds" />
          </mxGeometry>
        </mxCell>
        <mxCell id="odCDK62YW-OpRXwGmsrN-88" value="ID" style="shape=partialRectangle;connectable=0;fillColor=none;top=0;left=0;bottom=0;right=0;align=left;spacingLeft=6;fontStyle=5;overflow=hidden;whiteSpace=wrap;html=1;" parent="odCDK62YW-OpRXwGmsrN-86" vertex="1">
          <mxGeometry x="29.75" width="150.25" height="30" as="geometry">
            <mxRectangle width="150.25" height="30" as="alternateBounds" />
          </mxGeometry>
        </mxCell>
        <mxCell id="odCDK62YW-OpRXwGmsrN-89" value="" style="shape=tableRow;horizontal=0;startSize=0;swimlaneHead=0;swimlaneBody=0;fillColor=none;collapsible=0;dropTarget=0;points=[[0,0.5],[1,0.5]];portConstraint=eastwest;top=0;left=0;right=0;bottom=0;" parent="odCDK62YW-OpRXwGmsrN-85" vertex="1">
          <mxGeometry y="54" width="180" height="30" as="geometry" />
        </mxCell>
        <mxCell id="odCDK62YW-OpRXwGmsrN-90" value="" style="shape=partialRectangle;connectable=0;fillColor=none;top=0;left=0;bottom=0;right=0;editable=1;overflow=hidden;whiteSpace=wrap;html=1;" parent="odCDK62YW-OpRXwGmsrN-89" vertex="1">
          <mxGeometry width="29.75" height="30" as="geometry">
            <mxRectangle width="29.75" height="30" as="alternateBounds" />
          </mxGeometry>
        </mxCell>
        <mxCell id="odCDK62YW-OpRXwGmsrN-91" value="timestamp" style="shape=partialRectangle;connectable=0;fillColor=none;top=0;left=0;bottom=0;right=0;align=left;spacingLeft=6;overflow=hidden;whiteSpace=wrap;html=1;" parent="odCDK62YW-OpRXwGmsrN-89" vertex="1">
          <mxGeometry x="29.75" width="150.25" height="30" as="geometry">
            <mxRectangle width="150.25" height="30" as="alternateBounds" />
          </mxGeometry>
        </mxCell>
        <mxCell id="odCDK62YW-OpRXwGmsrN-92" value="" style="shape=tableRow;horizontal=0;startSize=0;swimlaneHead=0;swimlaneBody=0;fillColor=none;collapsible=0;dropTarget=0;points=[[0,0.5],[1,0.5]];portConstraint=eastwest;top=0;left=0;right=0;bottom=0;" parent="odCDK62YW-OpRXwGmsrN-85" vertex="1">
          <mxGeometry y="84" width="180" height="30" as="geometry" />
        </mxCell>
        <mxCell id="odCDK62YW-OpRXwGmsrN-93" value="" style="shape=partialRectangle;connectable=0;fillColor=none;top=0;left=0;bottom=0;right=0;editable=1;overflow=hidden;whiteSpace=wrap;html=1;" parent="odCDK62YW-OpRXwGmsrN-92" vertex="1">
          <mxGeometry width="29.75" height="30" as="geometry">
            <mxRectangle width="29.75" height="30" as="alternateBounds" />
          </mxGeometry>
        </mxCell>
        <mxCell id="odCDK62YW-OpRXwGmsrN-94" value="source" style="shape=partialRectangle;connectable=0;fillColor=none;top=0;left=0;bottom=0;right=0;align=left;spacingLeft=6;overflow=hidden;whiteSpace=wrap;html=1;" parent="odCDK62YW-OpRXwGmsrN-92" vertex="1">
          <mxGeometry x="29.75" width="150.25" height="30" as="geometry">
            <mxRectangle width="150.25" height="30" as="alternateBounds" />
          </mxGeometry>
        </mxCell>
        <mxCell id="odCDK62YW-OpRXwGmsrN-95" value="" style="shape=tableRow;horizontal=0;startSize=0;swimlaneHead=0;swimlaneBody=0;fillColor=none;collapsible=0;dropTarget=0;points=[[0,0.5],[1,0.5]];portConstraint=eastwest;top=0;left=0;right=0;bottom=0;" parent="odCDK62YW-OpRXwGmsrN-85" vertex="1">
          <mxGeometry y="114" width="180" height="27" as="geometry" />
        </mxCell>
        <mxCell id="odCDK62YW-OpRXwGmsrN-96" value="" style="shape=partialRectangle;connectable=0;fillColor=none;top=0;left=0;bottom=0;right=0;editable=1;overflow=hidden;whiteSpace=wrap;html=1;" parent="odCDK62YW-OpRXwGmsrN-95" vertex="1">
          <mxGeometry width="29.75" height="27" as="geometry">
            <mxRectangle width="29.75" height="27" as="alternateBounds" />
          </mxGeometry>
        </mxCell>
        <mxCell id="odCDK62YW-OpRXwGmsrN-97" value="data_type" style="shape=partialRectangle;connectable=0;fillColor=none;top=0;left=0;bottom=0;right=0;align=left;spacingLeft=6;overflow=hidden;whiteSpace=wrap;html=1;" parent="odCDK62YW-OpRXwGmsrN-95" vertex="1">
          <mxGeometry x="29.75" width="150.25" height="27" as="geometry">
            <mxRectangle width="150.25" height="27" as="alternateBounds" />
          </mxGeometry>
        </mxCell>
        <mxCell id="odCDK62YW-OpRXwGmsrN-102" style="shape=tableRow;horizontal=0;startSize=0;swimlaneHead=0;swimlaneBody=0;fillColor=none;collapsible=0;dropTarget=0;points=[[0,0.5],[1,0.5]];portConstraint=eastwest;top=0;left=0;right=0;bottom=0;" parent="odCDK62YW-OpRXwGmsrN-85" vertex="1">
          <mxGeometry y="141" width="180" height="27" as="geometry" />
        </mxCell>
        <mxCell id="odCDK62YW-OpRXwGmsrN-103" style="shape=partialRectangle;connectable=0;fillColor=none;top=0;left=0;bottom=0;right=0;editable=1;overflow=hidden;whiteSpace=wrap;html=1;" parent="odCDK62YW-OpRXwGmsrN-102" vertex="1">
          <mxGeometry width="29.75" height="27" as="geometry">
            <mxRectangle width="29.75" height="27" as="alternateBounds" />
          </mxGeometry>
        </mxCell>
        <mxCell id="odCDK62YW-OpRXwGmsrN-104" value="processed_data" style="shape=partialRectangle;connectable=0;fillColor=none;top=0;left=0;bottom=0;right=0;align=left;spacingLeft=6;overflow=hidden;whiteSpace=wrap;html=1;" parent="odCDK62YW-OpRXwGmsrN-102" vertex="1">
          <mxGeometry x="29.75" width="150.25" height="27" as="geometry">
            <mxRectangle width="150.25" height="27" as="alternateBounds" />
          </mxGeometry>
        </mxCell>
        <mxCell id="odCDK62YW-OpRXwGmsrN-111" value="(Table 8)AutoML Models" style="shape=table;startSize=24;container=1;collapsible=1;childLayout=tableLayout;fixedRows=1;rowLines=0;fontStyle=1;align=center;resizeLast=1;html=1;" parent="1" vertex="1">
          <mxGeometry x="759.94" y="2007" width="180" height="195" as="geometry" />
        </mxCell>
        <mxCell id="odCDK62YW-OpRXwGmsrN-112" value="" style="shape=tableRow;horizontal=0;startSize=0;swimlaneHead=0;swimlaneBody=0;fillColor=none;collapsible=0;dropTarget=0;points=[[0,0.5],[1,0.5]];portConstraint=eastwest;top=0;left=0;right=0;bottom=1;" parent="odCDK62YW-OpRXwGmsrN-111" vertex="1">
          <mxGeometry y="24" width="180" height="30" as="geometry" />
        </mxCell>
        <mxCell id="odCDK62YW-OpRXwGmsrN-113" value="PK" style="shape=partialRectangle;connectable=0;fillColor=none;top=0;left=0;bottom=0;right=0;fontStyle=1;overflow=hidden;whiteSpace=wrap;html=1;" parent="odCDK62YW-OpRXwGmsrN-112" vertex="1">
          <mxGeometry width="29.75" height="30" as="geometry">
            <mxRectangle width="29.75" height="30" as="alternateBounds" />
          </mxGeometry>
        </mxCell>
        <mxCell id="odCDK62YW-OpRXwGmsrN-114" value="model_id" style="shape=partialRectangle;connectable=0;fillColor=none;top=0;left=0;bottom=0;right=0;align=left;spacingLeft=6;fontStyle=5;overflow=hidden;whiteSpace=wrap;html=1;" parent="odCDK62YW-OpRXwGmsrN-112" vertex="1">
          <mxGeometry x="29.75" width="150.25" height="30" as="geometry">
            <mxRectangle width="150.25" height="30" as="alternateBounds" />
          </mxGeometry>
        </mxCell>
        <mxCell id="odCDK62YW-OpRXwGmsrN-115" value="" style="shape=tableRow;horizontal=0;startSize=0;swimlaneHead=0;swimlaneBody=0;fillColor=none;collapsible=0;dropTarget=0;points=[[0,0.5],[1,0.5]];portConstraint=eastwest;top=0;left=0;right=0;bottom=0;" parent="odCDK62YW-OpRXwGmsrN-111" vertex="1">
          <mxGeometry y="54" width="180" height="30" as="geometry" />
        </mxCell>
        <mxCell id="odCDK62YW-OpRXwGmsrN-116" value="" style="shape=partialRectangle;connectable=0;fillColor=none;top=0;left=0;bottom=0;right=0;editable=1;overflow=hidden;whiteSpace=wrap;html=1;" parent="odCDK62YW-OpRXwGmsrN-115" vertex="1">
          <mxGeometry width="29.75" height="30" as="geometry">
            <mxRectangle width="29.75" height="30" as="alternateBounds" />
          </mxGeometry>
        </mxCell>
        <mxCell id="odCDK62YW-OpRXwGmsrN-117" value="model_name" style="shape=partialRectangle;connectable=0;fillColor=none;top=0;left=0;bottom=0;right=0;align=left;spacingLeft=6;overflow=hidden;whiteSpace=wrap;html=1;" parent="odCDK62YW-OpRXwGmsrN-115" vertex="1">
          <mxGeometry x="29.75" width="150.25" height="30" as="geometry">
            <mxRectangle width="150.25" height="30" as="alternateBounds" />
          </mxGeometry>
        </mxCell>
        <mxCell id="odCDK62YW-OpRXwGmsrN-118" value="" style="shape=tableRow;horizontal=0;startSize=0;swimlaneHead=0;swimlaneBody=0;fillColor=none;collapsible=0;dropTarget=0;points=[[0,0.5],[1,0.5]];portConstraint=eastwest;top=0;left=0;right=0;bottom=0;" parent="odCDK62YW-OpRXwGmsrN-111" vertex="1">
          <mxGeometry y="84" width="180" height="30" as="geometry" />
        </mxCell>
        <mxCell id="odCDK62YW-OpRXwGmsrN-119" value="" style="shape=partialRectangle;connectable=0;fillColor=none;top=0;left=0;bottom=0;right=0;editable=1;overflow=hidden;whiteSpace=wrap;html=1;" parent="odCDK62YW-OpRXwGmsrN-118" vertex="1">
          <mxGeometry width="29.75" height="30" as="geometry">
            <mxRectangle width="29.75" height="30" as="alternateBounds" />
          </mxGeometry>
        </mxCell>
        <mxCell id="odCDK62YW-OpRXwGmsrN-120" value="model_type" style="shape=partialRectangle;connectable=0;fillColor=none;top=0;left=0;bottom=0;right=0;align=left;spacingLeft=6;overflow=hidden;whiteSpace=wrap;html=1;" parent="odCDK62YW-OpRXwGmsrN-118" vertex="1">
          <mxGeometry x="29.75" width="150.25" height="30" as="geometry">
            <mxRectangle width="150.25" height="30" as="alternateBounds" />
          </mxGeometry>
        </mxCell>
        <mxCell id="odCDK62YW-OpRXwGmsrN-121" value="" style="shape=tableRow;horizontal=0;startSize=0;swimlaneHead=0;swimlaneBody=0;fillColor=none;collapsible=0;dropTarget=0;points=[[0,0.5],[1,0.5]];portConstraint=eastwest;top=0;left=0;right=0;bottom=0;" parent="odCDK62YW-OpRXwGmsrN-111" vertex="1">
          <mxGeometry y="114" width="180" height="27" as="geometry" />
        </mxCell>
        <mxCell id="odCDK62YW-OpRXwGmsrN-122" value="" style="shape=partialRectangle;connectable=0;fillColor=none;top=0;left=0;bottom=0;right=0;editable=1;overflow=hidden;whiteSpace=wrap;html=1;" parent="odCDK62YW-OpRXwGmsrN-121" vertex="1">
          <mxGeometry width="29.75" height="27" as="geometry">
            <mxRectangle width="29.75" height="27" as="alternateBounds" />
          </mxGeometry>
        </mxCell>
        <mxCell id="odCDK62YW-OpRXwGmsrN-123" value="model_description" style="shape=partialRectangle;connectable=0;fillColor=none;top=0;left=0;bottom=0;right=0;align=left;spacingLeft=6;overflow=hidden;whiteSpace=wrap;html=1;" parent="odCDK62YW-OpRXwGmsrN-121" vertex="1">
          <mxGeometry x="29.75" width="150.25" height="27" as="geometry">
            <mxRectangle width="150.25" height="27" as="alternateBounds" />
          </mxGeometry>
        </mxCell>
        <mxCell id="odCDK62YW-OpRXwGmsrN-124" style="shape=tableRow;horizontal=0;startSize=0;swimlaneHead=0;swimlaneBody=0;fillColor=none;collapsible=0;dropTarget=0;points=[[0,0.5],[1,0.5]];portConstraint=eastwest;top=0;left=0;right=0;bottom=0;" parent="odCDK62YW-OpRXwGmsrN-111" vertex="1">
          <mxGeometry y="141" width="180" height="27" as="geometry" />
        </mxCell>
        <mxCell id="odCDK62YW-OpRXwGmsrN-125" style="shape=partialRectangle;connectable=0;fillColor=none;top=0;left=0;bottom=0;right=0;editable=1;overflow=hidden;whiteSpace=wrap;html=1;" parent="odCDK62YW-OpRXwGmsrN-124" vertex="1">
          <mxGeometry width="29.75" height="27" as="geometry">
            <mxRectangle width="29.75" height="27" as="alternateBounds" />
          </mxGeometry>
        </mxCell>
        <mxCell id="odCDK62YW-OpRXwGmsrN-126" value="trained_timestamp" style="shape=partialRectangle;connectable=0;fillColor=none;top=0;left=0;bottom=0;right=0;align=left;spacingLeft=6;overflow=hidden;whiteSpace=wrap;html=1;" parent="odCDK62YW-OpRXwGmsrN-124" vertex="1">
          <mxGeometry x="29.75" width="150.25" height="27" as="geometry">
            <mxRectangle width="150.25" height="27" as="alternateBounds" />
          </mxGeometry>
        </mxCell>
        <mxCell id="odCDK62YW-OpRXwGmsrN-180" style="shape=tableRow;horizontal=0;startSize=0;swimlaneHead=0;swimlaneBody=0;fillColor=none;collapsible=0;dropTarget=0;points=[[0,0.5],[1,0.5]];portConstraint=eastwest;top=0;left=0;right=0;bottom=0;" parent="odCDK62YW-OpRXwGmsrN-111" vertex="1">
          <mxGeometry y="168" width="180" height="27" as="geometry" />
        </mxCell>
        <mxCell id="odCDK62YW-OpRXwGmsrN-181" style="shape=partialRectangle;connectable=0;fillColor=none;top=0;left=0;bottom=0;right=0;editable=1;overflow=hidden;whiteSpace=wrap;html=1;" parent="odCDK62YW-OpRXwGmsrN-180" vertex="1">
          <mxGeometry width="29.75" height="27" as="geometry">
            <mxRectangle width="29.75" height="27" as="alternateBounds" />
          </mxGeometry>
        </mxCell>
        <mxCell id="odCDK62YW-OpRXwGmsrN-182" value="model_file" style="shape=partialRectangle;connectable=0;fillColor=none;top=0;left=0;bottom=0;right=0;align=left;spacingLeft=6;overflow=hidden;whiteSpace=wrap;html=1;" parent="odCDK62YW-OpRXwGmsrN-180" vertex="1">
          <mxGeometry x="29.75" width="150.25" height="27" as="geometry">
            <mxRectangle width="150.25" height="27" as="alternateBounds" />
          </mxGeometry>
        </mxCell>
        <mxCell id="odCDK62YW-OpRXwGmsrN-127" value="" style="edgeStyle=entityRelationEdgeStyle;fontSize=12;html=1;endArrow=ERmandOne;startArrow=ERmandOne;rounded=0;entryX=0;entryY=0.5;entryDx=0;entryDy=0;" parent="1" source="odCDK62YW-OpRXwGmsrN-73" target="odCDK62YW-OpRXwGmsrN-86" edge="1">
          <mxGeometry width="100" height="100" relative="1" as="geometry">
            <mxPoint x="405.57000000000005" y="2423" as="sourcePoint" />
            <mxPoint x="505.57000000000005" y="2323" as="targetPoint" />
          </mxGeometry>
        </mxCell>
        <mxCell id="odCDK62YW-OpRXwGmsrN-130" value="1:1" style="edgeLabel;html=1;align=center;verticalAlign=middle;resizable=0;points=[];" parent="odCDK62YW-OpRXwGmsrN-127" vertex="1" connectable="0">
          <mxGeometry x="-0.0321" relative="1" as="geometry">
            <mxPoint as="offset" />
          </mxGeometry>
        </mxCell>
        <mxCell id="odCDK62YW-OpRXwGmsrN-131" value="(Table 9)ML Optimisation" style="shape=table;startSize=24;container=1;collapsible=1;childLayout=tableLayout;fixedRows=1;rowLines=0;fontStyle=1;align=center;resizeLast=1;html=1;" parent="1" vertex="1">
          <mxGeometry x="441.5" y="1825" width="180" height="171" as="geometry" />
        </mxCell>
        <mxCell id="odCDK62YW-OpRXwGmsrN-191" style="shape=tableRow;horizontal=0;startSize=0;swimlaneHead=0;swimlaneBody=0;fillColor=none;collapsible=0;dropTarget=0;points=[[0,0.5],[1,0.5]];portConstraint=eastwest;top=0;left=0;right=0;bottom=1;" parent="odCDK62YW-OpRXwGmsrN-131" vertex="1">
          <mxGeometry y="24" width="180" height="30" as="geometry" />
        </mxCell>
        <mxCell id="odCDK62YW-OpRXwGmsrN-192" value="PK" style="shape=partialRectangle;connectable=0;fillColor=none;top=0;left=0;bottom=0;right=0;fontStyle=1;overflow=hidden;whiteSpace=wrap;html=1;" parent="odCDK62YW-OpRXwGmsrN-191" vertex="1">
          <mxGeometry width="29.75" height="30" as="geometry">
            <mxRectangle width="29.75" height="30" as="alternateBounds" />
          </mxGeometry>
        </mxCell>
        <mxCell id="odCDK62YW-OpRXwGmsrN-193" value="optimization_id" style="shape=partialRectangle;connectable=0;fillColor=none;top=0;left=0;bottom=0;right=0;align=left;spacingLeft=6;fontStyle=5;overflow=hidden;whiteSpace=wrap;html=1;" parent="odCDK62YW-OpRXwGmsrN-191" vertex="1">
          <mxGeometry x="29.75" width="150.25" height="30" as="geometry">
            <mxRectangle width="150.25" height="30" as="alternateBounds" />
          </mxGeometry>
        </mxCell>
        <mxCell id="odCDK62YW-OpRXwGmsrN-132" value="" style="shape=tableRow;horizontal=0;startSize=0;swimlaneHead=0;swimlaneBody=0;fillColor=none;collapsible=0;dropTarget=0;points=[[0,0.5],[1,0.5]];portConstraint=eastwest;top=0;left=0;right=0;bottom=1;" parent="odCDK62YW-OpRXwGmsrN-131" vertex="1">
          <mxGeometry y="54" width="180" height="30" as="geometry" />
        </mxCell>
        <mxCell id="odCDK62YW-OpRXwGmsrN-133" value="FK" style="shape=partialRectangle;connectable=0;fillColor=none;top=0;left=0;bottom=0;right=0;fontStyle=1;overflow=hidden;whiteSpace=wrap;html=1;" parent="odCDK62YW-OpRXwGmsrN-132" vertex="1">
          <mxGeometry width="29.75" height="30" as="geometry">
            <mxRectangle width="29.75" height="30" as="alternateBounds" />
          </mxGeometry>
        </mxCell>
        <mxCell id="odCDK62YW-OpRXwGmsrN-134" value="model_id" style="shape=partialRectangle;connectable=0;fillColor=none;top=0;left=0;bottom=0;right=0;align=left;spacingLeft=6;fontStyle=5;overflow=hidden;whiteSpace=wrap;html=1;" parent="odCDK62YW-OpRXwGmsrN-132" vertex="1">
          <mxGeometry x="29.75" width="150.25" height="30" as="geometry">
            <mxRectangle width="150.25" height="30" as="alternateBounds" />
          </mxGeometry>
        </mxCell>
        <mxCell id="odCDK62YW-OpRXwGmsrN-135" value="" style="shape=tableRow;horizontal=0;startSize=0;swimlaneHead=0;swimlaneBody=0;fillColor=none;collapsible=0;dropTarget=0;points=[[0,0.5],[1,0.5]];portConstraint=eastwest;top=0;left=0;right=0;bottom=0;" parent="odCDK62YW-OpRXwGmsrN-131" vertex="1">
          <mxGeometry y="84" width="180" height="30" as="geometry" />
        </mxCell>
        <mxCell id="odCDK62YW-OpRXwGmsrN-136" value="" style="shape=partialRectangle;connectable=0;fillColor=none;top=0;left=0;bottom=0;right=0;editable=1;overflow=hidden;whiteSpace=wrap;html=1;" parent="odCDK62YW-OpRXwGmsrN-135" vertex="1">
          <mxGeometry width="29.75" height="30" as="geometry">
            <mxRectangle width="29.75" height="30" as="alternateBounds" />
          </mxGeometry>
        </mxCell>
        <mxCell id="odCDK62YW-OpRXwGmsrN-137" value="optimization_method" style="shape=partialRectangle;connectable=0;fillColor=none;top=0;left=0;bottom=0;right=0;align=left;spacingLeft=6;overflow=hidden;whiteSpace=wrap;html=1;" parent="odCDK62YW-OpRXwGmsrN-135" vertex="1">
          <mxGeometry x="29.75" width="150.25" height="30" as="geometry">
            <mxRectangle width="150.25" height="30" as="alternateBounds" />
          </mxGeometry>
        </mxCell>
        <mxCell id="odCDK62YW-OpRXwGmsrN-138" value="" style="shape=tableRow;horizontal=0;startSize=0;swimlaneHead=0;swimlaneBody=0;fillColor=none;collapsible=0;dropTarget=0;points=[[0,0.5],[1,0.5]];portConstraint=eastwest;top=0;left=0;right=0;bottom=0;" parent="odCDK62YW-OpRXwGmsrN-131" vertex="1">
          <mxGeometry y="114" width="180" height="30" as="geometry" />
        </mxCell>
        <mxCell id="odCDK62YW-OpRXwGmsrN-139" value="" style="shape=partialRectangle;connectable=0;fillColor=none;top=0;left=0;bottom=0;right=0;editable=1;overflow=hidden;whiteSpace=wrap;html=1;" parent="odCDK62YW-OpRXwGmsrN-138" vertex="1">
          <mxGeometry width="29.75" height="30" as="geometry">
            <mxRectangle width="29.75" height="30" as="alternateBounds" />
          </mxGeometry>
        </mxCell>
        <mxCell id="odCDK62YW-OpRXwGmsrN-140" value="optimization_timestamp" style="shape=partialRectangle;connectable=0;fillColor=none;top=0;left=0;bottom=0;right=0;align=left;spacingLeft=6;overflow=hidden;whiteSpace=wrap;html=1;" parent="odCDK62YW-OpRXwGmsrN-138" vertex="1">
          <mxGeometry x="29.75" width="150.25" height="30" as="geometry">
            <mxRectangle width="150.25" height="30" as="alternateBounds" />
          </mxGeometry>
        </mxCell>
        <mxCell id="odCDK62YW-OpRXwGmsrN-141" value="" style="shape=tableRow;horizontal=0;startSize=0;swimlaneHead=0;swimlaneBody=0;fillColor=none;collapsible=0;dropTarget=0;points=[[0,0.5],[1,0.5]];portConstraint=eastwest;top=0;left=0;right=0;bottom=0;" parent="odCDK62YW-OpRXwGmsrN-131" vertex="1">
          <mxGeometry y="144" width="180" height="27" as="geometry" />
        </mxCell>
        <mxCell id="odCDK62YW-OpRXwGmsrN-142" value="" style="shape=partialRectangle;connectable=0;fillColor=none;top=0;left=0;bottom=0;right=0;editable=1;overflow=hidden;whiteSpace=wrap;html=1;" parent="odCDK62YW-OpRXwGmsrN-141" vertex="1">
          <mxGeometry width="29.75" height="27" as="geometry">
            <mxRectangle width="29.75" height="27" as="alternateBounds" />
          </mxGeometry>
        </mxCell>
        <mxCell id="odCDK62YW-OpRXwGmsrN-143" value="optimized_model" style="shape=partialRectangle;connectable=0;fillColor=none;top=0;left=0;bottom=0;right=0;align=left;spacingLeft=6;overflow=hidden;whiteSpace=wrap;html=1;" parent="odCDK62YW-OpRXwGmsrN-141" vertex="1">
          <mxGeometry x="29.75" width="150.25" height="27" as="geometry">
            <mxRectangle width="150.25" height="27" as="alternateBounds" />
          </mxGeometry>
        </mxCell>
        <mxCell id="odCDK62YW-OpRXwGmsrN-147" value="(Table 10)Model Evaluation" style="shape=table;startSize=24;container=1;collapsible=1;childLayout=tableLayout;fixedRows=1;rowLines=0;fontStyle=1;align=center;resizeLast=1;html=1;" parent="1" vertex="1">
          <mxGeometry x="1060.5" y="1865" width="180" height="171" as="geometry" />
        </mxCell>
        <mxCell id="odCDK62YW-OpRXwGmsrN-194" style="shape=tableRow;horizontal=0;startSize=0;swimlaneHead=0;swimlaneBody=0;fillColor=none;collapsible=0;dropTarget=0;points=[[0,0.5],[1,0.5]];portConstraint=eastwest;top=0;left=0;right=0;bottom=1;" parent="odCDK62YW-OpRXwGmsrN-147" vertex="1">
          <mxGeometry y="24" width="180" height="30" as="geometry" />
        </mxCell>
        <mxCell id="odCDK62YW-OpRXwGmsrN-195" value="PK" style="shape=partialRectangle;connectable=0;fillColor=none;top=0;left=0;bottom=0;right=0;fontStyle=1;overflow=hidden;whiteSpace=wrap;html=1;" parent="odCDK62YW-OpRXwGmsrN-194" vertex="1">
          <mxGeometry width="29.75" height="30" as="geometry">
            <mxRectangle width="29.75" height="30" as="alternateBounds" />
          </mxGeometry>
        </mxCell>
        <mxCell id="odCDK62YW-OpRXwGmsrN-196" value="evaluation_id" style="shape=partialRectangle;connectable=0;fillColor=none;top=0;left=0;bottom=0;right=0;align=left;spacingLeft=6;fontStyle=5;overflow=hidden;whiteSpace=wrap;html=1;" parent="odCDK62YW-OpRXwGmsrN-194" vertex="1">
          <mxGeometry x="29.75" width="150.25" height="30" as="geometry">
            <mxRectangle width="150.25" height="30" as="alternateBounds" />
          </mxGeometry>
        </mxCell>
        <mxCell id="odCDK62YW-OpRXwGmsrN-148" value="" style="shape=tableRow;horizontal=0;startSize=0;swimlaneHead=0;swimlaneBody=0;fillColor=none;collapsible=0;dropTarget=0;points=[[0,0.5],[1,0.5]];portConstraint=eastwest;top=0;left=0;right=0;bottom=1;" parent="odCDK62YW-OpRXwGmsrN-147" vertex="1">
          <mxGeometry y="54" width="180" height="30" as="geometry" />
        </mxCell>
        <mxCell id="odCDK62YW-OpRXwGmsrN-149" value="FK" style="shape=partialRectangle;connectable=0;fillColor=none;top=0;left=0;bottom=0;right=0;fontStyle=1;overflow=hidden;whiteSpace=wrap;html=1;" parent="odCDK62YW-OpRXwGmsrN-148" vertex="1">
          <mxGeometry width="29.75" height="30" as="geometry">
            <mxRectangle width="29.75" height="30" as="alternateBounds" />
          </mxGeometry>
        </mxCell>
        <mxCell id="odCDK62YW-OpRXwGmsrN-150" value="model_id" style="shape=partialRectangle;connectable=0;fillColor=none;top=0;left=0;bottom=0;right=0;align=left;spacingLeft=6;fontStyle=5;overflow=hidden;whiteSpace=wrap;html=1;" parent="odCDK62YW-OpRXwGmsrN-148" vertex="1">
          <mxGeometry x="29.75" width="150.25" height="30" as="geometry">
            <mxRectangle width="150.25" height="30" as="alternateBounds" />
          </mxGeometry>
        </mxCell>
        <mxCell id="odCDK62YW-OpRXwGmsrN-151" value="" style="shape=tableRow;horizontal=0;startSize=0;swimlaneHead=0;swimlaneBody=0;fillColor=none;collapsible=0;dropTarget=0;points=[[0,0.5],[1,0.5]];portConstraint=eastwest;top=0;left=0;right=0;bottom=0;" parent="odCDK62YW-OpRXwGmsrN-147" vertex="1">
          <mxGeometry y="84" width="180" height="30" as="geometry" />
        </mxCell>
        <mxCell id="odCDK62YW-OpRXwGmsrN-152" value="" style="shape=partialRectangle;connectable=0;fillColor=none;top=0;left=0;bottom=0;right=0;editable=1;overflow=hidden;whiteSpace=wrap;html=1;" parent="odCDK62YW-OpRXwGmsrN-151" vertex="1">
          <mxGeometry width="29.75" height="30" as="geometry">
            <mxRectangle width="29.75" height="30" as="alternateBounds" />
          </mxGeometry>
        </mxCell>
        <mxCell id="odCDK62YW-OpRXwGmsrN-153" value="evaluation_timestamp" style="shape=partialRectangle;connectable=0;fillColor=none;top=0;left=0;bottom=0;right=0;align=left;spacingLeft=6;overflow=hidden;whiteSpace=wrap;html=1;" parent="odCDK62YW-OpRXwGmsrN-151" vertex="1">
          <mxGeometry x="29.75" width="150.25" height="30" as="geometry">
            <mxRectangle width="150.25" height="30" as="alternateBounds" />
          </mxGeometry>
        </mxCell>
        <mxCell id="odCDK62YW-OpRXwGmsrN-154" value="" style="shape=tableRow;horizontal=0;startSize=0;swimlaneHead=0;swimlaneBody=0;fillColor=none;collapsible=0;dropTarget=0;points=[[0,0.5],[1,0.5]];portConstraint=eastwest;top=0;left=0;right=0;bottom=0;" parent="odCDK62YW-OpRXwGmsrN-147" vertex="1">
          <mxGeometry y="114" width="180" height="30" as="geometry" />
        </mxCell>
        <mxCell id="odCDK62YW-OpRXwGmsrN-155" value="" style="shape=partialRectangle;connectable=0;fillColor=none;top=0;left=0;bottom=0;right=0;editable=1;overflow=hidden;whiteSpace=wrap;html=1;" parent="odCDK62YW-OpRXwGmsrN-154" vertex="1">
          <mxGeometry width="29.75" height="30" as="geometry">
            <mxRectangle width="29.75" height="30" as="alternateBounds" />
          </mxGeometry>
        </mxCell>
        <mxCell id="odCDK62YW-OpRXwGmsrN-156" value="evaluation_metrics" style="shape=partialRectangle;connectable=0;fillColor=none;top=0;left=0;bottom=0;right=0;align=left;spacingLeft=6;overflow=hidden;whiteSpace=wrap;html=1;" parent="odCDK62YW-OpRXwGmsrN-154" vertex="1">
          <mxGeometry x="29.75" width="150.25" height="30" as="geometry">
            <mxRectangle width="150.25" height="30" as="alternateBounds" />
          </mxGeometry>
        </mxCell>
        <mxCell id="odCDK62YW-OpRXwGmsrN-157" value="" style="shape=tableRow;horizontal=0;startSize=0;swimlaneHead=0;swimlaneBody=0;fillColor=none;collapsible=0;dropTarget=0;points=[[0,0.5],[1,0.5]];portConstraint=eastwest;top=0;left=0;right=0;bottom=0;" parent="odCDK62YW-OpRXwGmsrN-147" vertex="1">
          <mxGeometry y="144" width="180" height="27" as="geometry" />
        </mxCell>
        <mxCell id="odCDK62YW-OpRXwGmsrN-158" value="" style="shape=partialRectangle;connectable=0;fillColor=none;top=0;left=0;bottom=0;right=0;editable=1;overflow=hidden;whiteSpace=wrap;html=1;" parent="odCDK62YW-OpRXwGmsrN-157" vertex="1">
          <mxGeometry width="29.75" height="27" as="geometry">
            <mxRectangle width="29.75" height="27" as="alternateBounds" />
          </mxGeometry>
        </mxCell>
        <mxCell id="odCDK62YW-OpRXwGmsrN-159" value="evaluation_dataset" style="shape=partialRectangle;connectable=0;fillColor=none;top=0;left=0;bottom=0;right=0;align=left;spacingLeft=6;overflow=hidden;whiteSpace=wrap;html=1;" parent="odCDK62YW-OpRXwGmsrN-157" vertex="1">
          <mxGeometry x="29.75" width="150.25" height="27" as="geometry">
            <mxRectangle width="150.25" height="27" as="alternateBounds" />
          </mxGeometry>
        </mxCell>
        <mxCell id="odCDK62YW-OpRXwGmsrN-164" value="(Table 7)Result Data" style="shape=table;startSize=26;container=1;collapsible=1;childLayout=tableLayout;fixedRows=1;rowLines=0;fontStyle=1;align=center;resizeLast=1;html=1;" parent="1" vertex="1">
          <mxGeometry x="441.5" y="2092" width="180" height="170" as="geometry" />
        </mxCell>
        <mxCell id="odCDK62YW-OpRXwGmsrN-165" value="" style="shape=tableRow;horizontal=0;startSize=0;swimlaneHead=0;swimlaneBody=0;fillColor=none;collapsible=0;dropTarget=0;points=[[0,0.5],[1,0.5]];portConstraint=eastwest;top=0;left=0;right=0;bottom=1;" parent="odCDK62YW-OpRXwGmsrN-164" vertex="1">
          <mxGeometry y="26" width="180" height="30" as="geometry" />
        </mxCell>
        <mxCell id="odCDK62YW-OpRXwGmsrN-166" value="PK" style="shape=partialRectangle;connectable=0;fillColor=none;top=0;left=0;bottom=0;right=0;fontStyle=1;overflow=hidden;whiteSpace=wrap;html=1;" parent="odCDK62YW-OpRXwGmsrN-165" vertex="1">
          <mxGeometry width="29.75" height="30" as="geometry">
            <mxRectangle width="29.75" height="30" as="alternateBounds" />
          </mxGeometry>
        </mxCell>
        <mxCell id="odCDK62YW-OpRXwGmsrN-167" value="result_id" style="shape=partialRectangle;connectable=0;fillColor=none;top=0;left=0;bottom=0;right=0;align=left;spacingLeft=6;fontStyle=5;overflow=hidden;whiteSpace=wrap;html=1;" parent="odCDK62YW-OpRXwGmsrN-165" vertex="1">
          <mxGeometry x="29.75" width="150.25" height="30" as="geometry">
            <mxRectangle width="150.25" height="30" as="alternateBounds" />
          </mxGeometry>
        </mxCell>
        <mxCell id="odCDK62YW-OpRXwGmsrN-202" style="shape=tableRow;horizontal=0;startSize=0;swimlaneHead=0;swimlaneBody=0;fillColor=none;collapsible=0;dropTarget=0;points=[[0,0.5],[1,0.5]];portConstraint=eastwest;top=0;left=0;right=0;bottom=1;" parent="odCDK62YW-OpRXwGmsrN-164" vertex="1">
          <mxGeometry y="56" width="180" height="30" as="geometry" />
        </mxCell>
        <mxCell id="odCDK62YW-OpRXwGmsrN-203" value="FK" style="shape=partialRectangle;connectable=0;fillColor=none;top=0;left=0;bottom=0;right=0;fontStyle=1;overflow=hidden;whiteSpace=wrap;html=1;" parent="odCDK62YW-OpRXwGmsrN-202" vertex="1">
          <mxGeometry width="29.75" height="30" as="geometry">
            <mxRectangle width="29.75" height="30" as="alternateBounds" />
          </mxGeometry>
        </mxCell>
        <mxCell id="odCDK62YW-OpRXwGmsrN-204" value="model_id" style="shape=partialRectangle;connectable=0;fillColor=none;top=0;left=0;bottom=0;right=0;align=left;spacingLeft=6;fontStyle=5;overflow=hidden;whiteSpace=wrap;html=1;" parent="odCDK62YW-OpRXwGmsrN-202" vertex="1">
          <mxGeometry x="29.75" width="150.25" height="30" as="geometry">
            <mxRectangle width="150.25" height="30" as="alternateBounds" />
          </mxGeometry>
        </mxCell>
        <mxCell id="odCDK62YW-OpRXwGmsrN-171" value="" style="shape=tableRow;horizontal=0;startSize=0;swimlaneHead=0;swimlaneBody=0;fillColor=none;collapsible=0;dropTarget=0;points=[[0,0.5],[1,0.5]];portConstraint=eastwest;top=0;left=0;right=0;bottom=0;" parent="odCDK62YW-OpRXwGmsrN-164" vertex="1">
          <mxGeometry y="86" width="180" height="30" as="geometry" />
        </mxCell>
        <mxCell id="odCDK62YW-OpRXwGmsrN-172" value="" style="shape=partialRectangle;connectable=0;fillColor=none;top=0;left=0;bottom=0;right=0;editable=1;overflow=hidden;whiteSpace=wrap;html=1;" parent="odCDK62YW-OpRXwGmsrN-171" vertex="1">
          <mxGeometry width="29.75" height="30" as="geometry">
            <mxRectangle width="29.75" height="30" as="alternateBounds" />
          </mxGeometry>
        </mxCell>
        <mxCell id="odCDK62YW-OpRXwGmsrN-173" value="result_timestamp" style="shape=partialRectangle;connectable=0;fillColor=none;top=0;left=0;bottom=0;right=0;align=left;spacingLeft=6;overflow=hidden;whiteSpace=wrap;html=1;" parent="odCDK62YW-OpRXwGmsrN-171" vertex="1">
          <mxGeometry x="29.75" width="150.25" height="30" as="geometry">
            <mxRectangle width="150.25" height="30" as="alternateBounds" />
          </mxGeometry>
        </mxCell>
        <mxCell id="odCDK62YW-OpRXwGmsrN-174" value="" style="shape=tableRow;horizontal=0;startSize=0;swimlaneHead=0;swimlaneBody=0;fillColor=none;collapsible=0;dropTarget=0;points=[[0,0.5],[1,0.5]];portConstraint=eastwest;top=0;left=0;right=0;bottom=0;" parent="odCDK62YW-OpRXwGmsrN-164" vertex="1">
          <mxGeometry y="116" width="180" height="27" as="geometry" />
        </mxCell>
        <mxCell id="odCDK62YW-OpRXwGmsrN-175" value="" style="shape=partialRectangle;connectable=0;fillColor=none;top=0;left=0;bottom=0;right=0;editable=1;overflow=hidden;whiteSpace=wrap;html=1;" parent="odCDK62YW-OpRXwGmsrN-174" vertex="1">
          <mxGeometry width="29.75" height="27" as="geometry">
            <mxRectangle width="29.75" height="27" as="alternateBounds" />
          </mxGeometry>
        </mxCell>
        <mxCell id="odCDK62YW-OpRXwGmsrN-176" value="input_data" style="shape=partialRectangle;connectable=0;fillColor=none;top=0;left=0;bottom=0;right=0;align=left;spacingLeft=6;overflow=hidden;whiteSpace=wrap;html=1;" parent="odCDK62YW-OpRXwGmsrN-174" vertex="1">
          <mxGeometry x="29.75" width="150.25" height="27" as="geometry">
            <mxRectangle width="150.25" height="27" as="alternateBounds" />
          </mxGeometry>
        </mxCell>
        <mxCell id="odCDK62YW-OpRXwGmsrN-177" style="shape=tableRow;horizontal=0;startSize=0;swimlaneHead=0;swimlaneBody=0;fillColor=none;collapsible=0;dropTarget=0;points=[[0,0.5],[1,0.5]];portConstraint=eastwest;top=0;left=0;right=0;bottom=0;" parent="odCDK62YW-OpRXwGmsrN-164" vertex="1">
          <mxGeometry y="143" width="180" height="27" as="geometry" />
        </mxCell>
        <mxCell id="odCDK62YW-OpRXwGmsrN-178" style="shape=partialRectangle;connectable=0;fillColor=none;top=0;left=0;bottom=0;right=0;editable=1;overflow=hidden;whiteSpace=wrap;html=1;" parent="odCDK62YW-OpRXwGmsrN-177" vertex="1">
          <mxGeometry width="29.75" height="27" as="geometry">
            <mxRectangle width="29.75" height="27" as="alternateBounds" />
          </mxGeometry>
        </mxCell>
        <mxCell id="odCDK62YW-OpRXwGmsrN-179" value="result" style="shape=partialRectangle;connectable=0;fillColor=none;top=0;left=0;bottom=0;right=0;align=left;spacingLeft=6;overflow=hidden;whiteSpace=wrap;html=1;" parent="odCDK62YW-OpRXwGmsrN-177" vertex="1">
          <mxGeometry x="29.75" width="150.25" height="27" as="geometry">
            <mxRectangle width="150.25" height="27" as="alternateBounds" />
          </mxGeometry>
        </mxCell>
        <mxCell id="odCDK62YW-OpRXwGmsrN-198" value="" style="edgeStyle=entityRelationEdgeStyle;fontSize=12;html=1;endArrow=ERoneToMany;rounded=0;exitX=1;exitY=0.5;exitDx=0;exitDy=0;entryX=0;entryY=0.5;entryDx=0;entryDy=0;" parent="1" source="odCDK62YW-OpRXwGmsrN-112" target="odCDK62YW-OpRXwGmsrN-148" edge="1">
          <mxGeometry width="100" height="100" relative="1" as="geometry">
            <mxPoint x="1003.5" y="2061" as="sourcePoint" />
            <mxPoint x="1103.5" y="1961" as="targetPoint" />
          </mxGeometry>
        </mxCell>
        <mxCell id="odCDK62YW-OpRXwGmsrN-199" value="1:n" style="edgeLabel;html=1;align=center;verticalAlign=middle;resizable=0;points=[];" parent="odCDK62YW-OpRXwGmsrN-198" vertex="1" connectable="0">
          <mxGeometry x="-0.2373" relative="1" as="geometry">
            <mxPoint as="offset" />
          </mxGeometry>
        </mxCell>
        <mxCell id="odCDK62YW-OpRXwGmsrN-200" value="" style="edgeStyle=entityRelationEdgeStyle;fontSize=12;html=1;endArrow=ERoneToMany;rounded=0;entryX=1;entryY=0.5;entryDx=0;entryDy=0;" parent="1" source="odCDK62YW-OpRXwGmsrN-112" target="odCDK62YW-OpRXwGmsrN-132" edge="1">
          <mxGeometry width="100" height="100" relative="1" as="geometry">
            <mxPoint x="615.5" y="2025" as="sourcePoint" />
            <mxPoint x="715.5" y="1925" as="targetPoint" />
          </mxGeometry>
        </mxCell>
        <mxCell id="odCDK62YW-OpRXwGmsrN-201" value="n:1" style="edgeLabel;html=1;align=center;verticalAlign=middle;resizable=0;points=[];" parent="odCDK62YW-OpRXwGmsrN-200" vertex="1" connectable="0">
          <mxGeometry x="-0.1415" y="-2" relative="1" as="geometry">
            <mxPoint as="offset" />
          </mxGeometry>
        </mxCell>
        <mxCell id="odCDK62YW-OpRXwGmsrN-205" value="" style="edgeStyle=entityRelationEdgeStyle;fontSize=12;html=1;endArrow=ERoneToMany;rounded=0;exitX=0;exitY=0.5;exitDx=0;exitDy=0;entryX=1;entryY=0.5;entryDx=0;entryDy=0;" parent="1" source="odCDK62YW-OpRXwGmsrN-112" target="odCDK62YW-OpRXwGmsrN-202" edge="1">
          <mxGeometry width="100" height="100" relative="1" as="geometry">
            <mxPoint x="708.5" y="2056" as="sourcePoint" />
            <mxPoint x="576.5" y="1884" as="targetPoint" />
            <Array as="points">
              <mxPoint x="662.5" y="1921" />
              <mxPoint x="646.5" y="1923" />
            </Array>
          </mxGeometry>
        </mxCell>
        <mxCell id="odCDK62YW-OpRXwGmsrN-206" value="n:1" style="edgeLabel;html=1;align=center;verticalAlign=middle;resizable=0;points=[];" parent="odCDK62YW-OpRXwGmsrN-205" vertex="1" connectable="0">
          <mxGeometry x="-0.1415" y="-2" relative="1" as="geometry">
            <mxPoint as="offset" />
          </mxGeometry>
        </mxCell>
        <mxCell id="odCDK62YW-OpRXwGmsrN-287" style="edgeStyle=orthogonalEdgeStyle;rounded=0;orthogonalLoop=1;jettySize=auto;html=1;entryX=1;entryY=0.5;entryDx=0;entryDy=0;" parent="1" source="odCDK62YW-OpRXwGmsrN-207" target="odCDK62YW-OpRXwGmsrN-174" edge="1">
          <mxGeometry relative="1" as="geometry" />
        </mxCell>
        <mxCell id="odCDK62YW-OpRXwGmsrN-207" value="(Table 3)Patient" style="shape=table;startSize=24;container=1;collapsible=1;childLayout=tableLayout;fixedRows=1;rowLines=0;fontStyle=1;align=center;resizeLast=1;html=1;" parent="1" vertex="1">
          <mxGeometry x="759.94" y="2421" width="180" height="225" as="geometry" />
        </mxCell>
        <mxCell id="odCDK62YW-OpRXwGmsrN-282" style="shape=tableRow;horizontal=0;startSize=0;swimlaneHead=0;swimlaneBody=0;fillColor=none;collapsible=0;dropTarget=0;points=[[0,0.5],[1,0.5]];portConstraint=eastwest;top=0;left=0;right=0;bottom=1;" parent="odCDK62YW-OpRXwGmsrN-207" vertex="1">
          <mxGeometry y="24" width="180" height="30" as="geometry" />
        </mxCell>
        <mxCell id="odCDK62YW-OpRXwGmsrN-283" value="PK" style="shape=partialRectangle;connectable=0;fillColor=none;top=0;left=0;bottom=0;right=0;fontStyle=1;overflow=hidden;whiteSpace=wrap;html=1;" parent="odCDK62YW-OpRXwGmsrN-282" vertex="1">
          <mxGeometry width="29.75" height="30" as="geometry">
            <mxRectangle width="29.75" height="30" as="alternateBounds" />
          </mxGeometry>
        </mxCell>
        <mxCell id="odCDK62YW-OpRXwGmsrN-284" value="ID" style="shape=partialRectangle;connectable=0;fillColor=none;top=0;left=0;bottom=0;right=0;align=left;spacingLeft=6;fontStyle=5;overflow=hidden;whiteSpace=wrap;html=1;" parent="odCDK62YW-OpRXwGmsrN-282" vertex="1">
          <mxGeometry x="29.75" width="150.25" height="30" as="geometry">
            <mxRectangle width="150.25" height="30" as="alternateBounds" />
          </mxGeometry>
        </mxCell>
        <mxCell id="odCDK62YW-OpRXwGmsrN-208" value="" style="shape=tableRow;horizontal=0;startSize=0;swimlaneHead=0;swimlaneBody=0;fillColor=none;collapsible=0;dropTarget=0;points=[[0,0.5],[1,0.5]];portConstraint=eastwest;top=0;left=0;right=0;bottom=1;" parent="odCDK62YW-OpRXwGmsrN-207" vertex="1">
          <mxGeometry y="54" width="180" height="30" as="geometry" />
        </mxCell>
        <mxCell id="odCDK62YW-OpRXwGmsrN-209" value="FK" style="shape=partialRectangle;connectable=0;fillColor=none;top=0;left=0;bottom=0;right=0;fontStyle=1;overflow=hidden;whiteSpace=wrap;html=1;" parent="odCDK62YW-OpRXwGmsrN-208" vertex="1">
          <mxGeometry width="29.75" height="30" as="geometry">
            <mxRectangle width="29.75" height="30" as="alternateBounds" />
          </mxGeometry>
        </mxCell>
        <mxCell id="odCDK62YW-OpRXwGmsrN-210" value="p_id" style="shape=partialRectangle;connectable=0;fillColor=none;top=0;left=0;bottom=0;right=0;align=left;spacingLeft=6;fontStyle=5;overflow=hidden;whiteSpace=wrap;html=1;" parent="odCDK62YW-OpRXwGmsrN-208" vertex="1">
          <mxGeometry x="29.75" width="150.25" height="30" as="geometry">
            <mxRectangle width="150.25" height="30" as="alternateBounds" />
          </mxGeometry>
        </mxCell>
        <mxCell id="odCDK62YW-OpRXwGmsrN-211" value="" style="shape=tableRow;horizontal=0;startSize=0;swimlaneHead=0;swimlaneBody=0;fillColor=none;collapsible=0;dropTarget=0;points=[[0,0.5],[1,0.5]];portConstraint=eastwest;top=0;left=0;right=0;bottom=0;" parent="odCDK62YW-OpRXwGmsrN-207" vertex="1">
          <mxGeometry y="84" width="180" height="30" as="geometry" />
        </mxCell>
        <mxCell id="odCDK62YW-OpRXwGmsrN-212" value="" style="shape=partialRectangle;connectable=0;fillColor=none;top=0;left=0;bottom=0;right=0;editable=1;overflow=hidden;whiteSpace=wrap;html=1;" parent="odCDK62YW-OpRXwGmsrN-211" vertex="1">
          <mxGeometry width="29.75" height="30" as="geometry">
            <mxRectangle width="29.75" height="30" as="alternateBounds" />
          </mxGeometry>
        </mxCell>
        <mxCell id="odCDK62YW-OpRXwGmsrN-213" value="name" style="shape=partialRectangle;connectable=0;fillColor=none;top=0;left=0;bottom=0;right=0;align=left;spacingLeft=6;overflow=hidden;whiteSpace=wrap;html=1;" parent="odCDK62YW-OpRXwGmsrN-211" vertex="1">
          <mxGeometry x="29.75" width="150.25" height="30" as="geometry">
            <mxRectangle width="150.25" height="30" as="alternateBounds" />
          </mxGeometry>
        </mxCell>
        <mxCell id="odCDK62YW-OpRXwGmsrN-214" value="" style="shape=tableRow;horizontal=0;startSize=0;swimlaneHead=0;swimlaneBody=0;fillColor=none;collapsible=0;dropTarget=0;points=[[0,0.5],[1,0.5]];portConstraint=eastwest;top=0;left=0;right=0;bottom=0;" parent="odCDK62YW-OpRXwGmsrN-207" vertex="1">
          <mxGeometry y="114" width="180" height="30" as="geometry" />
        </mxCell>
        <mxCell id="odCDK62YW-OpRXwGmsrN-215" value="" style="shape=partialRectangle;connectable=0;fillColor=none;top=0;left=0;bottom=0;right=0;editable=1;overflow=hidden;whiteSpace=wrap;html=1;" parent="odCDK62YW-OpRXwGmsrN-214" vertex="1">
          <mxGeometry width="29.75" height="30" as="geometry">
            <mxRectangle width="29.75" height="30" as="alternateBounds" />
          </mxGeometry>
        </mxCell>
        <mxCell id="odCDK62YW-OpRXwGmsrN-216" value="date_of_birth" style="shape=partialRectangle;connectable=0;fillColor=none;top=0;left=0;bottom=0;right=0;align=left;spacingLeft=6;overflow=hidden;whiteSpace=wrap;html=1;" parent="odCDK62YW-OpRXwGmsrN-214" vertex="1">
          <mxGeometry x="29.75" width="150.25" height="30" as="geometry">
            <mxRectangle width="150.25" height="30" as="alternateBounds" />
          </mxGeometry>
        </mxCell>
        <mxCell id="odCDK62YW-OpRXwGmsrN-217" value="" style="shape=tableRow;horizontal=0;startSize=0;swimlaneHead=0;swimlaneBody=0;fillColor=none;collapsible=0;dropTarget=0;points=[[0,0.5],[1,0.5]];portConstraint=eastwest;top=0;left=0;right=0;bottom=0;" parent="odCDK62YW-OpRXwGmsrN-207" vertex="1">
          <mxGeometry y="144" width="180" height="27" as="geometry" />
        </mxCell>
        <mxCell id="odCDK62YW-OpRXwGmsrN-218" value="" style="shape=partialRectangle;connectable=0;fillColor=none;top=0;left=0;bottom=0;right=0;editable=1;overflow=hidden;whiteSpace=wrap;html=1;" parent="odCDK62YW-OpRXwGmsrN-217" vertex="1">
          <mxGeometry width="29.75" height="27" as="geometry">
            <mxRectangle width="29.75" height="27" as="alternateBounds" />
          </mxGeometry>
        </mxCell>
        <mxCell id="odCDK62YW-OpRXwGmsrN-219" value="gender" style="shape=partialRectangle;connectable=0;fillColor=none;top=0;left=0;bottom=0;right=0;align=left;spacingLeft=6;overflow=hidden;whiteSpace=wrap;html=1;" parent="odCDK62YW-OpRXwGmsrN-217" vertex="1">
          <mxGeometry x="29.75" width="150.25" height="27" as="geometry">
            <mxRectangle width="150.25" height="27" as="alternateBounds" />
          </mxGeometry>
        </mxCell>
        <mxCell id="odCDK62YW-OpRXwGmsrN-220" style="shape=tableRow;horizontal=0;startSize=0;swimlaneHead=0;swimlaneBody=0;fillColor=none;collapsible=0;dropTarget=0;points=[[0,0.5],[1,0.5]];portConstraint=eastwest;top=0;left=0;right=0;bottom=0;" parent="odCDK62YW-OpRXwGmsrN-207" vertex="1">
          <mxGeometry y="171" width="180" height="27" as="geometry" />
        </mxCell>
        <mxCell id="odCDK62YW-OpRXwGmsrN-221" style="shape=partialRectangle;connectable=0;fillColor=none;top=0;left=0;bottom=0;right=0;editable=1;overflow=hidden;whiteSpace=wrap;html=1;" parent="odCDK62YW-OpRXwGmsrN-220" vertex="1">
          <mxGeometry width="29.75" height="27" as="geometry">
            <mxRectangle width="29.75" height="27" as="alternateBounds" />
          </mxGeometry>
        </mxCell>
        <mxCell id="odCDK62YW-OpRXwGmsrN-222" value="ethnicity" style="shape=partialRectangle;connectable=0;fillColor=none;top=0;left=0;bottom=0;right=0;align=left;spacingLeft=6;overflow=hidden;whiteSpace=wrap;html=1;" parent="odCDK62YW-OpRXwGmsrN-220" vertex="1">
          <mxGeometry x="29.75" width="150.25" height="27" as="geometry">
            <mxRectangle width="150.25" height="27" as="alternateBounds" />
          </mxGeometry>
        </mxCell>
        <mxCell id="odCDK62YW-OpRXwGmsrN-289" style="shape=tableRow;horizontal=0;startSize=0;swimlaneHead=0;swimlaneBody=0;fillColor=none;collapsible=0;dropTarget=0;points=[[0,0.5],[1,0.5]];portConstraint=eastwest;top=0;left=0;right=0;bottom=0;" parent="odCDK62YW-OpRXwGmsrN-207" vertex="1">
          <mxGeometry y="198" width="180" height="27" as="geometry" />
        </mxCell>
        <mxCell id="odCDK62YW-OpRXwGmsrN-290" style="shape=partialRectangle;connectable=0;fillColor=none;top=0;left=0;bottom=0;right=0;editable=1;overflow=hidden;whiteSpace=wrap;html=1;" parent="odCDK62YW-OpRXwGmsrN-289" vertex="1">
          <mxGeometry width="29.75" height="27" as="geometry">
            <mxRectangle width="29.75" height="27" as="alternateBounds" />
          </mxGeometry>
        </mxCell>
        <mxCell id="odCDK62YW-OpRXwGmsrN-291" value="age" style="shape=partialRectangle;connectable=0;fillColor=none;top=0;left=0;bottom=0;right=0;align=left;spacingLeft=6;overflow=hidden;whiteSpace=wrap;html=1;" parent="odCDK62YW-OpRXwGmsrN-289" vertex="1">
          <mxGeometry x="29.75" width="150.25" height="27" as="geometry">
            <mxRectangle width="150.25" height="27" as="alternateBounds" />
          </mxGeometry>
        </mxCell>
        <mxCell id="odCDK62YW-OpRXwGmsrN-223" value="(Table 6)lifestyle" style="shape=table;startSize=24;container=1;collapsible=1;childLayout=tableLayout;fixedRows=1;rowLines=0;fontStyle=1;align=center;resizeLast=1;html=1;" parent="1" vertex="1">
          <mxGeometry x="1049.4999999999998" y="2487" width="180" height="222" as="geometry" />
        </mxCell>
        <mxCell id="odCDK62YW-OpRXwGmsrN-224" value="" style="shape=tableRow;horizontal=0;startSize=0;swimlaneHead=0;swimlaneBody=0;fillColor=none;collapsible=0;dropTarget=0;points=[[0,0.5],[1,0.5]];portConstraint=eastwest;top=0;left=0;right=0;bottom=1;" parent="odCDK62YW-OpRXwGmsrN-223" vertex="1">
          <mxGeometry y="24" width="180" height="30" as="geometry" />
        </mxCell>
        <mxCell id="odCDK62YW-OpRXwGmsrN-225" value="PK" style="shape=partialRectangle;connectable=0;fillColor=none;top=0;left=0;bottom=0;right=0;fontStyle=1;overflow=hidden;whiteSpace=wrap;html=1;" parent="odCDK62YW-OpRXwGmsrN-224" vertex="1">
          <mxGeometry width="29.75" height="30" as="geometry">
            <mxRectangle width="29.75" height="30" as="alternateBounds" />
          </mxGeometry>
        </mxCell>
        <mxCell id="odCDK62YW-OpRXwGmsrN-226" value="patient_id" style="shape=partialRectangle;connectable=0;fillColor=none;top=0;left=0;bottom=0;right=0;align=left;spacingLeft=6;fontStyle=5;overflow=hidden;whiteSpace=wrap;html=1;" parent="odCDK62YW-OpRXwGmsrN-224" vertex="1">
          <mxGeometry x="29.75" width="150.25" height="30" as="geometry">
            <mxRectangle width="150.25" height="30" as="alternateBounds" />
          </mxGeometry>
        </mxCell>
        <mxCell id="odCDK62YW-OpRXwGmsrN-227" value="" style="shape=tableRow;horizontal=0;startSize=0;swimlaneHead=0;swimlaneBody=0;fillColor=none;collapsible=0;dropTarget=0;points=[[0,0.5],[1,0.5]];portConstraint=eastwest;top=0;left=0;right=0;bottom=0;" parent="odCDK62YW-OpRXwGmsrN-223" vertex="1">
          <mxGeometry y="54" width="180" height="30" as="geometry" />
        </mxCell>
        <mxCell id="odCDK62YW-OpRXwGmsrN-228" value="" style="shape=partialRectangle;connectable=0;fillColor=none;top=0;left=0;bottom=0;right=0;editable=1;overflow=hidden;whiteSpace=wrap;html=1;" parent="odCDK62YW-OpRXwGmsrN-227" vertex="1">
          <mxGeometry width="29.75" height="30" as="geometry">
            <mxRectangle width="29.75" height="30" as="alternateBounds" />
          </mxGeometry>
        </mxCell>
        <mxCell id="odCDK62YW-OpRXwGmsrN-229" value="diet" style="shape=partialRectangle;connectable=0;fillColor=none;top=0;left=0;bottom=0;right=0;align=left;spacingLeft=6;overflow=hidden;whiteSpace=wrap;html=1;" parent="odCDK62YW-OpRXwGmsrN-227" vertex="1">
          <mxGeometry x="29.75" width="150.25" height="30" as="geometry">
            <mxRectangle width="150.25" height="30" as="alternateBounds" />
          </mxGeometry>
        </mxCell>
        <mxCell id="odCDK62YW-OpRXwGmsrN-230" value="" style="shape=tableRow;horizontal=0;startSize=0;swimlaneHead=0;swimlaneBody=0;fillColor=none;collapsible=0;dropTarget=0;points=[[0,0.5],[1,0.5]];portConstraint=eastwest;top=0;left=0;right=0;bottom=0;" parent="odCDK62YW-OpRXwGmsrN-223" vertex="1">
          <mxGeometry y="84" width="180" height="30" as="geometry" />
        </mxCell>
        <mxCell id="odCDK62YW-OpRXwGmsrN-231" value="" style="shape=partialRectangle;connectable=0;fillColor=none;top=0;left=0;bottom=0;right=0;editable=1;overflow=hidden;whiteSpace=wrap;html=1;" parent="odCDK62YW-OpRXwGmsrN-230" vertex="1">
          <mxGeometry width="29.75" height="30" as="geometry">
            <mxRectangle width="29.75" height="30" as="alternateBounds" />
          </mxGeometry>
        </mxCell>
        <mxCell id="odCDK62YW-OpRXwGmsrN-232" value="exercise_hours" style="shape=partialRectangle;connectable=0;fillColor=none;top=0;left=0;bottom=0;right=0;align=left;spacingLeft=6;overflow=hidden;whiteSpace=wrap;html=1;" parent="odCDK62YW-OpRXwGmsrN-230" vertex="1">
          <mxGeometry x="29.75" width="150.25" height="30" as="geometry">
            <mxRectangle width="150.25" height="30" as="alternateBounds" />
          </mxGeometry>
        </mxCell>
        <mxCell id="odCDK62YW-OpRXwGmsrN-233" value="" style="shape=tableRow;horizontal=0;startSize=0;swimlaneHead=0;swimlaneBody=0;fillColor=none;collapsible=0;dropTarget=0;points=[[0,0.5],[1,0.5]];portConstraint=eastwest;top=0;left=0;right=0;bottom=0;" parent="odCDK62YW-OpRXwGmsrN-223" vertex="1">
          <mxGeometry y="114" width="180" height="27" as="geometry" />
        </mxCell>
        <mxCell id="odCDK62YW-OpRXwGmsrN-234" value="" style="shape=partialRectangle;connectable=0;fillColor=none;top=0;left=0;bottom=0;right=0;editable=1;overflow=hidden;whiteSpace=wrap;html=1;" parent="odCDK62YW-OpRXwGmsrN-233" vertex="1">
          <mxGeometry width="29.75" height="27" as="geometry">
            <mxRectangle width="29.75" height="27" as="alternateBounds" />
          </mxGeometry>
        </mxCell>
        <mxCell id="odCDK62YW-OpRXwGmsrN-235" value="sleep_hours" style="shape=partialRectangle;connectable=0;fillColor=none;top=0;left=0;bottom=0;right=0;align=left;spacingLeft=6;overflow=hidden;whiteSpace=wrap;html=1;" parent="odCDK62YW-OpRXwGmsrN-233" vertex="1">
          <mxGeometry x="29.75" width="150.25" height="27" as="geometry">
            <mxRectangle width="150.25" height="27" as="alternateBounds" />
          </mxGeometry>
        </mxCell>
        <mxCell id="odCDK62YW-OpRXwGmsrN-236" style="shape=tableRow;horizontal=0;startSize=0;swimlaneHead=0;swimlaneBody=0;fillColor=none;collapsible=0;dropTarget=0;points=[[0,0.5],[1,0.5]];portConstraint=eastwest;top=0;left=0;right=0;bottom=0;" parent="odCDK62YW-OpRXwGmsrN-223" vertex="1">
          <mxGeometry y="141" width="180" height="27" as="geometry" />
        </mxCell>
        <mxCell id="odCDK62YW-OpRXwGmsrN-237" style="shape=partialRectangle;connectable=0;fillColor=none;top=0;left=0;bottom=0;right=0;editable=1;overflow=hidden;whiteSpace=wrap;html=1;" parent="odCDK62YW-OpRXwGmsrN-236" vertex="1">
          <mxGeometry width="29.75" height="27" as="geometry">
            <mxRectangle width="29.75" height="27" as="alternateBounds" />
          </mxGeometry>
        </mxCell>
        <mxCell id="odCDK62YW-OpRXwGmsrN-238" value="stress_level" style="shape=partialRectangle;connectable=0;fillColor=none;top=0;left=0;bottom=0;right=0;align=left;spacingLeft=6;overflow=hidden;whiteSpace=wrap;html=1;" parent="odCDK62YW-OpRXwGmsrN-236" vertex="1">
          <mxGeometry x="29.75" width="150.25" height="27" as="geometry">
            <mxRectangle width="150.25" height="27" as="alternateBounds" />
          </mxGeometry>
        </mxCell>
        <mxCell id="odCDK62YW-OpRXwGmsrN-295" style="shape=tableRow;horizontal=0;startSize=0;swimlaneHead=0;swimlaneBody=0;fillColor=none;collapsible=0;dropTarget=0;points=[[0,0.5],[1,0.5]];portConstraint=eastwest;top=0;left=0;right=0;bottom=0;" parent="odCDK62YW-OpRXwGmsrN-223" vertex="1">
          <mxGeometry y="168" width="180" height="27" as="geometry" />
        </mxCell>
        <mxCell id="odCDK62YW-OpRXwGmsrN-296" style="shape=partialRectangle;connectable=0;fillColor=none;top=0;left=0;bottom=0;right=0;editable=1;overflow=hidden;whiteSpace=wrap;html=1;" parent="odCDK62YW-OpRXwGmsrN-295" vertex="1">
          <mxGeometry width="29.75" height="27" as="geometry">
            <mxRectangle width="29.75" height="27" as="alternateBounds" />
          </mxGeometry>
        </mxCell>
        <mxCell id="odCDK62YW-OpRXwGmsrN-297" value="smoking_history&lt;span style=&quot;font-size: medium;&quot;&gt;&lt;/span&gt;" style="shape=partialRectangle;connectable=0;fillColor=none;top=0;left=0;bottom=0;right=0;align=left;spacingLeft=6;overflow=hidden;whiteSpace=wrap;html=1;" parent="odCDK62YW-OpRXwGmsrN-295" vertex="1">
          <mxGeometry x="29.75" width="150.25" height="27" as="geometry">
            <mxRectangle width="150.25" height="27" as="alternateBounds" />
          </mxGeometry>
        </mxCell>
        <mxCell id="odCDK62YW-OpRXwGmsrN-301" style="shape=tableRow;horizontal=0;startSize=0;swimlaneHead=0;swimlaneBody=0;fillColor=none;collapsible=0;dropTarget=0;points=[[0,0.5],[1,0.5]];portConstraint=eastwest;top=0;left=0;right=0;bottom=0;" parent="odCDK62YW-OpRXwGmsrN-223" vertex="1">
          <mxGeometry y="195" width="180" height="27" as="geometry" />
        </mxCell>
        <mxCell id="odCDK62YW-OpRXwGmsrN-302" style="shape=partialRectangle;connectable=0;fillColor=none;top=0;left=0;bottom=0;right=0;editable=1;overflow=hidden;whiteSpace=wrap;html=1;" parent="odCDK62YW-OpRXwGmsrN-301" vertex="1">
          <mxGeometry width="29.75" height="27" as="geometry">
            <mxRectangle width="29.75" height="27" as="alternateBounds" />
          </mxGeometry>
        </mxCell>
        <mxCell id="odCDK62YW-OpRXwGmsrN-303" value="BMI" style="shape=partialRectangle;connectable=0;fillColor=none;top=0;left=0;bottom=0;right=0;align=left;spacingLeft=6;overflow=hidden;whiteSpace=wrap;html=1;" parent="odCDK62YW-OpRXwGmsrN-301" vertex="1">
          <mxGeometry x="29.75" width="150.25" height="27" as="geometry">
            <mxRectangle width="150.25" height="27" as="alternateBounds" />
          </mxGeometry>
        </mxCell>
        <mxCell id="odCDK62YW-OpRXwGmsrN-239" value="(Table 4)blood_glucose" style="shape=table;startSize=24;container=1;collapsible=1;childLayout=tableLayout;fixedRows=1;rowLines=0;fontStyle=1;align=center;resizeLast=1;html=1;" parent="1" vertex="1">
          <mxGeometry x="441.5" y="2300" width="180" height="168.25" as="geometry" />
        </mxCell>
        <mxCell id="odCDK62YW-OpRXwGmsrN-240" value="" style="shape=tableRow;horizontal=0;startSize=0;swimlaneHead=0;swimlaneBody=0;fillColor=none;collapsible=0;dropTarget=0;points=[[0,0.5],[1,0.5]];portConstraint=eastwest;top=0;left=0;right=0;bottom=1;" parent="odCDK62YW-OpRXwGmsrN-239" vertex="1">
          <mxGeometry y="24" width="180" height="30" as="geometry" />
        </mxCell>
        <mxCell id="odCDK62YW-OpRXwGmsrN-241" value="PK" style="shape=partialRectangle;connectable=0;fillColor=none;top=0;left=0;bottom=0;right=0;fontStyle=1;overflow=hidden;whiteSpace=wrap;html=1;" parent="odCDK62YW-OpRXwGmsrN-240" vertex="1">
          <mxGeometry width="29.75" height="30" as="geometry">
            <mxRectangle width="29.75" height="30" as="alternateBounds" />
          </mxGeometry>
        </mxCell>
        <mxCell id="odCDK62YW-OpRXwGmsrN-242" value="patient_id" style="shape=partialRectangle;connectable=0;fillColor=none;top=0;left=0;bottom=0;right=0;align=left;spacingLeft=6;fontStyle=5;overflow=hidden;whiteSpace=wrap;html=1;" parent="odCDK62YW-OpRXwGmsrN-240" vertex="1">
          <mxGeometry x="29.75" width="150.25" height="30" as="geometry">
            <mxRectangle width="150.25" height="30" as="alternateBounds" />
          </mxGeometry>
        </mxCell>
        <mxCell id="odCDK62YW-OpRXwGmsrN-243" value="" style="shape=tableRow;horizontal=0;startSize=0;swimlaneHead=0;swimlaneBody=0;fillColor=none;collapsible=0;dropTarget=0;points=[[0,0.5],[1,0.5]];portConstraint=eastwest;top=0;left=0;right=0;bottom=0;" parent="odCDK62YW-OpRXwGmsrN-239" vertex="1">
          <mxGeometry y="54" width="180" height="30" as="geometry" />
        </mxCell>
        <mxCell id="odCDK62YW-OpRXwGmsrN-244" value="" style="shape=partialRectangle;connectable=0;fillColor=none;top=0;left=0;bottom=0;right=0;editable=1;overflow=hidden;whiteSpace=wrap;html=1;" parent="odCDK62YW-OpRXwGmsrN-243" vertex="1">
          <mxGeometry width="29.75" height="30" as="geometry">
            <mxRectangle width="29.75" height="30" as="alternateBounds" />
          </mxGeometry>
        </mxCell>
        <mxCell id="odCDK62YW-OpRXwGmsrN-245" value="reading_timestamp" style="shape=partialRectangle;connectable=0;fillColor=none;top=0;left=0;bottom=0;right=0;align=left;spacingLeft=6;overflow=hidden;whiteSpace=wrap;html=1;" parent="odCDK62YW-OpRXwGmsrN-243" vertex="1">
          <mxGeometry x="29.75" width="150.25" height="30" as="geometry">
            <mxRectangle width="150.25" height="30" as="alternateBounds" />
          </mxGeometry>
        </mxCell>
        <mxCell id="odCDK62YW-OpRXwGmsrN-246" value="" style="shape=tableRow;horizontal=0;startSize=0;swimlaneHead=0;swimlaneBody=0;fillColor=none;collapsible=0;dropTarget=0;points=[[0,0.5],[1,0.5]];portConstraint=eastwest;top=0;left=0;right=0;bottom=0;" parent="odCDK62YW-OpRXwGmsrN-239" vertex="1">
          <mxGeometry y="84" width="180" height="30" as="geometry" />
        </mxCell>
        <mxCell id="odCDK62YW-OpRXwGmsrN-247" value="" style="shape=partialRectangle;connectable=0;fillColor=none;top=0;left=0;bottom=0;right=0;editable=1;overflow=hidden;whiteSpace=wrap;html=1;" parent="odCDK62YW-OpRXwGmsrN-246" vertex="1">
          <mxGeometry width="29.75" height="30" as="geometry">
            <mxRectangle width="29.75" height="30" as="alternateBounds" />
          </mxGeometry>
        </mxCell>
        <mxCell id="odCDK62YW-OpRXwGmsrN-248" value="blood_glucose_level&lt;span style=&quot;font-size: medium;&quot;&gt;&lt;/span&gt;" style="shape=partialRectangle;connectable=0;fillColor=none;top=0;left=0;bottom=0;right=0;align=left;spacingLeft=6;overflow=hidden;whiteSpace=wrap;html=1;" parent="odCDK62YW-OpRXwGmsrN-246" vertex="1">
          <mxGeometry x="29.75" width="150.25" height="30" as="geometry">
            <mxRectangle width="150.25" height="30" as="alternateBounds" />
          </mxGeometry>
        </mxCell>
        <mxCell id="odCDK62YW-OpRXwGmsrN-249" value="" style="shape=tableRow;horizontal=0;startSize=0;swimlaneHead=0;swimlaneBody=0;fillColor=none;collapsible=0;dropTarget=0;points=[[0,0.5],[1,0.5]];portConstraint=eastwest;top=0;left=0;right=0;bottom=0;" parent="odCDK62YW-OpRXwGmsrN-239" vertex="1">
          <mxGeometry y="114" width="180" height="27" as="geometry" />
        </mxCell>
        <mxCell id="odCDK62YW-OpRXwGmsrN-250" value="" style="shape=partialRectangle;connectable=0;fillColor=none;top=0;left=0;bottom=0;right=0;editable=1;overflow=hidden;whiteSpace=wrap;html=1;" parent="odCDK62YW-OpRXwGmsrN-249" vertex="1">
          <mxGeometry width="29.75" height="27" as="geometry">
            <mxRectangle width="29.75" height="27" as="alternateBounds" />
          </mxGeometry>
        </mxCell>
        <mxCell id="odCDK62YW-OpRXwGmsrN-251" value="HbA1c_level&lt;span style=&quot;font-size: medium;&quot;&gt;&lt;/span&gt;" style="shape=partialRectangle;connectable=0;fillColor=none;top=0;left=0;bottom=0;right=0;align=left;spacingLeft=6;overflow=hidden;whiteSpace=wrap;html=1;" parent="odCDK62YW-OpRXwGmsrN-249" vertex="1">
          <mxGeometry x="29.75" width="150.25" height="27" as="geometry">
            <mxRectangle width="150.25" height="27" as="alternateBounds" />
          </mxGeometry>
        </mxCell>
        <mxCell id="odCDK62YW-OpRXwGmsrN-298" style="shape=tableRow;horizontal=0;startSize=0;swimlaneHead=0;swimlaneBody=0;fillColor=none;collapsible=0;dropTarget=0;points=[[0,0.5],[1,0.5]];portConstraint=eastwest;top=0;left=0;right=0;bottom=0;" parent="odCDK62YW-OpRXwGmsrN-239" vertex="1">
          <mxGeometry y="141" width="180" height="27" as="geometry" />
        </mxCell>
        <mxCell id="odCDK62YW-OpRXwGmsrN-299" style="shape=partialRectangle;connectable=0;fillColor=none;top=0;left=0;bottom=0;right=0;editable=1;overflow=hidden;whiteSpace=wrap;html=1;" parent="odCDK62YW-OpRXwGmsrN-298" vertex="1">
          <mxGeometry width="29.75" height="27" as="geometry">
            <mxRectangle width="29.75" height="27" as="alternateBounds" />
          </mxGeometry>
        </mxCell>
        <mxCell id="odCDK62YW-OpRXwGmsrN-300" value="reading_type" style="shape=partialRectangle;connectable=0;fillColor=none;top=0;left=0;bottom=0;right=0;align=left;spacingLeft=6;overflow=hidden;whiteSpace=wrap;html=1;" parent="odCDK62YW-OpRXwGmsrN-298" vertex="1">
          <mxGeometry x="29.75" width="150.25" height="27" as="geometry">
            <mxRectangle width="150.25" height="27" as="alternateBounds" />
          </mxGeometry>
        </mxCell>
        <mxCell id="odCDK62YW-OpRXwGmsrN-255" value="(Table 5)diagnosis" style="shape=table;startSize=24;container=1;collapsible=1;childLayout=tableLayout;fixedRows=1;rowLines=0;fontStyle=1;align=center;resizeLast=1;html=1;" parent="1" vertex="1">
          <mxGeometry x="1049.4999999999998" y="2300" width="180" height="114" as="geometry" />
        </mxCell>
        <mxCell id="odCDK62YW-OpRXwGmsrN-256" value="" style="shape=tableRow;horizontal=0;startSize=0;swimlaneHead=0;swimlaneBody=0;fillColor=none;collapsible=0;dropTarget=0;points=[[0,0.5],[1,0.5]];portConstraint=eastwest;top=0;left=0;right=0;bottom=1;" parent="odCDK62YW-OpRXwGmsrN-255" vertex="1">
          <mxGeometry y="24" width="180" height="30" as="geometry" />
        </mxCell>
        <mxCell id="odCDK62YW-OpRXwGmsrN-257" value="PK" style="shape=partialRectangle;connectable=0;fillColor=none;top=0;left=0;bottom=0;right=0;fontStyle=1;overflow=hidden;whiteSpace=wrap;html=1;" parent="odCDK62YW-OpRXwGmsrN-256" vertex="1">
          <mxGeometry width="29.75" height="30" as="geometry">
            <mxRectangle width="29.75" height="30" as="alternateBounds" />
          </mxGeometry>
        </mxCell>
        <mxCell id="odCDK62YW-OpRXwGmsrN-258" value="patient_id" style="shape=partialRectangle;connectable=0;fillColor=none;top=0;left=0;bottom=0;right=0;align=left;spacingLeft=6;fontStyle=5;overflow=hidden;whiteSpace=wrap;html=1;" parent="odCDK62YW-OpRXwGmsrN-256" vertex="1">
          <mxGeometry x="29.75" width="150.25" height="30" as="geometry">
            <mxRectangle width="150.25" height="30" as="alternateBounds" />
          </mxGeometry>
        </mxCell>
        <mxCell id="odCDK62YW-OpRXwGmsrN-259" value="" style="shape=tableRow;horizontal=0;startSize=0;swimlaneHead=0;swimlaneBody=0;fillColor=none;collapsible=0;dropTarget=0;points=[[0,0.5],[1,0.5]];portConstraint=eastwest;top=0;left=0;right=0;bottom=0;" parent="odCDK62YW-OpRXwGmsrN-255" vertex="1">
          <mxGeometry y="54" width="180" height="30" as="geometry" />
        </mxCell>
        <mxCell id="odCDK62YW-OpRXwGmsrN-260" value="" style="shape=partialRectangle;connectable=0;fillColor=none;top=0;left=0;bottom=0;right=0;editable=1;overflow=hidden;whiteSpace=wrap;html=1;" parent="odCDK62YW-OpRXwGmsrN-259" vertex="1">
          <mxGeometry width="29.75" height="30" as="geometry">
            <mxRectangle width="29.75" height="30" as="alternateBounds" />
          </mxGeometry>
        </mxCell>
        <mxCell id="odCDK62YW-OpRXwGmsrN-261" value="diagnosis_date" style="shape=partialRectangle;connectable=0;fillColor=none;top=0;left=0;bottom=0;right=0;align=left;spacingLeft=6;overflow=hidden;whiteSpace=wrap;html=1;" parent="odCDK62YW-OpRXwGmsrN-259" vertex="1">
          <mxGeometry x="29.75" width="150.25" height="30" as="geometry">
            <mxRectangle width="150.25" height="30" as="alternateBounds" />
          </mxGeometry>
        </mxCell>
        <mxCell id="odCDK62YW-OpRXwGmsrN-262" value="" style="shape=tableRow;horizontal=0;startSize=0;swimlaneHead=0;swimlaneBody=0;fillColor=none;collapsible=0;dropTarget=0;points=[[0,0.5],[1,0.5]];portConstraint=eastwest;top=0;left=0;right=0;bottom=0;" parent="odCDK62YW-OpRXwGmsrN-255" vertex="1">
          <mxGeometry y="84" width="180" height="30" as="geometry" />
        </mxCell>
        <mxCell id="odCDK62YW-OpRXwGmsrN-263" value="" style="shape=partialRectangle;connectable=0;fillColor=none;top=0;left=0;bottom=0;right=0;editable=1;overflow=hidden;whiteSpace=wrap;html=1;" parent="odCDK62YW-OpRXwGmsrN-262" vertex="1">
          <mxGeometry width="29.75" height="30" as="geometry">
            <mxRectangle width="29.75" height="30" as="alternateBounds" />
          </mxGeometry>
        </mxCell>
        <mxCell id="odCDK62YW-OpRXwGmsrN-264" value="diabetes_type" style="shape=partialRectangle;connectable=0;fillColor=none;top=0;left=0;bottom=0;right=0;align=left;spacingLeft=6;overflow=hidden;whiteSpace=wrap;html=1;" parent="odCDK62YW-OpRXwGmsrN-262" vertex="1">
          <mxGeometry x="29.75" width="150.25" height="30" as="geometry">
            <mxRectangle width="150.25" height="30" as="alternateBounds" />
          </mxGeometry>
        </mxCell>
        <mxCell id="odCDK62YW-OpRXwGmsrN-272" value="" style="edgeStyle=entityRelationEdgeStyle;fontSize=12;html=1;endArrow=ERmandOne;startArrow=ERmandOne;rounded=0;entryX=0;entryY=0.5;entryDx=0;entryDy=0;exitX=1;exitY=0.5;exitDx=0;exitDy=0;" parent="1" source="odCDK62YW-OpRXwGmsrN-282" target="odCDK62YW-OpRXwGmsrN-224" edge="1">
          <mxGeometry width="100" height="100" relative="1" as="geometry">
            <mxPoint x="906.9399999999999" y="2140" as="sourcePoint" />
            <mxPoint x="986.9399999999998" y="2129" as="targetPoint" />
          </mxGeometry>
        </mxCell>
        <mxCell id="odCDK62YW-OpRXwGmsrN-273" value="1:1" style="edgeLabel;html=1;align=center;verticalAlign=middle;resizable=0;points=[];" parent="odCDK62YW-OpRXwGmsrN-272" vertex="1" connectable="0">
          <mxGeometry x="-0.0321" relative="1" as="geometry">
            <mxPoint as="offset" />
          </mxGeometry>
        </mxCell>
        <mxCell id="odCDK62YW-OpRXwGmsrN-277" value="" style="edgeStyle=entityRelationEdgeStyle;fontSize=12;html=1;endArrow=ERmandOne;startArrow=ERmandOne;rounded=0;exitX=1;exitY=0.5;exitDx=0;exitDy=0;" parent="1" source="odCDK62YW-OpRXwGmsrN-86" target="odCDK62YW-OpRXwGmsrN-208" edge="1">
          <mxGeometry width="100" height="100" relative="1" as="geometry">
            <mxPoint x="409.94000000000005" y="2380" as="sourcePoint" />
            <mxPoint x="489.94000000000005" y="2369" as="targetPoint" />
          </mxGeometry>
        </mxCell>
        <mxCell id="odCDK62YW-OpRXwGmsrN-278" value="1:1" style="edgeLabel;html=1;align=center;verticalAlign=middle;resizable=0;points=[];" parent="odCDK62YW-OpRXwGmsrN-277" vertex="1" connectable="0">
          <mxGeometry x="-0.0321" relative="1" as="geometry">
            <mxPoint as="offset" />
          </mxGeometry>
        </mxCell>
        <mxCell id="odCDK62YW-OpRXwGmsrN-285" value="" style="edgeStyle=entityRelationEdgeStyle;fontSize=12;html=1;endArrow=ERmandOne;startArrow=ERmandOne;rounded=0;exitX=1;exitY=0.5;exitDx=0;exitDy=0;entryX=0;entryY=0.5;entryDx=0;entryDy=0;" parent="1" source="odCDK62YW-OpRXwGmsrN-240" target="odCDK62YW-OpRXwGmsrN-282" edge="1">
          <mxGeometry width="100" height="100" relative="1" as="geometry">
            <mxPoint x="627.94" y="2568" as="sourcePoint" />
            <mxPoint x="769.94" y="2500" as="targetPoint" />
            <Array as="points">
              <mxPoint x="739.94" y="2458" />
            </Array>
          </mxGeometry>
        </mxCell>
        <mxCell id="odCDK62YW-OpRXwGmsrN-286" value="1:1" style="edgeLabel;html=1;align=center;verticalAlign=middle;resizable=0;points=[];" parent="odCDK62YW-OpRXwGmsrN-285" vertex="1" connectable="0">
          <mxGeometry x="-0.0321" relative="1" as="geometry">
            <mxPoint as="offset" />
          </mxGeometry>
        </mxCell>
        <mxCell id="odCDK62YW-OpRXwGmsrN-288" value="1:1 &lt;br&gt;combine patient data to input_data" style="text;html=1;align=center;verticalAlign=middle;resizable=0;points=[];autosize=1;strokeColor=none;fillColor=none;" parent="1" vertex="1">
          <mxGeometry x="736.5" y="2233" width="202" height="41" as="geometry" />
        </mxCell>
        <mxCell id="odCDK62YW-OpRXwGmsrN-304" value="" style="edgeStyle=entityRelationEdgeStyle;fontSize=12;html=1;endArrow=ERoneToMany;rounded=0;exitX=1;exitY=0.5;exitDx=0;exitDy=0;" parent="1" source="odCDK62YW-OpRXwGmsrN-282" target="odCDK62YW-OpRXwGmsrN-256" edge="1">
          <mxGeometry width="100" height="100" relative="1" as="geometry">
            <mxPoint x="888.5" y="2056" as="sourcePoint" />
            <mxPoint x="968.5" y="1928" as="targetPoint" />
          </mxGeometry>
        </mxCell>
        <mxCell id="odCDK62YW-OpRXwGmsrN-305" value="1:n" style="edgeLabel;html=1;align=center;verticalAlign=middle;resizable=0;points=[];" parent="odCDK62YW-OpRXwGmsrN-304" vertex="1" connectable="0">
          <mxGeometry x="-0.2373" relative="1" as="geometry">
            <mxPoint x="7" y="-13" as="offset" />
          </mxGeometry>
        </mxCell>
        <mxCell id="wLA_0Jd8sImHFehwG6jU-82" style="edgeStyle=orthogonalEdgeStyle;rounded=0;orthogonalLoop=1;jettySize=auto;html=1;" parent="1" source="wLA_0Jd8sImHFehwG6jU-72" target="wLA_0Jd8sImHFehwG6jU-81" edge="1">
          <mxGeometry relative="1" as="geometry" />
        </mxCell>
        <mxCell id="wLA_0Jd8sImHFehwG6jU-72" value="Model A" style="rounded=0;whiteSpace=wrap;html=1;fillColor=#dae8fc;strokeColor=#6c8ebf;" parent="1" vertex="1">
          <mxGeometry x="-824" y="927.5" width="120" height="60" as="geometry" />
        </mxCell>
        <mxCell id="wLA_0Jd8sImHFehwG6jU-86" style="edgeStyle=orthogonalEdgeStyle;rounded=0;orthogonalLoop=1;jettySize=auto;html=1;" parent="1" source="wLA_0Jd8sImHFehwG6jU-73" target="wLA_0Jd8sImHFehwG6jU-83" edge="1">
          <mxGeometry relative="1" as="geometry" />
        </mxCell>
        <mxCell id="wLA_0Jd8sImHFehwG6jU-73" value="Model B" style="rounded=0;whiteSpace=wrap;html=1;fillColor=#d5e8d4;strokeColor=#82b366;" parent="1" vertex="1">
          <mxGeometry x="-826" y="1015.5" width="120" height="60" as="geometry" />
        </mxCell>
        <mxCell id="wLA_0Jd8sImHFehwG6jU-87" style="edgeStyle=orthogonalEdgeStyle;rounded=0;orthogonalLoop=1;jettySize=auto;html=1;" parent="1" source="wLA_0Jd8sImHFehwG6jU-74" target="wLA_0Jd8sImHFehwG6jU-84" edge="1">
          <mxGeometry relative="1" as="geometry" />
        </mxCell>
        <mxCell id="wLA_0Jd8sImHFehwG6jU-74" value="Model C" style="rounded=0;whiteSpace=wrap;html=1;fillColor=#ffe6cc;strokeColor=#d79b00;" parent="1" vertex="1">
          <mxGeometry x="-826" y="1103.5" width="120" height="60" as="geometry" />
        </mxCell>
        <mxCell id="wLA_0Jd8sImHFehwG6jU-88" style="edgeStyle=orthogonalEdgeStyle;rounded=0;orthogonalLoop=1;jettySize=auto;html=1;entryX=0;entryY=0.5;entryDx=0;entryDy=0;" parent="1" source="wLA_0Jd8sImHFehwG6jU-75" target="wLA_0Jd8sImHFehwG6jU-85" edge="1">
          <mxGeometry relative="1" as="geometry" />
        </mxCell>
        <mxCell id="wLA_0Jd8sImHFehwG6jU-75" value="Model D" style="rounded=0;whiteSpace=wrap;html=1;fillColor=#fff2cc;strokeColor=#d6b656;" parent="1" vertex="1">
          <mxGeometry x="-829" y="1188.5" width="120" height="60" as="geometry" />
        </mxCell>
        <mxCell id="wLA_0Jd8sImHFehwG6jU-77" style="rounded=0;orthogonalLoop=1;jettySize=auto;html=1;entryX=0;entryY=0.5;entryDx=0;entryDy=0;exitX=1;exitY=0.5;exitDx=0;exitDy=0;" parent="1" source="wLA_0Jd8sImHFehwG6jU-76" target="wLA_0Jd8sImHFehwG6jU-72" edge="1">
          <mxGeometry relative="1" as="geometry" />
        </mxCell>
        <mxCell id="wLA_0Jd8sImHFehwG6jU-78" style="rounded=0;orthogonalLoop=1;jettySize=auto;html=1;entryX=0;entryY=0.5;entryDx=0;entryDy=0;exitX=1;exitY=0.5;exitDx=0;exitDy=0;" parent="1" source="wLA_0Jd8sImHFehwG6jU-76" target="wLA_0Jd8sImHFehwG6jU-73" edge="1">
          <mxGeometry relative="1" as="geometry" />
        </mxCell>
        <mxCell id="wLA_0Jd8sImHFehwG6jU-79" style="rounded=0;orthogonalLoop=1;jettySize=auto;html=1;entryX=0;entryY=0.5;entryDx=0;entryDy=0;exitX=1;exitY=0.5;exitDx=0;exitDy=0;" parent="1" source="wLA_0Jd8sImHFehwG6jU-76" target="wLA_0Jd8sImHFehwG6jU-74" edge="1">
          <mxGeometry relative="1" as="geometry" />
        </mxCell>
        <mxCell id="wLA_0Jd8sImHFehwG6jU-80" style="rounded=0;orthogonalLoop=1;jettySize=auto;html=1;entryX=0;entryY=0.5;entryDx=0;entryDy=0;exitX=1;exitY=0.5;exitDx=0;exitDy=0;" parent="1" source="wLA_0Jd8sImHFehwG6jU-76" target="wLA_0Jd8sImHFehwG6jU-75" edge="1">
          <mxGeometry relative="1" as="geometry" />
        </mxCell>
        <mxCell id="wLA_0Jd8sImHFehwG6jU-76" value="Data Set&lt;br&gt;Input" style="rounded=0;whiteSpace=wrap;html=1;" parent="1" vertex="1">
          <mxGeometry x="-1036" y="1039" width="99" height="54.5" as="geometry" />
        </mxCell>
        <mxCell id="wLA_0Jd8sImHFehwG6jU-81" value="Output A" style="rounded=0;whiteSpace=wrap;html=1;fillColor=#dae8fc;strokeColor=#6c8ebf;" parent="1" vertex="1">
          <mxGeometry x="-640" y="927.5" width="120" height="60" as="geometry" />
        </mxCell>
        <mxCell id="wLA_0Jd8sImHFehwG6jU-83" value="Output B" style="rounded=0;whiteSpace=wrap;html=1;fillColor=#d5e8d4;strokeColor=#82b366;" parent="1" vertex="1">
          <mxGeometry x="-640" y="1015.5" width="120" height="60" as="geometry" />
        </mxCell>
        <mxCell id="wLA_0Jd8sImHFehwG6jU-84" value="Output C" style="rounded=0;whiteSpace=wrap;html=1;fillColor=#ffe6cc;strokeColor=#d79b00;" parent="1" vertex="1">
          <mxGeometry x="-642" y="1103.5" width="120" height="60" as="geometry" />
        </mxCell>
        <mxCell id="wLA_0Jd8sImHFehwG6jU-85" value="Output D" style="rounded=0;whiteSpace=wrap;html=1;fillColor=#fff2cc;strokeColor=#d6b656;" parent="1" vertex="1">
          <mxGeometry x="-642" y="1188.5" width="120" height="60" as="geometry" />
        </mxCell>
        <mxCell id="wLA_0Jd8sImHFehwG6jU-89" value="" style="shape=image;verticalLabelPosition=bottom;labelBackgroundColor=default;verticalAlign=top;aspect=fixed;imageAspect=0;image=https://dz2cdn1.dzone.com/storage/temp/10131994-screen-shot-2018-08-31-at-51200-pm.png;" parent="1" vertex="1">
          <mxGeometry x="-897" y="487" width="703" height="340" as="geometry" />
        </mxCell>
        <mxCell id="wLA_0Jd8sImHFehwG6jU-91" value="Dual coding test&lt;span style=&quot;font-size: medium; font-weight: 400; text-align: start;&quot;&gt;&lt;/span&gt;" style="swimlane;whiteSpace=wrap;html=1;" parent="1" vertex="1">
          <mxGeometry x="-1057" y="851.5" width="567" height="420" as="geometry" />
        </mxCell>
        <mxCell id="wLA_0Jd8sImHFehwG6jU-92" value="optimised model B" style="html=1;shadow=0;dashed=0;align=left;verticalAlign=middle;shape=mxgraph.arrows2.arrow;dy=0.6;dx=40;notch=0;" parent="1" vertex="1">
          <mxGeometry x="-478" y="1023.5" width="108" height="70" as="geometry" />
        </mxCell>
        <mxCell id="wLA_0Jd8sImHFehwG6jU-110" value="&lt;h3 style=&quot;box-sizing: border-box; font-family: &amp;quot;Helvetica Neue&amp;quot;, Helvetica, Arial, sans-serif; line-height: 1.2; color: rgb(34, 38, 53); margin-top: 20px; margin-bottom: 5px; clear: both; text-align: start;&quot;&gt;&lt;font style=&quot;font-size: 12px;&quot;&gt;Metamorphic test&lt;/font&gt;&lt;/h3&gt;&lt;div&gt;&lt;br&gt;&lt;/div&gt;" style="swimlane;whiteSpace=wrap;html=1;" parent="1" vertex="1">
          <mxGeometry x="-361" y="846.75" width="567" height="420" as="geometry" />
        </mxCell>
        <mxCell id="wLA_0Jd8sImHFehwG6jU-105" value="Input(X=X1)" style="rounded=0;whiteSpace=wrap;html=1;fillColor=#f5f5f5;fontColor=#333333;strokeColor=#666666;" parent="wLA_0Jd8sImHFehwG6jU-110" vertex="1">
          <mxGeometry x="29" y="120" width="99" height="54.5" as="geometry" />
        </mxCell>
        <mxCell id="wLA_0Jd8sImHFehwG6jU-96" value="Model B&amp;nbsp;" style="rounded=0;whiteSpace=wrap;html=1;fillColor=#d5e8d4;strokeColor=#82b366;" parent="wLA_0Jd8sImHFehwG6jU-110" vertex="1">
          <mxGeometry x="211" y="117.25" width="120" height="60" as="geometry" />
        </mxCell>
        <mxCell id="wLA_0Jd8sImHFehwG6jU-102" style="rounded=0;orthogonalLoop=1;jettySize=auto;html=1;entryX=0;entryY=0.5;entryDx=0;entryDy=0;exitX=1;exitY=0.5;exitDx=0;exitDy=0;" parent="wLA_0Jd8sImHFehwG6jU-110" source="wLA_0Jd8sImHFehwG6jU-105" target="wLA_0Jd8sImHFehwG6jU-96" edge="1">
          <mxGeometry relative="1" as="geometry" />
        </mxCell>
        <mxCell id="wLA_0Jd8sImHFehwG6jU-107" value="Output (Y1)" style="rounded=0;whiteSpace=wrap;html=1;fillColor=#f5f5f5;fontColor=#333333;strokeColor=#666666;" parent="wLA_0Jd8sImHFehwG6jU-110" vertex="1">
          <mxGeometry x="405" y="117.25" width="120" height="60" as="geometry" />
        </mxCell>
        <mxCell id="wLA_0Jd8sImHFehwG6jU-95" style="edgeStyle=orthogonalEdgeStyle;rounded=0;orthogonalLoop=1;jettySize=auto;html=1;" parent="wLA_0Jd8sImHFehwG6jU-110" source="wLA_0Jd8sImHFehwG6jU-96" target="wLA_0Jd8sImHFehwG6jU-107" edge="1">
          <mxGeometry relative="1" as="geometry" />
        </mxCell>
        <mxCell id="wLA_0Jd8sImHFehwG6jU-115" style="edgeStyle=orthogonalEdgeStyle;rounded=0;orthogonalLoop=1;jettySize=auto;html=1;" parent="wLA_0Jd8sImHFehwG6jU-110" source="wLA_0Jd8sImHFehwG6jU-111" target="wLA_0Jd8sImHFehwG6jU-112" edge="1">
          <mxGeometry relative="1" as="geometry" />
        </mxCell>
        <mxCell id="wLA_0Jd8sImHFehwG6jU-111" value="Input(X=G(X1))" style="rounded=0;whiteSpace=wrap;html=1;fillColor=#f5f5f5;fontColor=#333333;strokeColor=#666666;" parent="wLA_0Jd8sImHFehwG6jU-110" vertex="1">
          <mxGeometry x="29" y="289.5" width="99" height="54.5" as="geometry" />
        </mxCell>
        <mxCell id="wLA_0Jd8sImHFehwG6jU-114" style="edgeStyle=orthogonalEdgeStyle;rounded=0;orthogonalLoop=1;jettySize=auto;html=1;" parent="wLA_0Jd8sImHFehwG6jU-110" source="wLA_0Jd8sImHFehwG6jU-112" target="wLA_0Jd8sImHFehwG6jU-113" edge="1">
          <mxGeometry relative="1" as="geometry" />
        </mxCell>
        <mxCell id="wLA_0Jd8sImHFehwG6jU-112" value="Model B" style="rounded=0;whiteSpace=wrap;html=1;fillColor=#d5e8d4;strokeColor=#82b366;" parent="wLA_0Jd8sImHFehwG6jU-110" vertex="1">
          <mxGeometry x="211" y="286.75" width="120" height="60" as="geometry" />
        </mxCell>
        <mxCell id="wLA_0Jd8sImHFehwG6jU-113" value="Output (Y2)" style="rounded=0;whiteSpace=wrap;html=1;fillColor=#f5f5f5;strokeColor=#666666;fontColor=#333333;" parent="wLA_0Jd8sImHFehwG6jU-110" vertex="1">
          <mxGeometry x="405" y="286.75" width="120" height="60" as="geometry" />
        </mxCell>
        <mxCell id="BLDe6z0NfqYXGkGi1Rua-72" value="Data Engineer" style="shape=umlActor;verticalLabelPosition=bottom;verticalAlign=top;html=1;outlineConnect=0;" vertex="1" parent="1">
          <mxGeometry x="230" y="1346" width="30" height="60" as="geometry" />
        </mxCell>
        <mxCell id="BLDe6z0NfqYXGkGi1Rua-73" value="Machine Learning &lt;br&gt;Engineer" style="shape=umlActor;verticalLabelPosition=bottom;verticalAlign=top;html=1;outlineConnect=0;" vertex="1" parent="1">
          <mxGeometry x="561" y="1650.75" width="30" height="60" as="geometry" />
        </mxCell>
        <mxCell id="BLDe6z0NfqYXGkGi1Rua-74" value="Business&lt;br&gt;User" style="shape=umlActor;verticalLabelPosition=bottom;verticalAlign=top;html=1;outlineConnect=0;" vertex="1" parent="1">
          <mxGeometry x="769" y="1356" width="30" height="60" as="geometry" />
        </mxCell>
        <mxCell id="BLDe6z0NfqYXGkGi1Rua-75" value="MLops Developer" style="shape=umlActor;verticalLabelPosition=bottom;verticalAlign=top;html=1;outlineConnect=0;" vertex="1" parent="1">
          <mxGeometry x="242" y="1601.25" width="30" height="60" as="geometry" />
        </mxCell>
        <mxCell id="BLDe6z0NfqYXGkGi1Rua-77" value="data extraction" style="ellipse;whiteSpace=wrap;html=1;" vertex="1" parent="1">
          <mxGeometry x="402" y="1277.5" width="89" height="48" as="geometry" />
        </mxCell>
        <mxCell id="BLDe6z0NfqYXGkGi1Rua-79" style="rounded=0;orthogonalLoop=1;jettySize=auto;html=1;endArrow=none;endFill=0;entryX=0;entryY=0.5;entryDx=0;entryDy=0;" edge="1" parent="1" source="BLDe6z0NfqYXGkGi1Rua-72" target="BLDe6z0NfqYXGkGi1Rua-77">
          <mxGeometry relative="1" as="geometry">
            <mxPoint x="340" y="1318" as="targetPoint" />
          </mxGeometry>
        </mxCell>
        <mxCell id="BLDe6z0NfqYXGkGi1Rua-80" value="data preparing" style="ellipse;whiteSpace=wrap;html=1;" vertex="1" parent="1">
          <mxGeometry x="400" y="1350.5" width="89" height="48" as="geometry" />
        </mxCell>
        <mxCell id="BLDe6z0NfqYXGkGi1Rua-81" value="Raw Data&lt;br&gt;Clearning" style="ellipse;whiteSpace=wrap;html=1;" vertex="1" parent="1">
          <mxGeometry x="613" y="1271.5" width="89" height="48" as="geometry" />
        </mxCell>
        <mxCell id="BLDe6z0NfqYXGkGi1Rua-82" style="rounded=0;orthogonalLoop=1;jettySize=auto;html=1;endArrow=block;endFill=0;endSize=10;dashed=1;" edge="1" parent="1" source="BLDe6z0NfqYXGkGi1Rua-84" target="BLDe6z0NfqYXGkGi1Rua-80">
          <mxGeometry relative="1" as="geometry" />
        </mxCell>
        <mxCell id="BLDe6z0NfqYXGkGi1Rua-83" value="&amp;lt;includes&amp;gt;" style="edgeLabel;html=1;align=center;verticalAlign=middle;resizable=0;points=[];" vertex="1" connectable="0" parent="BLDe6z0NfqYXGkGi1Rua-82">
          <mxGeometry x="-0.2913" y="-2" relative="1" as="geometry">
            <mxPoint x="-7" y="-7" as="offset" />
          </mxGeometry>
        </mxCell>
        <mxCell id="BLDe6z0NfqYXGkGi1Rua-84" value="Meta Data&lt;br&gt;Managing" style="ellipse;whiteSpace=wrap;html=1;" vertex="1" parent="1">
          <mxGeometry x="613" y="1346" width="89" height="48" as="geometry" />
        </mxCell>
        <mxCell id="BLDe6z0NfqYXGkGi1Rua-85" style="rounded=0;orthogonalLoop=1;jettySize=auto;html=1;entryX=0;entryY=0;entryDx=0;entryDy=0;endArrow=block;endFill=0;endSize=10;dashed=1;exitX=1;exitY=1;exitDx=0;exitDy=0;" edge="1" parent="1" source="BLDe6z0NfqYXGkGi1Rua-80" target="BLDe6z0NfqYXGkGi1Rua-89">
          <mxGeometry relative="1" as="geometry" />
        </mxCell>
        <mxCell id="BLDe6z0NfqYXGkGi1Rua-86" value="&amp;lt;includes&amp;gt;" style="edgeLabel;html=1;align=center;verticalAlign=middle;resizable=0;points=[];" vertex="1" connectable="0" parent="BLDe6z0NfqYXGkGi1Rua-85">
          <mxGeometry x="-0.5603" y="-1" relative="1" as="geometry">
            <mxPoint x="35" y="12" as="offset" />
          </mxGeometry>
        </mxCell>
        <mxCell id="BLDe6z0NfqYXGkGi1Rua-87" style="rounded=0;orthogonalLoop=1;jettySize=auto;html=1;endSize=10;endArrow=block;endFill=0;dashed=1;" edge="1" parent="1" source="BLDe6z0NfqYXGkGi1Rua-89" target="BLDe6z0NfqYXGkGi1Rua-95">
          <mxGeometry relative="1" as="geometry">
            <mxPoint x="469.80712423661225" y="1527.0551541784098" as="targetPoint" />
          </mxGeometry>
        </mxCell>
        <mxCell id="BLDe6z0NfqYXGkGi1Rua-88" value="&amp;lt;extends&amp;gt;" style="edgeLabel;html=1;align=center;verticalAlign=middle;resizable=0;points=[];" vertex="1" connectable="0" parent="BLDe6z0NfqYXGkGi1Rua-87">
          <mxGeometry x="-0.2142" y="-2" relative="1" as="geometry">
            <mxPoint x="-1" y="9" as="offset" />
          </mxGeometry>
        </mxCell>
        <mxCell id="BLDe6z0NfqYXGkGi1Rua-89" value="Summary Data&lt;br&gt;Generating" style="ellipse;whiteSpace=wrap;html=1;" vertex="1" parent="1">
          <mxGeometry x="613" y="1433" width="89" height="48" as="geometry" />
        </mxCell>
        <mxCell id="BLDe6z0NfqYXGkGi1Rua-90" value="&amp;lt;includes&amp;gt;" style="endArrow=block;endSize=10;endFill=0;html=1;rounded=0;entryX=1;entryY=0;entryDx=0;entryDy=0;exitX=0;exitY=0.5;exitDx=0;exitDy=0;dashed=1;" edge="1" parent="1" source="BLDe6z0NfqYXGkGi1Rua-81" target="BLDe6z0NfqYXGkGi1Rua-80">
          <mxGeometry x="-0.272" y="1" width="160" relative="1" as="geometry">
            <mxPoint x="501" y="1490.5" as="sourcePoint" />
            <mxPoint x="661" y="1490.5" as="targetPoint" />
            <mxPoint as="offset" />
          </mxGeometry>
        </mxCell>
        <mxCell id="BLDe6z0NfqYXGkGi1Rua-91" style="rounded=0;orthogonalLoop=1;jettySize=auto;html=1;entryX=0;entryY=0.5;entryDx=0;entryDy=0;endArrow=none;endFill=0;" edge="1" parent="1" source="BLDe6z0NfqYXGkGi1Rua-72" target="BLDe6z0NfqYXGkGi1Rua-80">
          <mxGeometry relative="1" as="geometry" />
        </mxCell>
        <mxCell id="BLDe6z0NfqYXGkGi1Rua-92" style="rounded=0;orthogonalLoop=1;jettySize=auto;html=1;entryX=0.5;entryY=0;entryDx=0;entryDy=0;endArrow=none;endFill=0;" edge="1" parent="1" source="BLDe6z0NfqYXGkGi1Rua-109" target="BLDe6z0NfqYXGkGi1Rua-117">
          <mxGeometry relative="1" as="geometry" />
        </mxCell>
        <mxCell id="BLDe6z0NfqYXGkGi1Rua-93" style="rounded=0;orthogonalLoop=1;jettySize=auto;html=1;entryX=0;entryY=0.5;entryDx=0;entryDy=0;endArrow=none;endFill=0;" edge="1" parent="1" source="BLDe6z0NfqYXGkGi1Rua-110" target="BLDe6z0NfqYXGkGi1Rua-105">
          <mxGeometry relative="1" as="geometry">
            <mxPoint x="516.3698263980864" y="1476.3802747060354" as="sourcePoint" />
          </mxGeometry>
        </mxCell>
        <mxCell id="BLDe6z0NfqYXGkGi1Rua-94" style="rounded=0;orthogonalLoop=1;jettySize=auto;html=1;endArrow=none;endFill=0;entryX=1;entryY=0.5;entryDx=0;entryDy=0;" edge="1" parent="1" source="BLDe6z0NfqYXGkGi1Rua-110" target="BLDe6z0NfqYXGkGi1Rua-104">
          <mxGeometry relative="1" as="geometry">
            <mxPoint x="524.6642075520267" y="1485.5444046031325" as="sourcePoint" />
          </mxGeometry>
        </mxCell>
        <mxCell id="BLDe6z0NfqYXGkGi1Rua-95" value="data transform" style="ellipse;whiteSpace=wrap;html=1;" vertex="1" parent="1">
          <mxGeometry x="402" y="1433" width="89" height="48" as="geometry" />
        </mxCell>
        <mxCell id="BLDe6z0NfqYXGkGi1Rua-96" style="rounded=0;orthogonalLoop=1;jettySize=auto;html=1;endArrow=none;endFill=0;" edge="1" parent="1" source="BLDe6z0NfqYXGkGi1Rua-72" target="BLDe6z0NfqYXGkGi1Rua-95">
          <mxGeometry relative="1" as="geometry">
            <mxPoint x="402" y="1547.5" as="targetPoint" />
          </mxGeometry>
        </mxCell>
        <mxCell id="BLDe6z0NfqYXGkGi1Rua-97" value="Training Model" style="ellipse;whiteSpace=wrap;html=1;" vertex="1" parent="1">
          <mxGeometry x="723.5" y="1710.25" width="89" height="48" as="geometry" />
        </mxCell>
        <mxCell id="BLDe6z0NfqYXGkGi1Rua-98" style="rounded=0;orthogonalLoop=1;jettySize=auto;html=1;endArrow=none;endFill=0;exitX=1;exitY=0.3333333333333333;exitDx=0;exitDy=0;exitPerimeter=0;" edge="1" parent="1" source="BLDe6z0NfqYXGkGi1Rua-73" target="BLDe6z0NfqYXGkGi1Rua-97">
          <mxGeometry relative="1" as="geometry" />
        </mxCell>
        <mxCell id="BLDe6z0NfqYXGkGi1Rua-99" style="rounded=0;orthogonalLoop=1;jettySize=auto;html=1;entryX=1;entryY=0.3333333333333333;entryDx=0;entryDy=0;entryPerimeter=0;endArrow=none;endFill=0;" edge="1" parent="1" source="BLDe6z0NfqYXGkGi1Rua-102" target="BLDe6z0NfqYXGkGi1Rua-73">
          <mxGeometry relative="1" as="geometry" />
        </mxCell>
        <mxCell id="BLDe6z0NfqYXGkGi1Rua-100" style="rounded=0;orthogonalLoop=1;jettySize=auto;html=1;dashed=1;endSize=1;endArrow=none;endFill=0;startArrow=block;startFill=0;startSize=10;" edge="1" parent="1" source="BLDe6z0NfqYXGkGi1Rua-102" target="BLDe6z0NfqYXGkGi1Rua-97">
          <mxGeometry relative="1" as="geometry" />
        </mxCell>
        <mxCell id="BLDe6z0NfqYXGkGi1Rua-101" value="&amp;lt;includes&amp;gt;" style="edgeLabel;html=1;align=center;verticalAlign=middle;resizable=0;points=[];" vertex="1" connectable="0" parent="BLDe6z0NfqYXGkGi1Rua-100">
          <mxGeometry x="0.1587" y="2" relative="1" as="geometry">
            <mxPoint as="offset" />
          </mxGeometry>
        </mxCell>
        <mxCell id="BLDe6z0NfqYXGkGi1Rua-102" value="ML Management&lt;br&gt;System" style="ellipse;whiteSpace=wrap;html=1;" vertex="1" parent="1">
          <mxGeometry x="723.5" y="1591" width="89" height="48" as="geometry" />
        </mxCell>
        <mxCell id="BLDe6z0NfqYXGkGi1Rua-103" style="rounded=0;orthogonalLoop=1;jettySize=auto;html=1;endArrow=none;endFill=0;" edge="1" parent="1" source="BLDe6z0NfqYXGkGi1Rua-75" target="BLDe6z0NfqYXGkGi1Rua-117">
          <mxGeometry relative="1" as="geometry" />
        </mxCell>
        <mxCell id="BLDe6z0NfqYXGkGi1Rua-114" style="rounded=0;orthogonalLoop=1;jettySize=auto;html=1;endArrow=none;endFill=0;exitX=0;exitY=0.5;exitDx=0;exitDy=0;" edge="1" parent="1" source="BLDe6z0NfqYXGkGi1Rua-104" target="BLDe6z0NfqYXGkGi1Rua-74">
          <mxGeometry relative="1" as="geometry" />
        </mxCell>
        <mxCell id="BLDe6z0NfqYXGkGi1Rua-104" value="BI&lt;br&gt;System" style="ellipse;whiteSpace=wrap;html=1;" vertex="1" parent="1">
          <mxGeometry x="903.44" y="1266.75" width="89" height="48" as="geometry" />
        </mxCell>
        <mxCell id="BLDe6z0NfqYXGkGi1Rua-115" style="rounded=0;orthogonalLoop=1;jettySize=auto;html=1;entryX=1;entryY=0.3333333333333333;entryDx=0;entryDy=0;entryPerimeter=0;endArrow=none;endFill=0;" edge="1" parent="1" source="BLDe6z0NfqYXGkGi1Rua-105" target="BLDe6z0NfqYXGkGi1Rua-74">
          <mxGeometry relative="1" as="geometry" />
        </mxCell>
        <mxCell id="BLDe6z0NfqYXGkGi1Rua-105" value="Report Management&lt;br&gt;System" style="ellipse;whiteSpace=wrap;html=1;" vertex="1" parent="1">
          <mxGeometry x="905.44" y="1349.75" width="89" height="48" as="geometry" />
        </mxCell>
        <mxCell id="BLDe6z0NfqYXGkGi1Rua-109" value="data transform" style="ellipse;whiteSpace=wrap;html=1;" vertex="1" parent="1">
          <mxGeometry x="405" y="1521.25" width="89" height="48" as="geometry" />
        </mxCell>
        <mxCell id="BLDe6z0NfqYXGkGi1Rua-113" style="rounded=0;orthogonalLoop=1;jettySize=auto;html=1;entryX=1;entryY=0.5;entryDx=0;entryDy=0;endArrow=none;endFill=0;" edge="1" parent="1" source="BLDe6z0NfqYXGkGi1Rua-110" target="BLDe6z0NfqYXGkGi1Rua-111">
          <mxGeometry relative="1" as="geometry" />
        </mxCell>
        <mxCell id="BLDe6z0NfqYXGkGi1Rua-110" value="data transform" style="ellipse;whiteSpace=wrap;html=1;" vertex="1" parent="1">
          <mxGeometry x="1055" y="1349.75" width="89" height="48" as="geometry" />
        </mxCell>
        <mxCell id="BLDe6z0NfqYXGkGi1Rua-116" style="rounded=0;orthogonalLoop=1;jettySize=auto;html=1;entryX=1;entryY=0.3333333333333333;entryDx=0;entryDy=0;entryPerimeter=0;startArrow=none;startFill=0;endArrow=none;endFill=0;exitX=0;exitY=0.5;exitDx=0;exitDy=0;" edge="1" parent="1" source="BLDe6z0NfqYXGkGi1Rua-111" target="BLDe6z0NfqYXGkGi1Rua-74">
          <mxGeometry relative="1" as="geometry" />
        </mxCell>
        <mxCell id="BLDe6z0NfqYXGkGi1Rua-111" value="ML Management&lt;br&gt;System" style="ellipse;whiteSpace=wrap;html=1;" vertex="1" parent="1">
          <mxGeometry x="905.44" y="1420.25" width="89" height="48" as="geometry" />
        </mxCell>
        <mxCell id="BLDe6z0NfqYXGkGi1Rua-117" value="ML Management&lt;br&gt;System" style="ellipse;whiteSpace=wrap;html=1;" vertex="1" parent="1">
          <mxGeometry x="405" y="1607.25" width="89" height="48" as="geometry" />
        </mxCell>
        <mxCell id="BLDe6z0NfqYXGkGi1Rua-118" value="Training Model" style="ellipse;whiteSpace=wrap;html=1;" vertex="1" parent="1">
          <mxGeometry x="407" y="1710.25" width="89" height="48" as="geometry" />
        </mxCell>
        <mxCell id="BLDe6z0NfqYXGkGi1Rua-119" style="rounded=0;orthogonalLoop=1;jettySize=auto;html=1;dashed=1;endSize=1;endArrow=none;endFill=0;startArrow=block;startFill=0;startSize=10;entryX=0.5;entryY=0;entryDx=0;entryDy=0;" edge="1" parent="1" source="BLDe6z0NfqYXGkGi1Rua-117" target="BLDe6z0NfqYXGkGi1Rua-118">
          <mxGeometry relative="1" as="geometry">
            <mxPoint x="631" y="1653.25" as="sourcePoint" />
            <mxPoint x="631" y="1715.25" as="targetPoint" />
          </mxGeometry>
        </mxCell>
        <mxCell id="BLDe6z0NfqYXGkGi1Rua-120" value="&amp;lt;includes&amp;gt;" style="edgeLabel;html=1;align=center;verticalAlign=middle;resizable=0;points=[];" vertex="1" connectable="0" parent="BLDe6z0NfqYXGkGi1Rua-119">
          <mxGeometry x="0.1587" y="2" relative="1" as="geometry">
            <mxPoint as="offset" />
          </mxGeometry>
        </mxCell>
        <mxCell id="BLDe6z0NfqYXGkGi1Rua-122" value="Training Model" style="ellipse;whiteSpace=wrap;html=1;" vertex="1" parent="1">
          <mxGeometry x="909.94" y="1521.25" width="89" height="48" as="geometry" />
        </mxCell>
        <mxCell id="BLDe6z0NfqYXGkGi1Rua-123" style="rounded=0;orthogonalLoop=1;jettySize=auto;html=1;dashed=1;endSize=1;endArrow=none;endFill=0;startArrow=block;startFill=0;startSize=10;" edge="1" parent="1" target="BLDe6z0NfqYXGkGi1Rua-122" source="BLDe6z0NfqYXGkGi1Rua-111">
          <mxGeometry relative="1" as="geometry">
            <mxPoint x="957.94" y="1492.25" as="sourcePoint" />
          </mxGeometry>
        </mxCell>
        <mxCell id="BLDe6z0NfqYXGkGi1Rua-124" value="&amp;lt;includes&amp;gt;" style="edgeLabel;html=1;align=center;verticalAlign=middle;resizable=0;points=[];" vertex="1" connectable="0" parent="BLDe6z0NfqYXGkGi1Rua-123">
          <mxGeometry x="0.1587" y="2" relative="1" as="geometry">
            <mxPoint as="offset" />
          </mxGeometry>
        </mxCell>
      </root>
    </mxGraphModel>
  </diagram>
</mxfile>
